<?xml version="1.0" encoding="UTF-8" standalone="no"?><svg xmlns="http://www.w3.org/2000/svg" xmlns:xlink="http://www.w3.org/1999/xlink" contentScriptType="application/ecmascript" contentStyleType="text/css" height="665px" preserveAspectRatio="none" style="width:1651px;height:665px;" version="1.1" viewBox="0 0 1651 665" width="1651px" zoomAndPan="magnify"><defs><filter height="300%" id="fzdhab7jntsj" width="300%" x="-1" y="-1"><feGaussianBlur result="blurOut" stdDeviation="2.0"/><feColorMatrix in="blurOut" result="blurOut2" type="matrix" values="0 0 0 0 0 0 0 0 0 0 0 0 0 0 0 0 0 0 .4 0"/><feOffset dx="4.0" dy="4.0" in="blurOut2" result="blurOut3"/><feBlend in="SourceGraphic" in2="blurOut3" mode="normal"/></filter></defs><g><!--MD5=[521817ab83e81da341a3f4b5e91bae41]
class Command--><rect fill="#FEFECE" filter="url(#fzdhab7jntsj)" height="60.8047" id="Command" style="stroke: #A80036; stroke-width: 1.5;" width="133" x="500.5" y="8"/><ellipse cx="533.05" cy="24" fill="#B4A7E5" rx="11" ry="11" style="stroke: #A80036; stroke-width: 1.0;"/><path d="M534.0031,20.7813 L534.0031,27.2969 L535.7219,27.2969 C536.175,27.2969 536.3156,27.3281 536.4875,27.4531 C536.7219,27.625 536.8313,27.875 536.8313,28.1563 C536.8313,28.7188 536.4719,29 535.7219,29 L530.5813,29 C530.175,29 529.9719,28.9531 529.8156,28.8281 C529.5969,28.6719 529.4563,28.4063 529.4563,28.1563 C529.4563,27.8594 529.6125,27.5781 529.8625,27.4219 C530.0188,27.3125 530.1438,27.2969 530.5813,27.2969 L532.3,27.2969 L532.3,20.7813 L530.5813,20.7813 C530.1594,20.7813 529.9719,20.75 529.8156,20.6406 C529.5969,20.4688 529.4563,20.2188 529.4563,19.9375 C529.4563,19.6563 529.6125,19.3594 529.8625,19.2031 C530.0188,19.1094 530.1438,19.0938 530.5813,19.0938 L535.7219,19.0938 C536.175,19.0938 536.3156,19.125 536.4875,19.2344 C536.7219,19.4063 536.8313,19.6719 536.8313,19.9375 C536.8313,20.2344 536.6906,20.5156 536.425,20.6719 C536.3,20.75 536.1125,20.7813 535.7219,20.7813 Z "/><text fill="#000000" font-family="sans-serif" font-size="12" font-style="italic" lengthAdjust="spacingAndGlyphs" textLength="62" x="550.95" y="28.1543">Command</text><line style="stroke: #A80036; stroke-width: 1.5;" x1="501.5" x2="632.5" y1="40" y2="40"/><line style="stroke: #A80036; stroke-width: 1.5;" x1="501.5" x2="632.5" y1="48" y2="48"/><ellipse cx="511.5" cy="59" fill="#84BE84" rx="3" ry="3" style="stroke: #038048; stroke-width: 1.0;"/><text fill="#000000" font-family="sans-serif" font-size="11" lengthAdjust="spacingAndGlyphs" textLength="107" x="520.5" y="62.2104">execute(data: T): T</text><!--MD5=[a1870843d4c15555cb0eda8034ae52ef]
class Dictionary--><rect fill="#FEFECE" filter="url(#fzdhab7jntsj)" height="60.8047" id="Dictionary" style="stroke: #A80036; stroke-width: 1.5;" width="211" x="229.5" y="320"/><ellipse cx="299.25" cy="336" fill="#B4A7E5" rx="11" ry="11" style="stroke: #A80036; stroke-width: 1.0;"/><path d="M300.2031,332.7813 L300.2031,339.2969 L301.9219,339.2969 C302.375,339.2969 302.5156,339.3281 302.6875,339.4531 C302.9219,339.625 303.0313,339.875 303.0313,340.1563 C303.0313,340.7188 302.6719,341 301.9219,341 L296.7813,341 C296.375,341 296.1719,340.9531 296.0156,340.8281 C295.7969,340.6719 295.6563,340.4063 295.6563,340.1563 C295.6563,339.8594 295.8125,339.5781 296.0625,339.4219 C296.2188,339.3125 296.3438,339.2969 296.7813,339.2969 L298.5,339.2969 L298.5,332.7813 L296.7813,332.7813 C296.3594,332.7813 296.1719,332.75 296.0156,332.6406 C295.7969,332.4688 295.6563,332.2188 295.6563,331.9375 C295.6563,331.6563 295.8125,331.3594 296.0625,331.2031 C296.2188,331.1094 296.3438,331.0938 296.7813,331.0938 L301.9219,331.0938 C302.375,331.0938 302.5156,331.125 302.6875,331.2344 C302.9219,331.4063 303.0313,331.6719 303.0313,331.9375 C303.0313,332.2344 302.8906,332.5156 302.625,332.6719 C302.5,332.75 302.3125,332.7813 301.9219,332.7813 Z "/><text fill="#000000" font-family="sans-serif" font-size="12" font-style="italic" lengthAdjust="spacingAndGlyphs" textLength="63" x="319.75" y="340.1543">Dictionary</text><line style="stroke: #A80036; stroke-width: 1.5;" x1="230.5" x2="439.5" y1="352" y2="352"/><ellipse cx="240.5" cy="363" fill="none" rx="3" ry="3" style="stroke: #038048; stroke-width: 1.0;"/><text fill="#000000" font-family="sans-serif" font-size="11" lengthAdjust="spacingAndGlyphs" textLength="185" x="249.5" y="366.2104">entries : Array&lt;DictionaryEntry&gt;</text><line style="stroke: #A80036; stroke-width: 1.5;" x1="230.5" x2="439.5" y1="372.8047" y2="372.8047"/><!--MD5=[17bcf402dc4dda6f1876d902a155e99b]
class DictionaryEntry--><rect fill="#FEFECE" filter="url(#fzdhab7jntsj)" height="86.4141" id="DictionaryEntry" style="stroke: #A80036; stroke-width: 1.5;" width="162" x="254" y="460"/><ellipse cx="284.3" cy="476" fill="#B4A7E5" rx="11" ry="11" style="stroke: #A80036; stroke-width: 1.0;"/><path d="M285.2531,472.7813 L285.2531,479.2969 L286.9719,479.2969 C287.425,479.2969 287.5656,479.3281 287.7375,479.4531 C287.9719,479.625 288.0813,479.875 288.0813,480.1563 C288.0813,480.7188 287.7219,481 286.9719,481 L281.8313,481 C281.425,481 281.2219,480.9531 281.0656,480.8281 C280.8469,480.6719 280.7063,480.4063 280.7063,480.1563 C280.7063,479.8594 280.8625,479.5781 281.1125,479.4219 C281.2688,479.3125 281.3938,479.2969 281.8313,479.2969 L283.55,479.2969 L283.55,472.7813 L281.8313,472.7813 C281.4094,472.7813 281.2219,472.75 281.0656,472.6406 C280.8469,472.4688 280.7063,472.2188 280.7063,471.9375 C280.7063,471.6563 280.8625,471.3594 281.1125,471.2031 C281.2688,471.1094 281.3938,471.0938 281.8313,471.0938 L286.9719,471.0938 C287.425,471.0938 287.5656,471.125 287.7375,471.2344 C287.9719,471.4063 288.0813,471.6719 288.0813,471.9375 C288.0813,472.2344 287.9406,472.5156 287.675,472.6719 C287.55,472.75 287.3625,472.7813 286.9719,472.7813 Z "/><text fill="#000000" font-family="sans-serif" font-size="12" font-style="italic" lengthAdjust="spacingAndGlyphs" textLength="96" x="301.7" y="480.1543">DictionaryEntry</text><line style="stroke: #A80036; stroke-width: 1.5;" x1="255" x2="415" y1="492" y2="492"/><ellipse cx="265" cy="503" fill="none" rx="3" ry="3" style="stroke: #038048; stroke-width: 1.0;"/><text fill="#000000" font-family="sans-serif" font-size="11" lengthAdjust="spacingAndGlyphs" textLength="71" x="274" y="506.2104">key1 : string</text><ellipse cx="265" cy="515.8047" fill="none" rx="3" ry="3" style="stroke: #038048; stroke-width: 1.0;"/><text fill="#000000" font-family="sans-serif" font-size="11" lengthAdjust="spacingAndGlyphs" textLength="71" x="274" y="519.0151">key2 : string</text><ellipse cx="265" cy="528.6094" fill="none" rx="3" ry="3" style="stroke: #038048; stroke-width: 1.0;"/><text fill="#000000" font-family="sans-serif" font-size="11" lengthAdjust="spacingAndGlyphs" textLength="136" x="274" y="531.8198">type : TextReplacerType</text><line style="stroke: #A80036; stroke-width: 1.5;" x1="255" x2="415" y1="538.4141" y2="538.4141"/><!--MD5=[8ad7301b4d93af21e225a54ae2ca280f]
class GeocodeOpts--><rect fill="#FEFECE" filter="url(#fzdhab7jntsj)" height="73.6094" id="GeocodeOpts" style="stroke: #A80036; stroke-width: 1.5;" width="188" x="6" y="313.5"/><ellipse cx="54.25" cy="329.5" fill="#B4A7E5" rx="11" ry="11" style="stroke: #A80036; stroke-width: 1.0;"/><path d="M55.2031,326.2813 L55.2031,332.7969 L56.9219,332.7969 C57.375,332.7969 57.5156,332.8281 57.6875,332.9531 C57.9219,333.125 58.0313,333.375 58.0313,333.6563 C58.0313,334.2188 57.6719,334.5 56.9219,334.5 L51.7813,334.5 C51.375,334.5 51.1719,334.4531 51.0156,334.3281 C50.7969,334.1719 50.6563,333.9063 50.6563,333.6563 C50.6563,333.3594 50.8125,333.0781 51.0625,332.9219 C51.2188,332.8125 51.3438,332.7969 51.7813,332.7969 L53.5,332.7969 L53.5,326.2813 L51.7813,326.2813 C51.3594,326.2813 51.1719,326.25 51.0156,326.1406 C50.7969,325.9688 50.6563,325.7188 50.6563,325.4375 C50.6563,325.1563 50.8125,324.8594 51.0625,324.7031 C51.2188,324.6094 51.3438,324.5938 51.7813,324.5938 L56.9219,324.5938 C57.375,324.5938 57.5156,324.625 57.6875,324.7344 C57.9219,324.9063 58.0313,325.1719 58.0313,325.4375 C58.0313,325.7344 57.8906,326.0156 57.625,326.1719 C57.5,326.25 57.3125,326.2813 56.9219,326.2813 Z "/><text fill="#000000" font-family="sans-serif" font-size="12" font-style="italic" lengthAdjust="spacingAndGlyphs" textLength="83" x="74.75" y="333.6543">GeocodeOpts</text><line style="stroke: #A80036; stroke-width: 1.5;" x1="7" x2="193" y1="345.5" y2="345.5"/><ellipse cx="17" cy="356.5" fill="none" rx="3" ry="3" style="stroke: #038048; stroke-width: 1.0;"/><text fill="#000000" font-family="sans-serif" font-size="11" lengthAdjust="spacingAndGlyphs" textLength="110" x="26" y="359.7104">tresholds : number</text><ellipse cx="17" cy="369.3047" fill="none" rx="3" ry="3" style="stroke: #038048; stroke-width: 1.0;"/><text fill="#000000" font-family="sans-serif" font-size="11" lengthAdjust="spacingAndGlyphs" textLength="162" x="26" y="372.5151">matchingAlgo : MatchingAlgo</text><line style="stroke: #A80036; stroke-width: 1.5;" x1="7" x2="193" y1="379.1094" y2="379.1094"/><!--MD5=[5d1c5c51865c510f8f5b2ed33232da7b]
class Geocode--><rect fill="#FEFECE" filter="url(#fzdhab7jntsj)" height="73.6094" id="Geocode" style="stroke: #A80036; stroke-width: 1.5;" width="140" x="166" y="148"/><ellipse cx="204.4" cy="164" fill="#ADD1B2" rx="11" ry="11" style="stroke: #A80036; stroke-width: 1.0;"/><path d="M206.7438,159.6719 L206.9156,159.75 C207.1344,159.4375 207.3375,159.3438 207.6344,159.3438 C207.9313,159.3438 208.2125,159.4844 208.3688,159.75 C208.4625,159.9063 208.4781,160.0313 208.4781,160.4688 L208.4781,161.8906 C208.4781,162.3125 208.4469,162.5 208.3375,162.6563 C208.1656,162.875 207.9,163.0156 207.6344,163.0156 C207.4156,163.0156 207.1813,162.9063 207.0406,162.7656 C206.9,162.6406 206.8688,162.5156 206.8063,162.1094 C206.7125,161.7031 206.5406,161.4844 206.0563,161.2031 C205.5875,160.9531 204.9781,160.7969 204.4,160.7969 C202.6656,160.7969 201.4156,162.1094 201.4156,163.8906 L201.4156,164.9844 C201.4156,166.6875 202.7125,167.7813 204.7594,167.7813 C205.525,167.7813 206.2125,167.6563 206.6344,167.3906 C206.8219,167.2969 206.8219,167.2969 207.275,166.8125 C207.4625,166.625 207.6656,166.5469 207.8844,166.5469 C208.3531,166.5469 208.7438,166.9375 208.7438,167.3906 C208.7438,167.7813 208.4156,168.2344 207.8375,168.6406 C207.0875,169.1875 205.9313,169.4844 204.7125,169.4844 C201.8219,169.4844 199.7125,167.5938 199.7125,165.0156 L199.7125,163.8906 C199.7125,161.1719 201.7125,159.0938 204.3375,159.0938 C205.2125,159.0938 205.8063,159.2344 206.7438,159.6719 Z "/><text fill="#000000" font-family="sans-serif" font-size="12" lengthAdjust="spacingAndGlyphs" textLength="56" x="223.6" y="168.1543">Geocode</text><line style="stroke: #A80036; stroke-width: 1.5;" x1="167" x2="305" y1="180" y2="180"/><ellipse cx="177" cy="191" fill="none" rx="3" ry="3" style="stroke: #038048; stroke-width: 1.0;"/><text fill="#000000" font-family="sans-serif" font-size="11" lengthAdjust="spacingAndGlyphs" textLength="114" x="186" y="194.2104">opts : GeocodeOpts</text><line style="stroke: #A80036; stroke-width: 1.5;" x1="167" x2="305" y1="200.8047" y2="200.8047"/><ellipse cx="177" cy="211.8047" fill="#84BE84" rx="3" ry="3" style="stroke: #038048; stroke-width: 1.0;"/><text fill="#000000" font-family="sans-serif" font-size="11" lengthAdjust="spacingAndGlyphs" textLength="107" x="186" y="215.0151">execute(data: T): T</text><!--MD5=[a77231f3843a179acfd820eed10f0104]
class Standardize--><rect fill="#FEFECE" filter="url(#fzdhab7jntsj)" height="99.2188" id="Standardize" style="stroke: #A80036; stroke-width: 1.5;" width="182" x="476" y="135.5"/><ellipse cx="525.75" cy="151.5" fill="#ADD1B2" rx="11" ry="11" style="stroke: #A80036; stroke-width: 1.0;"/><path d="M528.0938,147.1719 L528.2656,147.25 C528.4844,146.9375 528.6875,146.8438 528.9844,146.8438 C529.2813,146.8438 529.5625,146.9844 529.7188,147.25 C529.8125,147.4063 529.8281,147.5313 529.8281,147.9688 L529.8281,149.3906 C529.8281,149.8125 529.7969,150 529.6875,150.1563 C529.5156,150.375 529.25,150.5156 528.9844,150.5156 C528.7656,150.5156 528.5313,150.4063 528.3906,150.2656 C528.25,150.1406 528.2188,150.0156 528.1563,149.6094 C528.0625,149.2031 527.8906,148.9844 527.4063,148.7031 C526.9375,148.4531 526.3281,148.2969 525.75,148.2969 C524.0156,148.2969 522.7656,149.6094 522.7656,151.3906 L522.7656,152.4844 C522.7656,154.1875 524.0625,155.2813 526.1094,155.2813 C526.875,155.2813 527.5625,155.1563 527.9844,154.8906 C528.1719,154.7969 528.1719,154.7969 528.625,154.3125 C528.8125,154.125 529.0156,154.0469 529.2344,154.0469 C529.7031,154.0469 530.0938,154.4375 530.0938,154.8906 C530.0938,155.2813 529.7656,155.7344 529.1875,156.1406 C528.4375,156.6875 527.2813,156.9844 526.0625,156.9844 C523.1719,156.9844 521.0625,155.0938 521.0625,152.5156 L521.0625,151.3906 C521.0625,148.6719 523.0625,146.5938 525.6875,146.5938 C526.5625,146.5938 527.1563,146.7344 528.0938,147.1719 Z "/><text fill="#000000" font-family="sans-serif" font-size="12" lengthAdjust="spacingAndGlyphs" textLength="74" x="546.25" y="155.6543">Standardize</text><line style="stroke: #A80036; stroke-width: 1.5;" x1="477" x2="657" y1="167.5" y2="167.5"/><polygon fill="none" points="487,173.5,491,177.5,487,181.5,483,177.5" style="stroke: #B38D22; stroke-width: 1.0;"/><text fill="#000000" font-family="sans-serif" font-size="11" lengthAdjust="spacingAndGlyphs" textLength="123" x="496" y="181.7104">dictionary : Dictionary</text><line style="stroke: #A80036; stroke-width: 1.5;" x1="477" x2="657" y1="188.3047" y2="188.3047"/><ellipse cx="487" cy="199.3047" fill="#84BE84" rx="3" ry="3" style="stroke: #038048; stroke-width: 1.0;"/><text fill="#000000" font-family="sans-serif" font-size="11" lengthAdjust="spacingAndGlyphs" textLength="156" x="496" y="202.5151">getDictionaryName(): string</text><ellipse cx="487" cy="212.1094" fill="#84BE84" rx="3" ry="3" style="stroke: #038048; stroke-width: 1.0;"/><text fill="#000000" font-family="sans-serif" font-size="11" lengthAdjust="spacingAndGlyphs" textLength="146" x="496" y="215.3198">getDictionary(): Dictionary</text><ellipse cx="487" cy="224.9141" fill="#84BE84" rx="3" ry="3" style="stroke: #038048; stroke-width: 1.0;"/><text fill="#000000" font-family="sans-serif" font-size="11" lengthAdjust="spacingAndGlyphs" textLength="107" x="496" y="228.1245">execute(data: T): T</text><!--MD5=[5bc97329e461a1416586e47082e6aec7]
class StandardizeCompany--><rect fill="#FEFECE" filter="url(#fzdhab7jntsj)" height="60.8047" id="StandardizeCompany" style="stroke: #A80036; stroke-width: 1.5;" width="182" x="476" y="320"/><ellipse cx="499.55" cy="336" fill="#ADD1B2" rx="11" ry="11" style="stroke: #A80036; stroke-width: 1.0;"/><path d="M501.8938,331.6719 L502.0656,331.75 C502.2844,331.4375 502.4875,331.3438 502.7844,331.3438 C503.0813,331.3438 503.3625,331.4844 503.5188,331.75 C503.6125,331.9063 503.6281,332.0313 503.6281,332.4688 L503.6281,333.8906 C503.6281,334.3125 503.5969,334.5 503.4875,334.6563 C503.3156,334.875 503.05,335.0156 502.7844,335.0156 C502.5656,335.0156 502.3313,334.9063 502.1906,334.7656 C502.05,334.6406 502.0188,334.5156 501.9563,334.1094 C501.8625,333.7031 501.6906,333.4844 501.2063,333.2031 C500.7375,332.9531 500.1281,332.7969 499.55,332.7969 C497.8156,332.7969 496.5656,334.1094 496.5656,335.8906 L496.5656,336.9844 C496.5656,338.6875 497.8625,339.7813 499.9094,339.7813 C500.675,339.7813 501.3625,339.6563 501.7844,339.3906 C501.9719,339.2969 501.9719,339.2969 502.425,338.8125 C502.6125,338.625 502.8156,338.5469 503.0344,338.5469 C503.5031,338.5469 503.8938,338.9375 503.8938,339.3906 C503.8938,339.7813 503.5656,340.2344 502.9875,340.6406 C502.2375,341.1875 501.0813,341.4844 499.8625,341.4844 C496.9719,341.4844 494.8625,339.5938 494.8625,337.0156 L494.8625,335.8906 C494.8625,333.1719 496.8625,331.0938 499.4875,331.0938 C500.3625,331.0938 500.9563,331.2344 501.8938,331.6719 Z "/><text fill="#000000" font-family="sans-serif" font-size="12" lengthAdjust="spacingAndGlyphs" textLength="131" x="515.45" y="340.1543">StandardizeCompany</text><line style="stroke: #A80036; stroke-width: 1.5;" x1="477" x2="657" y1="352" y2="352"/><line style="stroke: #A80036; stroke-width: 1.5;" x1="477" x2="657" y1="360" y2="360"/><ellipse cx="487" cy="371" fill="#84BE84" rx="3" ry="3" style="stroke: #038048; stroke-width: 1.0;"/><text fill="#000000" font-family="sans-serif" font-size="11" lengthAdjust="spacingAndGlyphs" textLength="156" x="496" y="374.2104">getDictionaryName(): string</text><!--MD5=[1cb526553ea21b557b76cb11a0f85c1d]
class StandardizeAddressCity--><rect fill="#FEFECE" filter="url(#fzdhab7jntsj)" height="60.8047" id="StandardizeAddressCity" style="stroke: #A80036; stroke-width: 1.5;" width="182" x="693" y="320"/><ellipse cx="709.35" cy="336" fill="#ADD1B2" rx="11" ry="11" style="stroke: #A80036; stroke-width: 1.0;"/><path d="M711.6938,331.6719 L711.8656,331.75 C712.0844,331.4375 712.2875,331.3438 712.5844,331.3438 C712.8813,331.3438 713.1625,331.4844 713.3188,331.75 C713.4125,331.9063 713.4281,332.0313 713.4281,332.4688 L713.4281,333.8906 C713.4281,334.3125 713.3969,334.5 713.2875,334.6563 C713.1156,334.875 712.85,335.0156 712.5844,335.0156 C712.3656,335.0156 712.1313,334.9063 711.9906,334.7656 C711.85,334.6406 711.8188,334.5156 711.7563,334.1094 C711.6625,333.7031 711.4906,333.4844 711.0063,333.2031 C710.5375,332.9531 709.9281,332.7969 709.35,332.7969 C707.6156,332.7969 706.3656,334.1094 706.3656,335.8906 L706.3656,336.9844 C706.3656,338.6875 707.6625,339.7813 709.7094,339.7813 C710.475,339.7813 711.1625,339.6563 711.5844,339.3906 C711.7719,339.2969 711.7719,339.2969 712.225,338.8125 C712.4125,338.625 712.6156,338.5469 712.8344,338.5469 C713.3031,338.5469 713.6938,338.9375 713.6938,339.3906 C713.6938,339.7813 713.3656,340.2344 712.7875,340.6406 C712.0375,341.1875 710.8813,341.4844 709.6625,341.4844 C706.7719,341.4844 704.6625,339.5938 704.6625,337.0156 L704.6625,335.8906 C704.6625,333.1719 706.6625,331.0938 709.2875,331.0938 C710.1625,331.0938 710.7563,331.2344 711.6938,331.6719 Z "/><text fill="#000000" font-family="sans-serif" font-size="12" lengthAdjust="spacingAndGlyphs" textLength="147" x="723.65" y="340.1543">StandardizeAddressCity</text><line style="stroke: #A80036; stroke-width: 1.5;" x1="694" x2="874" y1="352" y2="352"/><line style="stroke: #A80036; stroke-width: 1.5;" x1="694" x2="874" y1="360" y2="360"/><ellipse cx="704" cy="371" fill="#84BE84" rx="3" ry="3" style="stroke: #038048; stroke-width: 1.0;"/><text fill="#000000" font-family="sans-serif" font-size="11" lengthAdjust="spacingAndGlyphs" textLength="156" x="713" y="374.2104">getDictionaryName(): string</text><!--MD5=[d5b756600d0ccccec1259eee6a8b1633]
class KeyValue--><rect fill="#FEFECE" filter="url(#fzdhab7jntsj)" height="73.6094" id="KeyValue" style="stroke: #A80036; stroke-width: 1.5;" width="101" x="810.5" y="466"/><ellipse cx="830.45" cy="482" fill="#B4A7E5" rx="11" ry="11" style="stroke: #A80036; stroke-width: 1.0;"/><path d="M831.4031,478.7813 L831.4031,485.2969 L833.1219,485.2969 C833.575,485.2969 833.7156,485.3281 833.8875,485.4531 C834.1219,485.625 834.2313,485.875 834.2313,486.1563 C834.2313,486.7188 833.8719,487 833.1219,487 L827.9813,487 C827.575,487 827.3719,486.9531 827.2156,486.8281 C826.9969,486.6719 826.8563,486.4063 826.8563,486.1563 C826.8563,485.8594 827.0125,485.5781 827.2625,485.4219 C827.4188,485.3125 827.5438,485.2969 827.9813,485.2969 L829.7,485.2969 L829.7,478.7813 L827.9813,478.7813 C827.5594,478.7813 827.3719,478.75 827.2156,478.6406 C826.9969,478.4688 826.8563,478.2188 826.8563,477.9375 C826.8563,477.6563 827.0125,477.3594 827.2625,477.2031 C827.4188,477.1094 827.5438,477.0938 827.9813,477.0938 L833.1219,477.0938 C833.575,477.0938 833.7156,477.125 833.8875,477.2344 C834.1219,477.4063 834.2313,477.6719 834.2313,477.9375 C834.2313,478.2344 834.0906,478.5156 833.825,478.6719 C833.7,478.75 833.5125,478.7813 833.1219,478.7813 Z "/><text fill="#000000" font-family="sans-serif" font-size="12" font-style="italic" lengthAdjust="spacingAndGlyphs" textLength="58" x="845.55" y="486.1543">KeyValue</text><line style="stroke: #A80036; stroke-width: 1.5;" x1="811.5" x2="910.5" y1="498" y2="498"/><ellipse cx="821.5" cy="509" fill="none" rx="3" ry="3" style="stroke: #038048; stroke-width: 1.0;"/><text fill="#000000" font-family="sans-serif" font-size="11" lengthAdjust="spacingAndGlyphs" textLength="64" x="830.5" y="512.2104">key : string</text><ellipse cx="821.5" cy="521.8047" fill="none" rx="3" ry="3" style="stroke: #038048; stroke-width: 1.0;"/><text fill="#000000" font-family="sans-serif" font-size="11" lengthAdjust="spacingAndGlyphs" textLength="75" x="830.5" y="525.0151">value : string</text><line style="stroke: #A80036; stroke-width: 1.5;" x1="811.5" x2="910.5" y1="531.6094" y2="531.6094"/><!--MD5=[e2da70783def7755958c46648b4073d2]
class LookupOpts--><rect fill="#FEFECE" filter="url(#fzdhab7jntsj)" height="99.2188" id="LookupOpts" style="stroke: #A80036; stroke-width: 1.5;" width="180" x="910" y="301"/><ellipse cx="959.25" cy="317" fill="#B4A7E5" rx="11" ry="11" style="stroke: #A80036; stroke-width: 1.0;"/><path d="M960.2031,313.7813 L960.2031,320.2969 L961.9219,320.2969 C962.375,320.2969 962.5156,320.3281 962.6875,320.4531 C962.9219,320.625 963.0313,320.875 963.0313,321.1563 C963.0313,321.7188 962.6719,322 961.9219,322 L956.7813,322 C956.375,322 956.1719,321.9531 956.0156,321.8281 C955.7969,321.6719 955.6563,321.4063 955.6563,321.1563 C955.6563,320.8594 955.8125,320.5781 956.0625,320.4219 C956.2188,320.3125 956.3438,320.2969 956.7813,320.2969 L958.5,320.2969 L958.5,313.7813 L956.7813,313.7813 C956.3594,313.7813 956.1719,313.75 956.0156,313.6406 C955.7969,313.4688 955.6563,313.2188 955.6563,312.9375 C955.6563,312.6563 955.8125,312.3594 956.0625,312.2031 C956.2188,312.1094 956.3438,312.0938 956.7813,312.0938 L961.9219,312.0938 C962.375,312.0938 962.5156,312.125 962.6875,312.2344 C962.9219,312.4063 963.0313,312.6719 963.0313,312.9375 C963.0313,313.2344 962.8906,313.5156 962.625,313.6719 C962.5,313.75 962.3125,313.7813 961.9219,313.7813 Z "/><text fill="#000000" font-family="sans-serif" font-size="12" font-style="italic" lengthAdjust="spacingAndGlyphs" textLength="73" x="979.75" y="321.1543">LookupOpts</text><line style="stroke: #A80036; stroke-width: 1.5;" x1="911" x2="1089" y1="333" y2="333"/><ellipse cx="921" cy="344" fill="none" rx="3" ry="3" style="stroke: #038048; stroke-width: 1.0;"/><text fill="#000000" font-family="sans-serif" font-size="11" lengthAdjust="spacingAndGlyphs" textLength="103" x="930" y="347.2104">type : LookupType</text><ellipse cx="921" cy="356.8047" fill="none" rx="3" ry="3" style="stroke: #038048; stroke-width: 1.0;"/><text fill="#000000" font-family="sans-serif" font-size="11" lengthAdjust="spacingAndGlyphs" textLength="149" x="930" y="360.0151">operation : OperationType</text><ellipse cx="921" cy="369.6094" fill="none" rx="3" ry="3" style="stroke: #038048; stroke-width: 1.0;"/><text fill="#000000" font-family="sans-serif" font-size="11" lengthAdjust="spacingAndGlyphs" textLength="75" x="930" y="372.8198">index : string</text><ellipse cx="921" cy="382.4141" fill="none" rx="3" ry="3" style="stroke: #038048; stroke-width: 1.0;"/><text fill="#000000" font-family="sans-serif" font-size="11" lengthAdjust="spacingAndGlyphs" textLength="154" x="930" y="385.6245">queries : Array&lt;KeyValue&gt;</text><line style="stroke: #A80036; stroke-width: 1.5;" x1="911" x2="1089" y1="392.2188" y2="392.2188"/><!--MD5=[20b457f90cb62bf8a3e8ba178c7a9406]
class Lookup--><rect fill="#FEFECE" filter="url(#fzdhab7jntsj)" height="112.0234" id="Lookup" style="stroke: #A80036; stroke-width: 1.5;" width="240" x="1002" y="129"/><ellipse cx="1095.25" cy="145" fill="#ADD1B2" rx="11" ry="11" style="stroke: #A80036; stroke-width: 1.0;"/><path d="M1097.5938,140.6719 L1097.7656,140.75 C1097.9844,140.4375 1098.1875,140.3438 1098.4844,140.3438 C1098.7813,140.3438 1099.0625,140.4844 1099.2188,140.75 C1099.3125,140.9063 1099.3281,141.0313 1099.3281,141.4688 L1099.3281,142.8906 C1099.3281,143.3125 1099.2969,143.5 1099.1875,143.6563 C1099.0156,143.875 1098.75,144.0156 1098.4844,144.0156 C1098.2656,144.0156 1098.0313,143.9063 1097.8906,143.7656 C1097.75,143.6406 1097.7188,143.5156 1097.6563,143.1094 C1097.5625,142.7031 1097.3906,142.4844 1096.9063,142.2031 C1096.4375,141.9531 1095.8281,141.7969 1095.25,141.7969 C1093.5156,141.7969 1092.2656,143.1094 1092.2656,144.8906 L1092.2656,145.9844 C1092.2656,147.6875 1093.5625,148.7813 1095.6094,148.7813 C1096.375,148.7813 1097.0625,148.6563 1097.4844,148.3906 C1097.6719,148.2969 1097.6719,148.2969 1098.125,147.8125 C1098.3125,147.625 1098.5156,147.5469 1098.7344,147.5469 C1099.2031,147.5469 1099.5938,147.9375 1099.5938,148.3906 C1099.5938,148.7813 1099.2656,149.2344 1098.6875,149.6406 C1097.9375,150.1875 1096.7813,150.4844 1095.5625,150.4844 C1092.6719,150.4844 1090.5625,148.5938 1090.5625,146.0156 L1090.5625,144.8906 C1090.5625,142.1719 1092.5625,140.0938 1095.1875,140.0938 C1096.0625,140.0938 1096.6563,140.2344 1097.5938,140.6719 Z "/><text fill="#000000" font-family="sans-serif" font-size="12" lengthAdjust="spacingAndGlyphs" textLength="45" x="1115.75" y="149.1543">Lookup</text><line style="stroke: #A80036; stroke-width: 1.5;" x1="1003" x2="1241" y1="161" y2="161"/><polygon fill="none" points="1013,167,1017,171,1013,175,1009,171" style="stroke: #B38D22; stroke-width: 1.0;"/><text fill="#000000" font-family="sans-serif" font-size="11" lengthAdjust="spacingAndGlyphs" textLength="104" x="1022" y="175.2104">opts : LookupOpts</text><line style="stroke: #A80036; stroke-width: 1.5;" x1="1003" x2="1241" y1="181.8047" y2="181.8047"/><ellipse cx="1013" cy="192.8047" fill="#84BE84" rx="3" ry="3" style="stroke: #038048; stroke-width: 1.0;"/><text fill="#000000" font-family="sans-serif" font-size="11" lengthAdjust="spacingAndGlyphs" textLength="214" x="1022" y="196.0151">_setLookupOpts(data: T): LookupOpts</text><ellipse cx="1013" cy="205.6094" fill="#84BE84" rx="3" ry="3" style="stroke: #038048; stroke-width: 1.0;"/><text fill="#000000" font-family="sans-serif" font-size="11" lengthAdjust="spacingAndGlyphs" textLength="180" x="1022" y="208.8198">_parseResult(result: object[]): T</text><ellipse cx="1013" cy="218.4141" fill="#84BE84" rx="3" ry="3" style="stroke: #038048; stroke-width: 1.0;"/><text fill="#000000" font-family="sans-serif" font-size="11" lengthAdjust="spacingAndGlyphs" textLength="201" x="1022" y="221.6245">_lookup(opts: LookupOpts): object[]</text><ellipse cx="1013" cy="231.2188" fill="#84BE84" rx="3" ry="3" style="stroke: #038048; stroke-width: 1.0;"/><text fill="#000000" font-family="sans-serif" font-size="11" lengthAdjust="spacingAndGlyphs" textLength="107" x="1022" y="234.4292">execute(data: T): T</text><!--MD5=[9a8ed0ba2d0b90a53469274b2269237e]
class HalalCompanyLookup--><rect fill="#FEFECE" filter="url(#fzdhab7jntsj)" height="73.6094" id="HalalCompanyLookup" style="stroke: #A80036; stroke-width: 1.5;" width="240" x="1125" y="313.5"/><ellipse cx="1174.25" cy="329.5" fill="#ADD1B2" rx="11" ry="11" style="stroke: #A80036; stroke-width: 1.0;"/><path d="M1176.5938,325.1719 L1176.7656,325.25 C1176.9844,324.9375 1177.1875,324.8438 1177.4844,324.8438 C1177.7813,324.8438 1178.0625,324.9844 1178.2188,325.25 C1178.3125,325.4063 1178.3281,325.5313 1178.3281,325.9688 L1178.3281,327.3906 C1178.3281,327.8125 1178.2969,328 1178.1875,328.1563 C1178.0156,328.375 1177.75,328.5156 1177.4844,328.5156 C1177.2656,328.5156 1177.0313,328.4063 1176.8906,328.2656 C1176.75,328.1406 1176.7188,328.0156 1176.6563,327.6094 C1176.5625,327.2031 1176.3906,326.9844 1175.9063,326.7031 C1175.4375,326.4531 1174.8281,326.2969 1174.25,326.2969 C1172.5156,326.2969 1171.2656,327.6094 1171.2656,329.3906 L1171.2656,330.4844 C1171.2656,332.1875 1172.5625,333.2813 1174.6094,333.2813 C1175.375,333.2813 1176.0625,333.1563 1176.4844,332.8906 C1176.6719,332.7969 1176.6719,332.7969 1177.125,332.3125 C1177.3125,332.125 1177.5156,332.0469 1177.7344,332.0469 C1178.2031,332.0469 1178.5938,332.4375 1178.5938,332.8906 C1178.5938,333.2813 1178.2656,333.7344 1177.6875,334.1406 C1176.9375,334.6875 1175.7813,334.9844 1174.5625,334.9844 C1171.6719,334.9844 1169.5625,333.0938 1169.5625,330.5156 L1169.5625,329.3906 C1169.5625,326.6719 1171.5625,324.5938 1174.1875,324.5938 C1175.0625,324.5938 1175.6563,324.7344 1176.5938,325.1719 Z "/><text fill="#000000" font-family="sans-serif" font-size="12" lengthAdjust="spacingAndGlyphs" textLength="133" x="1194.75" y="333.6543">HalalCompanyLookup</text><line style="stroke: #A80036; stroke-width: 1.5;" x1="1126" x2="1364" y1="345.5" y2="345.5"/><line style="stroke: #A80036; stroke-width: 1.5;" x1="1126" x2="1364" y1="353.5" y2="353.5"/><ellipse cx="1136" cy="364.5" fill="#84BE84" rx="3" ry="3" style="stroke: #038048; stroke-width: 1.0;"/><text fill="#000000" font-family="sans-serif" font-size="11" lengthAdjust="spacingAndGlyphs" textLength="180" x="1145" y="367.7104">_parseResult(result: object[]): T</text><ellipse cx="1136" cy="377.3047" fill="#84BE84" rx="3" ry="3" style="stroke: #038048; stroke-width: 1.0;"/><text fill="#000000" font-family="sans-serif" font-size="11" lengthAdjust="spacingAndGlyphs" textLength="214" x="1145" y="380.5151">_setLookupOpts(data: T): LookupOpts</text><!--MD5=[15225ac39b7dc7529ab18164be90b477]
class AgentLookup--><rect fill="#FEFECE" filter="url(#fzdhab7jntsj)" height="73.6094" id="AgentLookup" style="stroke: #A80036; stroke-width: 1.5;" width="240" x="1400" y="313.5"/><ellipse cx="1474.75" cy="329.5" fill="#ADD1B2" rx="11" ry="11" style="stroke: #A80036; stroke-width: 1.0;"/><path d="M1477.0938,325.1719 L1477.2656,325.25 C1477.4844,324.9375 1477.6875,324.8438 1477.9844,324.8438 C1478.2813,324.8438 1478.5625,324.9844 1478.7188,325.25 C1478.8125,325.4063 1478.8281,325.5313 1478.8281,325.9688 L1478.8281,327.3906 C1478.8281,327.8125 1478.7969,328 1478.6875,328.1563 C1478.5156,328.375 1478.25,328.5156 1477.9844,328.5156 C1477.7656,328.5156 1477.5313,328.4063 1477.3906,328.2656 C1477.25,328.1406 1477.2188,328.0156 1477.1563,327.6094 C1477.0625,327.2031 1476.8906,326.9844 1476.4063,326.7031 C1475.9375,326.4531 1475.3281,326.2969 1474.75,326.2969 C1473.0156,326.2969 1471.7656,327.6094 1471.7656,329.3906 L1471.7656,330.4844 C1471.7656,332.1875 1473.0625,333.2813 1475.1094,333.2813 C1475.875,333.2813 1476.5625,333.1563 1476.9844,332.8906 C1477.1719,332.7969 1477.1719,332.7969 1477.625,332.3125 C1477.8125,332.125 1478.0156,332.0469 1478.2344,332.0469 C1478.7031,332.0469 1479.0938,332.4375 1479.0938,332.8906 C1479.0938,333.2813 1478.7656,333.7344 1478.1875,334.1406 C1477.4375,334.6875 1476.2813,334.9844 1475.0625,334.9844 C1472.1719,334.9844 1470.0625,333.0938 1470.0625,330.5156 L1470.0625,329.3906 C1470.0625,326.6719 1472.0625,324.5938 1474.6875,324.5938 C1475.5625,324.5938 1476.1563,324.7344 1477.0938,325.1719 Z "/><text fill="#000000" font-family="sans-serif" font-size="12" lengthAdjust="spacingAndGlyphs" textLength="82" x="1495.25" y="333.6543">AgentLookup</text><line style="stroke: #A80036; stroke-width: 1.5;" x1="1401" x2="1639" y1="345.5" y2="345.5"/><line style="stroke: #A80036; stroke-width: 1.5;" x1="1401" x2="1639" y1="353.5" y2="353.5"/><ellipse cx="1411" cy="364.5" fill="#84BE84" rx="3" ry="3" style="stroke: #038048; stroke-width: 1.0;"/><text fill="#000000" font-family="sans-serif" font-size="11" lengthAdjust="spacingAndGlyphs" textLength="214" x="1420" y="367.7104">_setLookupOpts(data: T): LookupOpts</text><ellipse cx="1411" cy="377.3047" fill="#84BE84" rx="3" ry="3" style="stroke: #038048; stroke-width: 1.0;"/><text fill="#000000" font-family="sans-serif" font-size="11" lengthAdjust="spacingAndGlyphs" textLength="180" x="1420" y="380.5151">_parseResult(result: object[]): T</text><!--MD5=[99f32fa4e73f6681c1a0ac5117bd3ce1]
class Array--><rect fill="#FEFECE" filter="url(#fzdhab7jntsj)" height="48" id="Array" style="stroke: #A80036; stroke-width: 1.5;" width="64" x="581" y="479"/><ellipse cx="596" cy="495" fill="#ADD1B2" rx="11" ry="11" style="stroke: #A80036; stroke-width: 1.0;"/><path d="M598.3438,490.6719 L598.5156,490.75 C598.7344,490.4375 598.9375,490.3438 599.2344,490.3438 C599.5313,490.3438 599.8125,490.4844 599.9688,490.75 C600.0625,490.9063 600.0781,491.0313 600.0781,491.4688 L600.0781,492.8906 C600.0781,493.3125 600.0469,493.5 599.9375,493.6563 C599.7656,493.875 599.5,494.0156 599.2344,494.0156 C599.0156,494.0156 598.7813,493.9063 598.6406,493.7656 C598.5,493.6406 598.4688,493.5156 598.4063,493.1094 C598.3125,492.7031 598.1406,492.4844 597.6563,492.2031 C597.1875,491.9531 596.5781,491.7969 596,491.7969 C594.2656,491.7969 593.0156,493.1094 593.0156,494.8906 L593.0156,495.9844 C593.0156,497.6875 594.3125,498.7813 596.3594,498.7813 C597.125,498.7813 597.8125,498.6563 598.2344,498.3906 C598.4219,498.2969 598.4219,498.2969 598.875,497.8125 C599.0625,497.625 599.2656,497.5469 599.4844,497.5469 C599.9531,497.5469 600.3438,497.9375 600.3438,498.3906 C600.3438,498.7813 600.0156,499.2344 599.4375,499.6406 C598.6875,500.1875 597.5313,500.4844 596.3125,500.4844 C593.4219,500.4844 591.3125,498.5938 591.3125,496.0156 L591.3125,494.8906 C591.3125,492.1719 593.3125,490.0938 595.9375,490.0938 C596.8125,490.0938 597.4063,490.2344 598.3438,490.6719 Z "/><text fill="#000000" font-family="sans-serif" font-size="12" lengthAdjust="spacingAndGlyphs" textLength="32" x="610" y="499.1543">Array</text><line style="stroke: #A80036; stroke-width: 1.5;" x1="582" x2="644" y1="511" y2="511"/><line style="stroke: #A80036; stroke-width: 1.5;" x1="582" x2="644" y1="519" y2="519"/><!--MD5=[43acf48e5f487f0bd92a1591fde29b16]
class TextReplacerType--><rect fill="#FEFECE" filter="url(#fzdhab7jntsj)" height="48" id="TextReplacerType" style="stroke: #A80036; stroke-width: 1.5;" width="142" x="264" y="606"/><ellipse cx="279" cy="622" fill="#ADD1B2" rx="11" ry="11" style="stroke: #A80036; stroke-width: 1.0;"/><path d="M281.3438,617.6719 L281.5156,617.75 C281.7344,617.4375 281.9375,617.3438 282.2344,617.3438 C282.5313,617.3438 282.8125,617.4844 282.9688,617.75 C283.0625,617.9063 283.0781,618.0313 283.0781,618.4688 L283.0781,619.8906 C283.0781,620.3125 283.0469,620.5 282.9375,620.6563 C282.7656,620.875 282.5,621.0156 282.2344,621.0156 C282.0156,621.0156 281.7813,620.9063 281.6406,620.7656 C281.5,620.6406 281.4688,620.5156 281.4063,620.1094 C281.3125,619.7031 281.1406,619.4844 280.6563,619.2031 C280.1875,618.9531 279.5781,618.7969 279,618.7969 C277.2656,618.7969 276.0156,620.1094 276.0156,621.8906 L276.0156,622.9844 C276.0156,624.6875 277.3125,625.7813 279.3594,625.7813 C280.125,625.7813 280.8125,625.6563 281.2344,625.3906 C281.4219,625.2969 281.4219,625.2969 281.875,624.8125 C282.0625,624.625 282.2656,624.5469 282.4844,624.5469 C282.9531,624.5469 283.3438,624.9375 283.3438,625.3906 C283.3438,625.7813 283.0156,626.2344 282.4375,626.6406 C281.6875,627.1875 280.5313,627.4844 279.3125,627.4844 C276.4219,627.4844 274.3125,625.5938 274.3125,623.0156 L274.3125,621.8906 C274.3125,619.1719 276.3125,617.0938 278.9375,617.0938 C279.8125,617.0938 280.4063,617.2344 281.3438,617.6719 Z "/><text fill="#000000" font-family="sans-serif" font-size="12" lengthAdjust="spacingAndGlyphs" textLength="110" x="293" y="626.1543">TextReplacerType</text><line style="stroke: #A80036; stroke-width: 1.5;" x1="265" x2="405" y1="638" y2="638"/><line style="stroke: #A80036; stroke-width: 1.5;" x1="265" x2="405" y1="646" y2="646"/><!--MD5=[3fda2f2a01a686321e9d0964dda831a0]
class MatchingAlgo--><rect fill="#FEFECE" filter="url(#fzdhab7jntsj)" height="48" id="MatchingAlgo" style="stroke: #A80036; stroke-width: 1.5;" width="116" x="42" y="479"/><ellipse cx="57" cy="495" fill="#ADD1B2" rx="11" ry="11" style="stroke: #A80036; stroke-width: 1.0;"/><path d="M59.3438,490.6719 L59.5156,490.75 C59.7344,490.4375 59.9375,490.3438 60.2344,490.3438 C60.5313,490.3438 60.8125,490.4844 60.9688,490.75 C61.0625,490.9063 61.0781,491.0313 61.0781,491.4688 L61.0781,492.8906 C61.0781,493.3125 61.0469,493.5 60.9375,493.6563 C60.7656,493.875 60.5,494.0156 60.2344,494.0156 C60.0156,494.0156 59.7813,493.9063 59.6406,493.7656 C59.5,493.6406 59.4688,493.5156 59.4063,493.1094 C59.3125,492.7031 59.1406,492.4844 58.6563,492.2031 C58.1875,491.9531 57.5781,491.7969 57,491.7969 C55.2656,491.7969 54.0156,493.1094 54.0156,494.8906 L54.0156,495.9844 C54.0156,497.6875 55.3125,498.7813 57.3594,498.7813 C58.125,498.7813 58.8125,498.6563 59.2344,498.3906 C59.4219,498.2969 59.4219,498.2969 59.875,497.8125 C60.0625,497.625 60.2656,497.5469 60.4844,497.5469 C60.9531,497.5469 61.3438,497.9375 61.3438,498.3906 C61.3438,498.7813 61.0156,499.2344 60.4375,499.6406 C59.6875,500.1875 58.5313,500.4844 57.3125,500.4844 C54.4219,500.4844 52.3125,498.5938 52.3125,496.0156 L52.3125,494.8906 C52.3125,492.1719 54.3125,490.0938 56.9375,490.0938 C57.8125,490.0938 58.4063,490.2344 59.3438,490.6719 Z "/><text fill="#000000" font-family="sans-serif" font-size="12" lengthAdjust="spacingAndGlyphs" textLength="84" x="71" y="499.1543">MatchingAlgo</text><line style="stroke: #A80036; stroke-width: 1.5;" x1="43" x2="157" y1="511" y2="511"/><line style="stroke: #A80036; stroke-width: 1.5;" x1="43" x2="157" y1="519" y2="519"/><!--MD5=[9f69d2a5fd57941f6c812d8aa2e7fead]
class LookupType--><rect fill="#FEFECE" filter="url(#fzdhab7jntsj)" height="48" id="LookupType" style="stroke: #A80036; stroke-width: 1.5;" width="106" x="947" y="479"/><ellipse cx="962" cy="495" fill="#ADD1B2" rx="11" ry="11" style="stroke: #A80036; stroke-width: 1.0;"/><path d="M964.3438,490.6719 L964.5156,490.75 C964.7344,490.4375 964.9375,490.3438 965.2344,490.3438 C965.5313,490.3438 965.8125,490.4844 965.9688,490.75 C966.0625,490.9063 966.0781,491.0313 966.0781,491.4688 L966.0781,492.8906 C966.0781,493.3125 966.0469,493.5 965.9375,493.6563 C965.7656,493.875 965.5,494.0156 965.2344,494.0156 C965.0156,494.0156 964.7813,493.9063 964.6406,493.7656 C964.5,493.6406 964.4688,493.5156 964.4063,493.1094 C964.3125,492.7031 964.1406,492.4844 963.6563,492.2031 C963.1875,491.9531 962.5781,491.7969 962,491.7969 C960.2656,491.7969 959.0156,493.1094 959.0156,494.8906 L959.0156,495.9844 C959.0156,497.6875 960.3125,498.7813 962.3594,498.7813 C963.125,498.7813 963.8125,498.6563 964.2344,498.3906 C964.4219,498.2969 964.4219,498.2969 964.875,497.8125 C965.0625,497.625 965.2656,497.5469 965.4844,497.5469 C965.9531,497.5469 966.3438,497.9375 966.3438,498.3906 C966.3438,498.7813 966.0156,499.2344 965.4375,499.6406 C964.6875,500.1875 963.5313,500.4844 962.3125,500.4844 C959.4219,500.4844 957.3125,498.5938 957.3125,496.0156 L957.3125,494.8906 C957.3125,492.1719 959.3125,490.0938 961.9375,490.0938 C962.8125,490.0938 963.4063,490.2344 964.3438,490.6719 Z "/><text fill="#000000" font-family="sans-serif" font-size="12" lengthAdjust="spacingAndGlyphs" textLength="74" x="976" y="499.1543">LookupType</text><line style="stroke: #A80036; stroke-width: 1.5;" x1="948" x2="1052" y1="511" y2="511"/><line style="stroke: #A80036; stroke-width: 1.5;" x1="948" x2="1052" y1="519" y2="519"/><!--MD5=[cc4941acd9f25cf973013d8901d108c0]
class OperationType--><rect fill="#FEFECE" filter="url(#fzdhab7jntsj)" height="48" id="OperationType" style="stroke: #A80036; stroke-width: 1.5;" width="123" x="1088.5" y="479"/><ellipse cx="1103.5" cy="495" fill="#ADD1B2" rx="11" ry="11" style="stroke: #A80036; stroke-width: 1.0;"/><path d="M1105.8438,490.6719 L1106.0156,490.75 C1106.2344,490.4375 1106.4375,490.3438 1106.7344,490.3438 C1107.0313,490.3438 1107.3125,490.4844 1107.4688,490.75 C1107.5625,490.9063 1107.5781,491.0313 1107.5781,491.4688 L1107.5781,492.8906 C1107.5781,493.3125 1107.5469,493.5 1107.4375,493.6563 C1107.2656,493.875 1107,494.0156 1106.7344,494.0156 C1106.5156,494.0156 1106.2813,493.9063 1106.1406,493.7656 C1106,493.6406 1105.9688,493.5156 1105.9063,493.1094 C1105.8125,492.7031 1105.6406,492.4844 1105.1563,492.2031 C1104.6875,491.9531 1104.0781,491.7969 1103.5,491.7969 C1101.7656,491.7969 1100.5156,493.1094 1100.5156,494.8906 L1100.5156,495.9844 C1100.5156,497.6875 1101.8125,498.7813 1103.8594,498.7813 C1104.625,498.7813 1105.3125,498.6563 1105.7344,498.3906 C1105.9219,498.2969 1105.9219,498.2969 1106.375,497.8125 C1106.5625,497.625 1106.7656,497.5469 1106.9844,497.5469 C1107.4531,497.5469 1107.8438,497.9375 1107.8438,498.3906 C1107.8438,498.7813 1107.5156,499.2344 1106.9375,499.6406 C1106.1875,500.1875 1105.0313,500.4844 1103.8125,500.4844 C1100.9219,500.4844 1098.8125,498.5938 1098.8125,496.0156 L1098.8125,494.8906 C1098.8125,492.1719 1100.8125,490.0938 1103.4375,490.0938 C1104.3125,490.0938 1104.9063,490.2344 1105.8438,490.6719 Z "/><text fill="#000000" font-family="sans-serif" font-size="12" lengthAdjust="spacingAndGlyphs" textLength="91" x="1117.5" y="499.1543">OperationType</text><line style="stroke: #A80036; stroke-width: 1.5;" x1="1089.5" x2="1210.5" y1="511" y2="511"/><line style="stroke: #A80036; stroke-width: 1.5;" x1="1089.5" x2="1210.5" y1="519" y2="519"/><!--MD5=[de083a3efeaa1be2ea5c26886755bcdc]
link Dictionary to Array--><path d="M389.592,381.054 C444.739,410.909 528.413,456.208 576.165,482.059 " fill="none" id="Dictionary-&gt;Array" style="stroke: #A80036; stroke-width: 1.0;"/><polygon fill="#A80036" points="580.672,484.499,574.6611,476.6972,576.2748,482.119,570.853,483.7327,580.672,484.499" style="stroke: #A80036; stroke-width: 1.0;"/><!--MD5=[51879ba710e7db62da571c2178c6699b]
link Dictionary to DictionaryEntry--><path d="M335,381.234 C335,402.188 335,430.683 335,454.733 " fill="none" id="Dictionary-&gt;DictionaryEntry" style="stroke: #A80036; stroke-width: 1.0;"/><polygon fill="#A80036" points="335,459.793,339,450.793,335,454.793,331,450.793,335,459.793" style="stroke: #A80036; stroke-width: 1.0;"/><!--MD5=[661e93166b184df2229a7e070a6f2732]
link DictionaryEntry to TextReplacerType--><path d="M335,546.319 C335,564.1367 335,584.4054 335,600.4152 " fill="none" id="DictionaryEntry-&gt;TextReplacerType" style="stroke: #A80036; stroke-width: 1.0;"/><polygon fill="#A80036" points="335,605.6717,339,596.6717,335,600.6717,331,596.6717,335,605.6717" style="stroke: #A80036; stroke-width: 1.0;"/><!--MD5=[bc6b12c8bb0a78bad538ec7907473fa2]
link GeocodeOpts to MatchingAlgo--><path d="M100,387.548 C100,414.015 100,449.458 100,473.854 " fill="none" id="GeocodeOpts-&gt;MatchingAlgo" style="stroke: #A80036; stroke-width: 1.0;"/><polygon fill="#A80036" points="100,478.885,104,469.885,100,473.885,96,469.885,100,478.885" style="stroke: #A80036; stroke-width: 1.0;"/><!--MD5=[e296aae3c8aac5c7355e8d085f6188ea]
link Geocode to GeocodeOpts--><path d="M205.817,222.286 C184.336,248.111 155.473,282.811 133.317,309.446 " fill="none" id="Geocode-&gt;GeocodeOpts" style="stroke: #A80036; stroke-width: 1.0;"/><polygon fill="#A80036" points="130.098,313.315,138.93,308.9566,133.2967,309.472,132.7812,303.8387,130.098,313.315" style="stroke: #A80036; stroke-width: 1.0;"/><!--MD5=[6dc928870403894bdf0681b1786d412b]
link Standardize to Dictionary--><path d="M498.02,234.613 C460.439,261.098 414.93,293.17 381.557,316.689 " fill="none" id="Standardize-&gt;Dictionary" style="stroke: #A80036; stroke-width: 1.0;"/><polygon fill="#A80036" points="377.137,319.804,386.7976,317.8874,381.2235,316.923,382.188,311.349,377.137,319.804" style="stroke: #A80036; stroke-width: 1.0;"/><!--MD5=[c8e7a2f7877db20f337837818e549606]
link LookupOpts to LookupType--><path d="M1000,400.363 C1000,424.575 1000,452.96 1000,473.57 " fill="none" id="LookupOpts-&gt;LookupType" style="stroke: #A80036; stroke-width: 1.0;"/><polygon fill="#A80036" points="1000,478.635,1004,469.635,1000,473.635,996,469.635,1000,478.635" style="stroke: #A80036; stroke-width: 1.0;"/><!--MD5=[0eeabbd3d843a2360a59f8082151747f]
link LookupOpts to OperationType--><path d="M1048.7,400.363 C1073.34,425.088 1102.32,454.165 1122.96,474.87 " fill="none" id="LookupOpts-&gt;OperationType" style="stroke: #A80036; stroke-width: 1.0;"/><polygon fill="#A80036" points="1126.71,478.635,1123.193,469.4355,1123.1816,475.0923,1117.5248,475.0809,1126.71,478.635" style="stroke: #A80036; stroke-width: 1.0;"/><!--MD5=[b02ceeaaf832cecfa0a7326674c5ef27]
link LookupOpts to Array--><path d="M909.751,392.601 C903.763,395.151 897.807,397.638 892,400 C806.382,434.823 703.903,470.879 650.133,489.375 " fill="none" id="LookupOpts-&gt;Array" style="stroke: #A80036; stroke-width: 1.0;"/><polygon fill="#A80036" points="645.083,491.109,654.8943,491.9682,649.8118,489.4846,652.2953,484.4021,645.083,491.109" style="stroke: #A80036; stroke-width: 1.0;"/><!--MD5=[bd8dd19406d58ea2588da890f954ea14]
link LookupOpts to KeyValue--><path d="M954.871,400.363 C936.44,420.319 915.391,443.109 897.903,462.044 " fill="none" id="LookupOpts-&gt;KeyValue" style="stroke: #A80036; stroke-width: 1.0;"/><polygon fill="#A80036" points="894.454,465.778,903.4992,461.8812,897.8468,462.1052,897.6228,456.4528,894.454,465.778" style="stroke: #A80036; stroke-width: 1.0;"/><!--MD5=[07bef92f6cec37dcdab54dd741da4abd]
link Lookup to LookupOpts--><path d="M1080.7,241.354 C1067.44,259.118 1052.8,278.745 1039.66,296.347 " fill="none" id="Lookup-&gt;LookupOpts" style="stroke: #A80036; stroke-width: 1.0;"/><polygon fill="#A80036" points="1036.36,300.777,1044.9441,295.9486,1039.3467,296.7671,1038.5282,291.1698,1036.36,300.777" style="stroke: #A80036; stroke-width: 1.0;"/><!--MD5=[37a8cd59b7d7344396b28a8e0548d50d]
reverse link Command to Geocode--><path d="M481.834,76.68 C427.337,100.471 357.495,130.96 306.191,153.358 " fill="none" id="Command&lt;-Geocode" style="stroke: #A80036; stroke-width: 1.0;"/><polygon fill="none" points="479.285,70.154,500.415,68.568,484.887,82.985,479.285,70.154" style="stroke: #A80036; stroke-width: 1.0;"/><!--MD5=[6dc0141c8b6eb62c870137edb1753520]
reverse link Command to Standardize--><path d="M567,89.269 C567,104.194 567,120.541 567,135.391 " fill="none" id="Command&lt;-Standardize" style="stroke: #A80036; stroke-width: 1.0;"/><polygon fill="none" points="560,89.09,567,69.09,574,89.09,560,89.09" style="stroke: #A80036; stroke-width: 1.0;"/><!--MD5=[303c34993c152a9c0b94a8cad15dbd24]
reverse link Standardize to StandardizeCompany--><path d="M567,254.869 C567,277.568 567,301.626 567,319.804 " fill="none" id="Standardize&lt;-StandardizeCompany" style="stroke: #A80036; stroke-width: 1.0;"/><polygon fill="none" points="560,254.613,567,234.613,574,254.613,560,254.613" style="stroke: #A80036; stroke-width: 1.0;"/><!--MD5=[dfbfd272e02f2e7afc15c657dfae3aee]
reverse link Standardize to StandardizeAddressCity--><path d="M647.888,246.946 C680.929,271.841 717.629,299.493 744.587,319.804 " fill="none" id="Standardize&lt;-StandardizeAddressCity" style="stroke: #A80036; stroke-width: 1.0;"/><polygon fill="none" points="643.281,252.239,631.52,234.613,651.705,241.057,643.281,252.239" style="stroke: #A80036; stroke-width: 1.0;"/><!--MD5=[1279cc7ec76a204d4ceacb77ed9827e0]
reverse link Command to Lookup--><path d="M653.311,61.972 C746.859,86.328 896.813,125.37 1001.848,152.717 " fill="none" id="Command&lt;-Lookup" style="stroke: #A80036; stroke-width: 1.0;"/><polygon fill="none" points="651.261,68.672,633.67,56.858,654.789,55.123,651.261,68.672" style="stroke: #A80036; stroke-width: 1.0;"/><!--MD5=[0df2bb7c14f037d926f336aec4cbb52e]
reverse link Lookup to HalalCompanyLookup--><path d="M1175.85,257.587 C1190.32,276.816 1205.36,296.806 1217.7,313.214 " fill="none" id="Lookup&lt;-HalalCompanyLookup" style="stroke: #A80036; stroke-width: 1.0;"/><polygon fill="none" points="1170.07,261.544,1163.64,241.354,1181.26,253.128,1170.07,261.544" style="stroke: #A80036; stroke-width: 1.0;"/><!--MD5=[d1199864e7c3e007b58adbddf838ef3c]
reverse link Lookup to AgentLookup--><path d="M1260.84,243.036 C1317.82,266.445 1382.07,292.839 1432.34,313.49 " fill="none" id="Lookup&lt;-AgentLookup" style="stroke: #A80036; stroke-width: 1.0;"/><polygon fill="none" points="1258.06,249.463,1242.22,235.388,1263.38,236.513,1258.06,249.463" style="stroke: #A80036; stroke-width: 1.0;"/><!--MD5=[8549ca229ea6aac87d0de12c21965860]
@startuml
interface Command{
  +execute(data: T): T
}

interface Dictionary{
  +entries : Array<DictionaryEntry>
}

interface DictionaryEntry{
  +key1 : string
  +key2 : string
  +type : TextReplacerType
}

interface GeocodeOpts{
  +tresholds : number
  +matchingAlgo : MatchingAlgo
}

class Geocode{
  +opts : GeocodeOpts
  +execute(data: T): T
}

class Standardize{
  #dictionary : Dictionary
  +getDictionaryName(): string
  +getDictionary(): Dictionary
  +execute(data: T): T
}

class StandardizeCompany{
  +getDictionaryName(): string
}

class StandardizeAddressCity{
  +getDictionaryName(): string
}

interface KeyValue{
  +key : string
  +value : string
}

interface LookupOpts{
  +type : LookupType
  +operation : OperationType
  +index : string
  +queries : Array<KeyValue>
}

class Lookup{
  #opts : LookupOpts
  +_setLookupOpts(data: T): LookupOpts
  +_parseResult(result: object[]): T
  +_lookup(opts: LookupOpts): object[]
  +execute(data: T): T
}

class HalalCompanyLookup{
  +_parseResult(result: object[]): T
  +_setLookupOpts(data: T): LookupOpts
}

class AgentLookup{
  +_setLookupOpts(data: T): LookupOpts
  +_parseResult(result: object[]): T
}

Dictionary - -> Array
Dictionary - -> DictionaryEntry
DictionaryEntry - -> TextReplacerType
GeocodeOpts - -> MatchingAlgo
Geocode - -> GeocodeOpts
Standardize - -> Dictionary
LookupOpts - -> LookupType
LookupOpts - -> OperationType
LookupOpts - -> Array
LookupOpts - -> KeyValue
Lookup - -> LookupOpts
Command <|- - Geocode
Command <|- - Standardize
Standardize <|- - StandardizeCompany
Standardize <|- - StandardizeAddressCity
Command <|- - Lookup
Lookup <|- - HalalCompanyLookup
Lookup <|- - AgentLookup
@enduml

PlantUML version 1.2019.11(Sun Sep 22 10:02:15 UTC 2019)
(GPL source distribution)
Java Runtime: Java(TM) SE Runtime Environment
JVM: Java HotSpot(TM) 64-Bit Server VM
Java Version: 1.7.0_25-b15
Operating System: Linux
Default Encoding: UTF-8
Language: en
Country: US
--></g></svg>