<?xml version="1.0" encoding="UTF-8" standalone="no"?><svg xmlns="http://www.w3.org/2000/svg" xmlns:xlink="http://www.w3.org/1999/xlink" contentScriptType="application/ecmascript" contentStyleType="text/css" height="239px" preserveAspectRatio="none" style="width:571px;height:239px;" version="1.1" viewBox="0 0 571 239" width="571px" zoomAndPan="magnify"><defs><filter height="300%" id="fy8ccdbagtgi" width="300%" x="-1" y="-1"><feGaussianBlur result="blurOut" stdDeviation="2.0"/><feColorMatrix in="blurOut" result="blurOut2" type="matrix" values="0 0 0 0 0 0 0 0 0 0 0 0 0 0 0 0 0 0 .4 0"/><feOffset dx="4.0" dy="4.0" in="blurOut2" result="blurOut3"/><feBlend in="SourceGraphic" in2="blurOut3" mode="normal"/></filter></defs><g><!--MD5=[38b8179fbc39b7cb4013f538c4ddf3e6]
class Etl--><rect fill="#FEFECE" filter="url(#fy8ccdbagtgi)" height="112.0234" id="Etl" style="stroke: #A80036; stroke-width: 1.5;" width="205" x="160.5" y="8"/><ellipse cx="250.75" cy="24" fill="#ADD1B2" rx="11" ry="11" style="stroke: #A80036; stroke-width: 1.0;"/><path d="M253.0938,19.6719 L253.2656,19.75 C253.4844,19.4375 253.6875,19.3438 253.9844,19.3438 C254.2813,19.3438 254.5625,19.4844 254.7188,19.75 C254.8125,19.9063 254.8281,20.0313 254.8281,20.4688 L254.8281,21.8906 C254.8281,22.3125 254.7969,22.5 254.6875,22.6563 C254.5156,22.875 254.25,23.0156 253.9844,23.0156 C253.7656,23.0156 253.5313,22.9063 253.3906,22.7656 C253.25,22.6406 253.2188,22.5156 253.1563,22.1094 C253.0625,21.7031 252.8906,21.4844 252.4063,21.2031 C251.9375,20.9531 251.3281,20.7969 250.75,20.7969 C249.0156,20.7969 247.7656,22.1094 247.7656,23.8906 L247.7656,24.9844 C247.7656,26.6875 249.0625,27.7813 251.1094,27.7813 C251.875,27.7813 252.5625,27.6563 252.9844,27.3906 C253.1719,27.2969 253.1719,27.2969 253.625,26.8125 C253.8125,26.625 254.0156,26.5469 254.2344,26.5469 C254.7031,26.5469 255.0938,26.9375 255.0938,27.3906 C255.0938,27.7813 254.7656,28.2344 254.1875,28.6406 C253.4375,29.1875 252.2813,29.4844 251.0625,29.4844 C248.1719,29.4844 246.0625,27.5938 246.0625,25.0156 L246.0625,23.8906 C246.0625,21.1719 248.0625,19.0938 250.6875,19.0938 C251.5625,19.0938 252.1563,19.2344 253.0938,19.6719 Z "/><text fill="#000000" font-family="sans-serif" font-size="12" lengthAdjust="spacingAndGlyphs" textLength="16" x="271.25" y="28.1543">Etl</text><line style="stroke: #A80036; stroke-width: 1.5;" x1="161.5" x2="364.5" y1="40" y2="40"/><polygon fill="none" points="171.5,46,175.5,50,171.5,54,167.5,50" style="stroke: #B38D22; stroke-width: 1.0;"/><text fill="#000000" font-family="sans-serif" font-size="11" lengthAdjust="spacingAndGlyphs" textLength="158" x="180.5" y="54.2104">dispatcher : Dispatcher&lt;T&gt;</text><polygon fill="none" points="171.5,58.8047,175.5,62.8047,171.5,66.8047,167.5,62.8047" style="stroke: #B38D22; stroke-width: 1.0;"/><text fill="#000000" font-family="sans-serif" font-size="11" lengthAdjust="spacingAndGlyphs" textLength="153" x="180.5" y="67.0151">processor : Processor&lt;T&gt;</text><polygon fill="none" points="171.5,71.6094,175.5,75.6094,171.5,79.6094,167.5,75.6094" style="stroke: #B38D22; stroke-width: 1.0;"/><text fill="#000000" font-family="sans-serif" font-size="11" lengthAdjust="spacingAndGlyphs" textLength="103" x="180.5" y="79.8198">writer : Writer&lt;T&gt;</text><polygon fill="none" points="171.5,84.4141,175.5,88.4141,171.5,92.4141,167.5,88.4141" style="stroke: #B38D22; stroke-width: 1.0;"/><text fill="#000000" font-family="sans-serif" font-size="11" lengthAdjust="spacingAndGlyphs" textLength="179" x="180.5" y="92.6245">jobComplete : JobComplete&lt;T&gt;</text><line style="stroke: #A80036; stroke-width: 1.5;" x1="161.5" x2="364.5" y1="99.2188" y2="99.2188"/><ellipse cx="171.5" cy="110.2188" fill="#84BE84" rx="3" ry="3" style="stroke: #038048; stroke-width: 1.0;"/><text fill="#000000" font-family="sans-serif" font-size="11" lengthAdjust="spacingAndGlyphs" textLength="52" x="180.5" y="113.4292">execute()</text><!--MD5=[0c7624888451d2039aaef18036130ed9]
class Dispatcher--><rect fill="#FEFECE" filter="url(#fy8ccdbagtgi)" height="48" id="Dispatcher" style="stroke: #A80036; stroke-width: 1.5;" width="100" x="6" y="180"/><ellipse cx="21" cy="196" fill="#ADD1B2" rx="11" ry="11" style="stroke: #A80036; stroke-width: 1.0;"/><path d="M23.3438,191.6719 L23.5156,191.75 C23.7344,191.4375 23.9375,191.3438 24.2344,191.3438 C24.5313,191.3438 24.8125,191.4844 24.9688,191.75 C25.0625,191.9063 25.0781,192.0313 25.0781,192.4688 L25.0781,193.8906 C25.0781,194.3125 25.0469,194.5 24.9375,194.6563 C24.7656,194.875 24.5,195.0156 24.2344,195.0156 C24.0156,195.0156 23.7813,194.9063 23.6406,194.7656 C23.5,194.6406 23.4688,194.5156 23.4063,194.1094 C23.3125,193.7031 23.1406,193.4844 22.6563,193.2031 C22.1875,192.9531 21.5781,192.7969 21,192.7969 C19.2656,192.7969 18.0156,194.1094 18.0156,195.8906 L18.0156,196.9844 C18.0156,198.6875 19.3125,199.7813 21.3594,199.7813 C22.125,199.7813 22.8125,199.6563 23.2344,199.3906 C23.4219,199.2969 23.4219,199.2969 23.875,198.8125 C24.0625,198.625 24.2656,198.5469 24.4844,198.5469 C24.9531,198.5469 25.3438,198.9375 25.3438,199.3906 C25.3438,199.7813 25.0156,200.2344 24.4375,200.6406 C23.6875,201.1875 22.5313,201.4844 21.3125,201.4844 C18.4219,201.4844 16.3125,199.5938 16.3125,197.0156 L16.3125,195.8906 C16.3125,193.1719 18.3125,191.0938 20.9375,191.0938 C21.8125,191.0938 22.4063,191.2344 23.3438,191.6719 Z "/><text fill="#000000" font-family="sans-serif" font-size="12" lengthAdjust="spacingAndGlyphs" textLength="68" x="35" y="200.1543">Dispatcher</text><line style="stroke: #A80036; stroke-width: 1.5;" x1="7" x2="105" y1="212" y2="212"/><line style="stroke: #A80036; stroke-width: 1.5;" x1="7" x2="105" y1="220" y2="220"/><!--MD5=[56e4c9075fa7c9f4c09ef0a20c49f72c]
class T--><rect fill="#FEFECE" filter="url(#fy8ccdbagtgi)" height="48" id="T" style="stroke: #A80036; stroke-width: 1.5;" width="39" x="141.5" y="180"/><ellipse cx="156.5" cy="196" fill="#ADD1B2" rx="11" ry="11" style="stroke: #A80036; stroke-width: 1.0;"/><path d="M158.8438,191.6719 L159.0156,191.75 C159.2344,191.4375 159.4375,191.3438 159.7344,191.3438 C160.0313,191.3438 160.3125,191.4844 160.4688,191.75 C160.5625,191.9063 160.5781,192.0313 160.5781,192.4688 L160.5781,193.8906 C160.5781,194.3125 160.5469,194.5 160.4375,194.6563 C160.2656,194.875 160,195.0156 159.7344,195.0156 C159.5156,195.0156 159.2813,194.9063 159.1406,194.7656 C159,194.6406 158.9688,194.5156 158.9063,194.1094 C158.8125,193.7031 158.6406,193.4844 158.1563,193.2031 C157.6875,192.9531 157.0781,192.7969 156.5,192.7969 C154.7656,192.7969 153.5156,194.1094 153.5156,195.8906 L153.5156,196.9844 C153.5156,198.6875 154.8125,199.7813 156.8594,199.7813 C157.625,199.7813 158.3125,199.6563 158.7344,199.3906 C158.9219,199.2969 158.9219,199.2969 159.375,198.8125 C159.5625,198.625 159.7656,198.5469 159.9844,198.5469 C160.4531,198.5469 160.8438,198.9375 160.8438,199.3906 C160.8438,199.7813 160.5156,200.2344 159.9375,200.6406 C159.1875,201.1875 158.0313,201.4844 156.8125,201.4844 C153.9219,201.4844 151.8125,199.5938 151.8125,197.0156 L151.8125,195.8906 C151.8125,193.1719 153.8125,191.0938 156.4375,191.0938 C157.3125,191.0938 157.9063,191.2344 158.8438,191.6719 Z "/><text fill="#000000" font-family="sans-serif" font-size="12" lengthAdjust="spacingAndGlyphs" textLength="7" x="170.5" y="200.1543">T</text><line style="stroke: #A80036; stroke-width: 1.5;" x1="142.5" x2="179.5" y1="212" y2="212"/><line style="stroke: #A80036; stroke-width: 1.5;" x1="142.5" x2="179.5" y1="220" y2="220"/><!--MD5=[df152c2476dc0702efc46fc22338464c]
class Processor--><rect fill="#FEFECE" filter="url(#fy8ccdbagtgi)" height="48" id="Processor" style="stroke: #A80036; stroke-width: 1.5;" width="95" x="215.5" y="180"/><ellipse cx="230.5" cy="196" fill="#ADD1B2" rx="11" ry="11" style="stroke: #A80036; stroke-width: 1.0;"/><path d="M232.8438,191.6719 L233.0156,191.75 C233.2344,191.4375 233.4375,191.3438 233.7344,191.3438 C234.0313,191.3438 234.3125,191.4844 234.4688,191.75 C234.5625,191.9063 234.5781,192.0313 234.5781,192.4688 L234.5781,193.8906 C234.5781,194.3125 234.5469,194.5 234.4375,194.6563 C234.2656,194.875 234,195.0156 233.7344,195.0156 C233.5156,195.0156 233.2813,194.9063 233.1406,194.7656 C233,194.6406 232.9688,194.5156 232.9063,194.1094 C232.8125,193.7031 232.6406,193.4844 232.1563,193.2031 C231.6875,192.9531 231.0781,192.7969 230.5,192.7969 C228.7656,192.7969 227.5156,194.1094 227.5156,195.8906 L227.5156,196.9844 C227.5156,198.6875 228.8125,199.7813 230.8594,199.7813 C231.625,199.7813 232.3125,199.6563 232.7344,199.3906 C232.9219,199.2969 232.9219,199.2969 233.375,198.8125 C233.5625,198.625 233.7656,198.5469 233.9844,198.5469 C234.4531,198.5469 234.8438,198.9375 234.8438,199.3906 C234.8438,199.7813 234.5156,200.2344 233.9375,200.6406 C233.1875,201.1875 232.0313,201.4844 230.8125,201.4844 C227.9219,201.4844 225.8125,199.5938 225.8125,197.0156 L225.8125,195.8906 C225.8125,193.1719 227.8125,191.0938 230.4375,191.0938 C231.3125,191.0938 231.9063,191.2344 232.8438,191.6719 Z "/><text fill="#000000" font-family="sans-serif" font-size="12" lengthAdjust="spacingAndGlyphs" textLength="63" x="244.5" y="200.1543">Processor</text><line style="stroke: #A80036; stroke-width: 1.5;" x1="216.5" x2="309.5" y1="212" y2="212"/><line style="stroke: #A80036; stroke-width: 1.5;" x1="216.5" x2="309.5" y1="220" y2="220"/><!--MD5=[86cfdc25119a3a20e0664f11a0f5b002]
class Writer--><rect fill="#FEFECE" filter="url(#fy8ccdbagtgi)" height="48" id="Writer" style="stroke: #A80036; stroke-width: 1.5;" width="69" x="345.5" y="180"/><ellipse cx="360.5" cy="196" fill="#ADD1B2" rx="11" ry="11" style="stroke: #A80036; stroke-width: 1.0;"/><path d="M362.8438,191.6719 L363.0156,191.75 C363.2344,191.4375 363.4375,191.3438 363.7344,191.3438 C364.0313,191.3438 364.3125,191.4844 364.4688,191.75 C364.5625,191.9063 364.5781,192.0313 364.5781,192.4688 L364.5781,193.8906 C364.5781,194.3125 364.5469,194.5 364.4375,194.6563 C364.2656,194.875 364,195.0156 363.7344,195.0156 C363.5156,195.0156 363.2813,194.9063 363.1406,194.7656 C363,194.6406 362.9688,194.5156 362.9063,194.1094 C362.8125,193.7031 362.6406,193.4844 362.1563,193.2031 C361.6875,192.9531 361.0781,192.7969 360.5,192.7969 C358.7656,192.7969 357.5156,194.1094 357.5156,195.8906 L357.5156,196.9844 C357.5156,198.6875 358.8125,199.7813 360.8594,199.7813 C361.625,199.7813 362.3125,199.6563 362.7344,199.3906 C362.9219,199.2969 362.9219,199.2969 363.375,198.8125 C363.5625,198.625 363.7656,198.5469 363.9844,198.5469 C364.4531,198.5469 364.8438,198.9375 364.8438,199.3906 C364.8438,199.7813 364.5156,200.2344 363.9375,200.6406 C363.1875,201.1875 362.0313,201.4844 360.8125,201.4844 C357.9219,201.4844 355.8125,199.5938 355.8125,197.0156 L355.8125,195.8906 C355.8125,193.1719 357.8125,191.0938 360.4375,191.0938 C361.3125,191.0938 361.9063,191.2344 362.8438,191.6719 Z "/><text fill="#000000" font-family="sans-serif" font-size="12" lengthAdjust="spacingAndGlyphs" textLength="37" x="374.5" y="200.1543">Writer</text><line style="stroke: #A80036; stroke-width: 1.5;" x1="346.5" x2="413.5" y1="212" y2="212"/><line style="stroke: #A80036; stroke-width: 1.5;" x1="346.5" x2="413.5" y1="220" y2="220"/><!--MD5=[cae1aa2ed6e778162995bf3ca3fe08e8]
class JobComplete--><rect fill="#FEFECE" filter="url(#fy8ccdbagtgi)" height="48" id="JobComplete" style="stroke: #A80036; stroke-width: 1.5;" width="110" x="450" y="180"/><ellipse cx="465" cy="196" fill="#ADD1B2" rx="11" ry="11" style="stroke: #A80036; stroke-width: 1.0;"/><path d="M467.3438,191.6719 L467.5156,191.75 C467.7344,191.4375 467.9375,191.3438 468.2344,191.3438 C468.5313,191.3438 468.8125,191.4844 468.9688,191.75 C469.0625,191.9063 469.0781,192.0313 469.0781,192.4688 L469.0781,193.8906 C469.0781,194.3125 469.0469,194.5 468.9375,194.6563 C468.7656,194.875 468.5,195.0156 468.2344,195.0156 C468.0156,195.0156 467.7813,194.9063 467.6406,194.7656 C467.5,194.6406 467.4688,194.5156 467.4063,194.1094 C467.3125,193.7031 467.1406,193.4844 466.6563,193.2031 C466.1875,192.9531 465.5781,192.7969 465,192.7969 C463.2656,192.7969 462.0156,194.1094 462.0156,195.8906 L462.0156,196.9844 C462.0156,198.6875 463.3125,199.7813 465.3594,199.7813 C466.125,199.7813 466.8125,199.6563 467.2344,199.3906 C467.4219,199.2969 467.4219,199.2969 467.875,198.8125 C468.0625,198.625 468.2656,198.5469 468.4844,198.5469 C468.9531,198.5469 469.3438,198.9375 469.3438,199.3906 C469.3438,199.7813 469.0156,200.2344 468.4375,200.6406 C467.6875,201.1875 466.5313,201.4844 465.3125,201.4844 C462.4219,201.4844 460.3125,199.5938 460.3125,197.0156 L460.3125,195.8906 C460.3125,193.1719 462.3125,191.0938 464.9375,191.0938 C465.8125,191.0938 466.4063,191.2344 467.3438,191.6719 Z "/><text fill="#000000" font-family="sans-serif" font-size="12" lengthAdjust="spacingAndGlyphs" textLength="78" x="479" y="200.1543">JobComplete</text><line style="stroke: #A80036; stroke-width: 1.5;" x1="451" x2="559" y1="212" y2="212"/><line style="stroke: #A80036; stroke-width: 1.5;" x1="451" x2="559" y1="220" y2="220"/><!--MD5=[9c27efd4faf3576ab126e164d8dd94f9]
link Etl to Dispatcher--><path d="M180.296,120.136 C150.824,139.7841 119.005,160.9964 94.9398,177.0401 " fill="none" id="Etl-&gt;Dispatcher" style="stroke: #A80036; stroke-width: 1.0;"/><polygon fill="#A80036" points="90.5388,179.9741,100.246,178.3099,94.699,177.2006,95.8084,171.6536,90.5388,179.9741" style="stroke: #A80036; stroke-width: 1.0;"/><!--MD5=[0c3aee110b32a582b372603f6b8fe719]
link Etl to T--><path d="M222.1,120.335 C208.118,139.2522 193.08,159.5973 181.422,175.3701 " fill="none" id="Etl-&gt;T" style="stroke: #A80036; stroke-width: 1.0;"/><polygon fill="#A80036" points="178.227,179.6926,186.7938,174.8335,181.1994,175.6721,180.3609,170.0777,178.227,179.6926" style="stroke: #A80036; stroke-width: 1.0;"/><!--MD5=[c0e4c3b9e151b6c6f671fae652435695]
link Etl to Processor--><path d="M263,120.335 C263,138.9288 263,158.9021 263,174.5573 " fill="none" id="Etl-&gt;Processor" style="stroke: #A80036; stroke-width: 1.0;"/><polygon fill="#A80036" points="263,179.6926,267,170.6926,263,174.6926,259,170.6926,263,179.6926" style="stroke: #A80036; stroke-width: 1.0;"/><!--MD5=[a0e2f49f9e71b7e153a1cbb68c5dd579]
link Etl to Writer--><path d="M309.914,120.335 C326.09,139.4139 343.497,159.9452 356.917,175.7735 " fill="none" id="Etl-&gt;Writer" style="stroke: #A80036; stroke-width: 1.0;"/><polygon fill="#A80036" points="360.239,179.6926,357.4705,170.2409,357.0058,175.8786,351.3681,175.414,360.239,179.6926" style="stroke: #A80036; stroke-width: 1.0;"/><!--MD5=[4948a01947be7ac08e4fb1adf243bb5c]
link Etl to JobComplete--><path d="M359.688,120.136 C394.429,139.9472 431.959,161.3485 460.175,177.4385 " fill="none" id="Etl-&gt;JobComplete" style="stroke: #A80036; stroke-width: 1.0;"/><polygon fill="#A80036" points="464.621,179.9741,458.7847,172.0408,460.2777,177.497,454.8214,178.99,464.621,179.9741" style="stroke: #A80036; stroke-width: 1.0;"/><!--MD5=[061e6fd99fc68fc8e71f3a5c4cd9383b]
@startuml
class Etl{
  #dispatcher : Dispatcher<T>
  #processor : Processor<T>
  #writer : Writer<T>
  #jobComplete : JobComplete<T>
  +execute()
}

Etl - -> Dispatcher
Etl - -> T
Etl - -> Processor
Etl - -> Writer
Etl - -> JobComplete
@enduml

PlantUML version 1.2019.11(Sun Sep 22 10:02:15 UTC 2019)
(GPL source distribution)
Java Runtime: Java(TM) SE Runtime Environment
JVM: Java HotSpot(TM) 64-Bit Server VM
Java Version: 1.7.0_25-b15
Operating System: Linux
Default Encoding: UTF-8
Language: en
Country: US
--></g></svg>