<?xml version="1.0" encoding="UTF-8" standalone="no"?><svg xmlns="http://www.w3.org/2000/svg" xmlns:xlink="http://www.w3.org/1999/xlink" contentScriptType="application/ecmascript" contentStyleType="text/css" height="646px" preserveAspectRatio="none" style="width:548px;height:646px;" version="1.1" viewBox="0 0 548 646" width="548px" zoomAndPan="magnify"><defs><filter height="300%" id="f5fcyvlw4h8wu" width="300%" x="-1" y="-1"><feGaussianBlur result="blurOut" stdDeviation="2.0"/><feColorMatrix in="blurOut" result="blurOut2" type="matrix" values="0 0 0 0 0 0 0 0 0 0 0 0 0 0 0 0 0 0 .4 0"/><feOffset dx="4.0" dy="4.0" in="blurOut2" result="blurOut3"/><feBlend in="SourceGraphic" in2="blurOut3" mode="normal"/></filter></defs><g><!--MD5=[609ea6ef56ac525c83c9f645990cd8d9]
class ReaderOpts--><rect fill="#FEFECE" filter="url(#f5fcyvlw4h8wu)" height="73.6094" id="ReaderOpts" style="stroke: #A80036; stroke-width: 1.5;" width="104" x="6" y="224"/><ellipse cx="21" cy="240" fill="#B4A7E5" rx="11" ry="11" style="stroke: #A80036; stroke-width: 1.0;"/><path d="M21.9531,236.7813 L21.9531,243.2969 L23.6719,243.2969 C24.125,243.2969 24.2656,243.3281 24.4375,243.4531 C24.6719,243.625 24.7813,243.875 24.7813,244.1563 C24.7813,244.7188 24.4219,245 23.6719,245 L18.5313,245 C18.125,245 17.9219,244.9531 17.7656,244.8281 C17.5469,244.6719 17.4063,244.4063 17.4063,244.1563 C17.4063,243.8594 17.5625,243.5781 17.8125,243.4219 C17.9688,243.3125 18.0938,243.2969 18.5313,243.2969 L20.25,243.2969 L20.25,236.7813 L18.5313,236.7813 C18.1094,236.7813 17.9219,236.75 17.7656,236.6406 C17.5469,236.4688 17.4063,236.2188 17.4063,235.9375 C17.4063,235.6563 17.5625,235.3594 17.8125,235.2031 C17.9688,235.1094 18.0938,235.0938 18.5313,235.0938 L23.6719,235.0938 C24.125,235.0938 24.2656,235.125 24.4375,235.2344 C24.6719,235.4063 24.7813,235.6719 24.7813,235.9375 C24.7813,236.2344 24.6406,236.5156 24.375,236.6719 C24.25,236.75 24.0625,236.7813 23.6719,236.7813 Z "/><text fill="#000000" font-family="sans-serif" font-size="12" font-style="italic" lengthAdjust="spacingAndGlyphs" textLength="72" x="35" y="244.1543">ReaderOpts</text><line style="stroke: #A80036; stroke-width: 1.5;" x1="7" x2="109" y1="256" y2="256"/><ellipse cx="17" cy="267" fill="none" rx="3" ry="3" style="stroke: #038048; stroke-width: 1.0;"/><text fill="#000000" font-family="sans-serif" font-size="11" lengthAdjust="spacingAndGlyphs" textLength="69" x="26" y="270.2104">type : string</text><ellipse cx="17" cy="279.8047" fill="none" rx="3" ry="3" style="stroke: #038048; stroke-width: 1.0;"/><text fill="#000000" font-family="sans-serif" font-size="11" lengthAdjust="spacingAndGlyphs" textLength="57" x="26" y="283.0151">opts : any</text><line style="stroke: #A80036; stroke-width: 1.5;" x1="7" x2="109" y1="289.6094" y2="289.6094"/><!--MD5=[610b71d52d9c2699d677cb29325f9307]
class CommandOpts--><rect fill="#FEFECE" filter="url(#f5fcyvlw4h8wu)" height="86.4141" id="CommandOpts" style="stroke: #A80036; stroke-width: 1.5;" width="121" x="145.5" y="218"/><ellipse cx="160.5" cy="234" fill="#B4A7E5" rx="11" ry="11" style="stroke: #A80036; stroke-width: 1.0;"/><path d="M161.4531,230.7813 L161.4531,237.2969 L163.1719,237.2969 C163.625,237.2969 163.7656,237.3281 163.9375,237.4531 C164.1719,237.625 164.2813,237.875 164.2813,238.1563 C164.2813,238.7188 163.9219,239 163.1719,239 L158.0313,239 C157.625,239 157.4219,238.9531 157.2656,238.8281 C157.0469,238.6719 156.9063,238.4063 156.9063,238.1563 C156.9063,237.8594 157.0625,237.5781 157.3125,237.4219 C157.4688,237.3125 157.5938,237.2969 158.0313,237.2969 L159.75,237.2969 L159.75,230.7813 L158.0313,230.7813 C157.6094,230.7813 157.4219,230.75 157.2656,230.6406 C157.0469,230.4688 156.9063,230.2188 156.9063,229.9375 C156.9063,229.6563 157.0625,229.3594 157.3125,229.2031 C157.4688,229.1094 157.5938,229.0938 158.0313,229.0938 L163.1719,229.0938 C163.625,229.0938 163.7656,229.125 163.9375,229.2344 C164.1719,229.4063 164.2813,229.6719 164.2813,229.9375 C164.2813,230.2344 164.1406,230.5156 163.875,230.6719 C163.75,230.75 163.5625,230.7813 163.1719,230.7813 Z "/><text fill="#000000" font-family="sans-serif" font-size="12" font-style="italic" lengthAdjust="spacingAndGlyphs" textLength="89" x="174.5" y="238.1543">CommandOpts</text><line style="stroke: #A80036; stroke-width: 1.5;" x1="146.5" x2="265.5" y1="250" y2="250"/><ellipse cx="156.5" cy="261" fill="none" rx="3" ry="3" style="stroke: #038048; stroke-width: 1.0;"/><text fill="#000000" font-family="sans-serif" font-size="11" lengthAdjust="spacingAndGlyphs" textLength="66" x="165.5" y="264.2104">title : string</text><ellipse cx="156.5" cy="273.8047" fill="none" rx="3" ry="3" style="stroke: #038048; stroke-width: 1.0;"/><text fill="#000000" font-family="sans-serif" font-size="11" lengthAdjust="spacingAndGlyphs" textLength="69" x="165.5" y="277.0151">cmd : string</text><ellipse cx="156.5" cy="286.6094" fill="none" rx="3" ry="3" style="stroke: #038048; stroke-width: 1.0;"/><text fill="#000000" font-family="sans-serif" font-size="11" lengthAdjust="spacingAndGlyphs" textLength="57" x="165.5" y="289.8198">opts : any</text><line style="stroke: #A80036; stroke-width: 1.5;" x1="146.5" x2="265.5" y1="296.4141" y2="296.4141"/><!--MD5=[743ad70f1e9e9b51d022202c1f395313]
class QueueOpts--><rect fill="#FEFECE" filter="url(#f5fcyvlw4h8wu)" height="73.6094" id="QueueOpts" style="stroke: #A80036; stroke-width: 1.5;" width="136" x="302" y="224"/><ellipse cx="333.65" cy="240" fill="#B4A7E5" rx="11" ry="11" style="stroke: #A80036; stroke-width: 1.0;"/><path d="M334.6031,236.7813 L334.6031,243.2969 L336.3219,243.2969 C336.775,243.2969 336.9156,243.3281 337.0875,243.4531 C337.3219,243.625 337.4313,243.875 337.4313,244.1563 C337.4313,244.7188 337.0719,245 336.3219,245 L331.1813,245 C330.775,245 330.5719,244.9531 330.4156,244.8281 C330.1969,244.6719 330.0563,244.4063 330.0563,244.1563 C330.0563,243.8594 330.2125,243.5781 330.4625,243.4219 C330.6188,243.3125 330.7438,243.2969 331.1813,243.2969 L332.9,243.2969 L332.9,236.7813 L331.1813,236.7813 C330.7594,236.7813 330.5719,236.75 330.4156,236.6406 C330.1969,236.4688 330.0563,236.2188 330.0563,235.9375 C330.0563,235.6563 330.2125,235.3594 330.4625,235.2031 C330.6188,235.1094 330.7438,235.0938 331.1813,235.0938 L336.3219,235.0938 C336.775,235.0938 336.9156,235.125 337.0875,235.2344 C337.3219,235.4063 337.4313,235.6719 337.4313,235.9375 C337.4313,236.2344 337.2906,236.5156 337.025,236.6719 C336.9,236.75 336.7125,236.7813 336.3219,236.7813 Z "/><text fill="#000000" font-family="sans-serif" font-size="12" font-style="italic" lengthAdjust="spacingAndGlyphs" textLength="67" x="351.35" y="244.1543">QueueOpts</text><line style="stroke: #A80036; stroke-width: 1.5;" x1="303" x2="437" y1="256" y2="256"/><ellipse cx="313" cy="267" fill="none" rx="3" ry="3" style="stroke: #038048; stroke-width: 1.0;"/><text fill="#000000" font-family="sans-serif" font-size="11" lengthAdjust="spacingAndGlyphs" textLength="69" x="322" y="270.2104">type : string</text><ellipse cx="313" cy="279.8047" fill="none" rx="3" ry="3" style="stroke: #038048; stroke-width: 1.0;"/><text fill="#000000" font-family="sans-serif" font-size="11" lengthAdjust="spacingAndGlyphs" textLength="110" x="322" y="283.0151">opts : EtlOpts | any</text><line style="stroke: #A80036; stroke-width: 1.5;" x1="303" x2="437" y1="289.6094" y2="289.6094"/><!--MD5=[6d9c4d4ecdb1c7e09e70a63a991b958d]
class EtlOpts--><rect fill="#FEFECE" filter="url(#f5fcyvlw4h8wu)" height="137.6328" id="EtlOpts" style="stroke: #A80036; stroke-width: 1.5;" width="196" x="272" y="364"/><ellipse cx="344.25" cy="380" fill="#B4A7E5" rx="11" ry="11" style="stroke: #A80036; stroke-width: 1.0;"/><path d="M345.2031,376.7813 L345.2031,383.2969 L346.9219,383.2969 C347.375,383.2969 347.5156,383.3281 347.6875,383.4531 C347.9219,383.625 348.0313,383.875 348.0313,384.1563 C348.0313,384.7188 347.6719,385 346.9219,385 L341.7813,385 C341.375,385 341.1719,384.9531 341.0156,384.8281 C340.7969,384.6719 340.6563,384.4063 340.6563,384.1563 C340.6563,383.8594 340.8125,383.5781 341.0625,383.4219 C341.2188,383.3125 341.3438,383.2969 341.7813,383.2969 L343.5,383.2969 L343.5,376.7813 L341.7813,376.7813 C341.3594,376.7813 341.1719,376.75 341.0156,376.6406 C340.7969,376.4688 340.6563,376.2188 340.6563,375.9375 C340.6563,375.6563 340.8125,375.3594 341.0625,375.2031 C341.2188,375.1094 341.3438,375.0938 341.7813,375.0938 L346.9219,375.0938 C347.375,375.0938 347.5156,375.125 347.6875,375.2344 C347.9219,375.4063 348.0313,375.6719 348.0313,375.9375 C348.0313,376.2344 347.8906,376.5156 347.625,376.6719 C347.5,376.75 347.3125,376.7813 346.9219,376.7813 Z "/><text fill="#000000" font-family="sans-serif" font-size="12" font-style="italic" lengthAdjust="spacingAndGlyphs" textLength="43" x="364.75" y="384.1543">EtlOpts</text><line style="stroke: #A80036; stroke-width: 1.5;" x1="273" x2="467" y1="396" y2="396"/><ellipse cx="283" cy="407" fill="none" rx="3" ry="3" style="stroke: #038048; stroke-width: 1.0;"/><text fill="#000000" font-family="sans-serif" font-size="11" lengthAdjust="spacingAndGlyphs" textLength="170" x="292" y="410.2104">removeOnComplete : boolean</text><ellipse cx="283" cy="419.8047" fill="none" rx="3" ry="3" style="stroke: #038048; stroke-width: 1.0;"/><text fill="#000000" font-family="sans-serif" font-size="11" lengthAdjust="spacingAndGlyphs" textLength="135" x="292" y="423.0151">removeOnFail : boolean</text><ellipse cx="283" cy="432.6094" fill="none" rx="3" ry="3" style="stroke: #038048; stroke-width: 1.0;"/><text fill="#000000" font-family="sans-serif" font-size="11" lengthAdjust="spacingAndGlyphs" textLength="86" x="292" y="435.8198">delay : number</text><ellipse cx="283" cy="445.4141" fill="none" rx="3" ry="3" style="stroke: #038048; stroke-width: 1.0;"/><text fill="#000000" font-family="sans-serif" font-size="11" lengthAdjust="spacingAndGlyphs" textLength="107" x="292" y="448.6245">attempts : number</text><ellipse cx="283" cy="458.2188" fill="none" rx="3" ry="3" style="stroke: #038048; stroke-width: 1.0;"/><text fill="#000000" font-family="sans-serif" font-size="11" lengthAdjust="spacingAndGlyphs" textLength="151" x="292" y="461.4292">backoff : number | Backoff</text><ellipse cx="283" cy="471.0234" fill="none" rx="3" ry="3" style="stroke: #038048; stroke-width: 1.0;"/><text fill="#000000" font-family="sans-serif" font-size="11" lengthAdjust="spacingAndGlyphs" textLength="74" x="292" y="474.2339">lifo : boolean</text><ellipse cx="283" cy="483.8281" fill="none" rx="3" ry="3" style="stroke: #038048; stroke-width: 1.0;"/><text fill="#000000" font-family="sans-serif" font-size="11" lengthAdjust="spacingAndGlyphs" textLength="99" x="292" y="487.0386">timeout : number</text><line style="stroke: #A80036; stroke-width: 1.5;" x1="273" x2="467" y1="493.6328" y2="493.6328"/><!--MD5=[5aab109280f4d16484b6ceb08afad361]
class Backoff--><rect fill="#FEFECE" filter="url(#f5fcyvlw4h8wu)" height="73.6094" id="Backoff" style="stroke: #A80036; stroke-width: 1.5;" width="112" x="314" y="562"/><ellipse cx="344.3" cy="578" fill="#B4A7E5" rx="11" ry="11" style="stroke: #A80036; stroke-width: 1.0;"/><path d="M345.2531,574.7813 L345.2531,581.2969 L346.9719,581.2969 C347.425,581.2969 347.5656,581.3281 347.7375,581.4531 C347.9719,581.625 348.0813,581.875 348.0813,582.1563 C348.0813,582.7188 347.7219,583 346.9719,583 L341.8313,583 C341.425,583 341.2219,582.9531 341.0656,582.8281 C340.8469,582.6719 340.7063,582.4063 340.7063,582.1563 C340.7063,581.8594 340.8625,581.5781 341.1125,581.4219 C341.2688,581.3125 341.3938,581.2969 341.8313,581.2969 L343.55,581.2969 L343.55,574.7813 L341.8313,574.7813 C341.4094,574.7813 341.2219,574.75 341.0656,574.6406 C340.8469,574.4688 340.7063,574.2188 340.7063,573.9375 C340.7063,573.6563 340.8625,573.3594 341.1125,573.2031 C341.2688,573.1094 341.3938,573.0938 341.8313,573.0938 L346.9719,573.0938 C347.425,573.0938 347.5656,573.125 347.7375,573.2344 C347.9719,573.4063 348.0813,573.6719 348.0813,573.9375 C348.0813,574.2344 347.9406,574.5156 347.675,574.6719 C347.55,574.75 347.3625,574.7813 346.9719,574.7813 Z "/><text fill="#000000" font-family="sans-serif" font-size="12" font-style="italic" lengthAdjust="spacingAndGlyphs" textLength="46" x="361.7" y="582.1543">Backoff</text><line style="stroke: #A80036; stroke-width: 1.5;" x1="315" x2="425" y1="594" y2="594"/><ellipse cx="325" cy="605" fill="none" rx="3" ry="3" style="stroke: #038048; stroke-width: 1.0;"/><text fill="#000000" font-family="sans-serif" font-size="11" lengthAdjust="spacingAndGlyphs" textLength="69" x="334" y="608.2104">type : string</text><ellipse cx="325" cy="617.8047" fill="none" rx="3" ry="3" style="stroke: #038048; stroke-width: 1.0;"/><text fill="#000000" font-family="sans-serif" font-size="11" lengthAdjust="spacingAndGlyphs" textLength="86" x="334" y="621.0151">delay : number</text><line style="stroke: #A80036; stroke-width: 1.5;" x1="315" x2="425" y1="627.6094" y2="627.6094"/><!--MD5=[8a66ae571ced761c8ed0590b3bbb6ad8]
class EtlConfiguration--><rect fill="#FEFECE" filter="url(#f5fcyvlw4h8wu)" height="150.4375" id="EtlConfiguration" style="stroke: #A80036; stroke-width: 1.5;" width="269" x="153.5" y="8"/><ellipse cx="233.75" cy="24" fill="#B4A7E5" rx="11" ry="11" style="stroke: #A80036; stroke-width: 1.0;"/><path d="M234.7031,20.7813 L234.7031,27.2969 L236.4219,27.2969 C236.875,27.2969 237.0156,27.3281 237.1875,27.4531 C237.4219,27.625 237.5313,27.875 237.5313,28.1563 C237.5313,28.7188 237.1719,29 236.4219,29 L231.2813,29 C230.875,29 230.6719,28.9531 230.5156,28.8281 C230.2969,28.6719 230.1563,28.4063 230.1563,28.1563 C230.1563,27.8594 230.3125,27.5781 230.5625,27.4219 C230.7188,27.3125 230.8438,27.2969 231.2813,27.2969 L233,27.2969 L233,20.7813 L231.2813,20.7813 C230.8594,20.7813 230.6719,20.75 230.5156,20.6406 C230.2969,20.4688 230.1563,20.2188 230.1563,19.9375 C230.1563,19.6563 230.3125,19.3594 230.5625,19.2031 C230.7188,19.1094 230.8438,19.0938 231.2813,19.0938 L236.4219,19.0938 C236.875,19.0938 237.0156,19.125 237.1875,19.2344 C237.4219,19.4063 237.5313,19.6719 237.5313,19.9375 C237.5313,20.2344 237.3906,20.5156 237.125,20.6719 C237,20.75 236.8125,20.7813 236.4219,20.7813 Z "/><text fill="#000000" font-family="sans-serif" font-size="12" font-style="italic" lengthAdjust="spacingAndGlyphs" textLength="100" x="254.25" y="28.1543">EtlConfiguration</text><line style="stroke: #A80036; stroke-width: 1.5;" x1="154.5" x2="421.5" y1="40" y2="40"/><ellipse cx="164.5" cy="51" fill="none" rx="3" ry="3" style="stroke: #038048; stroke-width: 1.0;"/><text fill="#000000" font-family="sans-serif" font-size="11" lengthAdjust="spacingAndGlyphs" textLength="66" x="173.5" y="54.2104">id : number</text><ellipse cx="164.5" cy="63.8047" fill="none" rx="3" ry="3" style="stroke: #038048; stroke-width: 1.0;"/><text fill="#000000" font-family="sans-serif" font-size="11" lengthAdjust="spacingAndGlyphs" textLength="66" x="173.5" y="67.0151">title : string</text><ellipse cx="164.5" cy="76.6094" fill="none" rx="3" ry="3" style="stroke: #038048; stroke-width: 1.0;"/><text fill="#000000" font-family="sans-serif" font-size="11" lengthAdjust="spacingAndGlyphs" textLength="108" x="173.5" y="79.8198">description : string</text><ellipse cx="164.5" cy="89.4141" fill="none" rx="3" ry="3" style="stroke: #038048; stroke-width: 1.0;"/><text fill="#000000" font-family="sans-serif" font-size="11" lengthAdjust="spacingAndGlyphs" textLength="138" x="173.5" y="92.6245">queueOpts : QueueOpts</text><ellipse cx="164.5" cy="102.2188" fill="none" rx="3" ry="3" style="stroke: #038048; stroke-width: 1.0;"/><text fill="#000000" font-family="sans-serif" font-size="11" lengthAdjust="spacingAndGlyphs" textLength="144" x="173.5" y="105.4292">readerOpts : ReaderOpts</text><ellipse cx="164.5" cy="115.0234" fill="none" rx="3" ry="3" style="stroke: #038048; stroke-width: 1.0;"/><text fill="#000000" font-family="sans-serif" font-size="11" lengthAdjust="spacingAndGlyphs" textLength="230" x="173.5" y="118.2339">processorOpts : Array&lt;CommandOpts&gt;</text><ellipse cx="164.5" cy="127.8281" fill="none" rx="3" ry="3" style="stroke: #038048; stroke-width: 1.0;"/><text fill="#000000" font-family="sans-serif" font-size="11" lengthAdjust="spacingAndGlyphs" textLength="205" x="173.5" y="131.0386">writerOpts : Array&lt;CommandOpts&gt;</text><ellipse cx="164.5" cy="140.6328" fill="none" rx="3" ry="3" style="stroke: #038048; stroke-width: 1.0;"/><text fill="#000000" font-family="sans-serif" font-size="11" lengthAdjust="spacingAndGlyphs" textLength="243" x="173.5" y="143.8433">jobCompleteOpts : Array&lt;CommandOpts&gt;</text><line style="stroke: #A80036; stroke-width: 1.5;" x1="154.5" x2="421.5" y1="150.4375" y2="150.4375"/><!--MD5=[99f32fa4e73f6681c1a0ac5117bd3ce1]
class Array--><rect fill="#FEFECE" filter="url(#f5fcyvlw4h8wu)" height="48" id="Array" style="stroke: #A80036; stroke-width: 1.5;" width="64" x="473" y="237"/><ellipse cx="488" cy="253" fill="#ADD1B2" rx="11" ry="11" style="stroke: #A80036; stroke-width: 1.0;"/><path d="M490.3438,248.6719 L490.5156,248.75 C490.7344,248.4375 490.9375,248.3438 491.2344,248.3438 C491.5313,248.3438 491.8125,248.4844 491.9688,248.75 C492.0625,248.9063 492.0781,249.0313 492.0781,249.4688 L492.0781,250.8906 C492.0781,251.3125 492.0469,251.5 491.9375,251.6563 C491.7656,251.875 491.5,252.0156 491.2344,252.0156 C491.0156,252.0156 490.7813,251.9063 490.6406,251.7656 C490.5,251.6406 490.4688,251.5156 490.4063,251.1094 C490.3125,250.7031 490.1406,250.4844 489.6563,250.2031 C489.1875,249.9531 488.5781,249.7969 488,249.7969 C486.2656,249.7969 485.0156,251.1094 485.0156,252.8906 L485.0156,253.9844 C485.0156,255.6875 486.3125,256.7813 488.3594,256.7813 C489.125,256.7813 489.8125,256.6563 490.2344,256.3906 C490.4219,256.2969 490.4219,256.2969 490.875,255.8125 C491.0625,255.625 491.2656,255.5469 491.4844,255.5469 C491.9531,255.5469 492.3438,255.9375 492.3438,256.3906 C492.3438,256.7813 492.0156,257.2344 491.4375,257.6406 C490.6875,258.1875 489.5313,258.4844 488.3125,258.4844 C485.4219,258.4844 483.3125,256.5938 483.3125,254.0156 L483.3125,252.8906 C483.3125,250.1719 485.3125,248.0938 487.9375,248.0938 C488.8125,248.0938 489.4063,248.2344 490.3438,248.6719 Z "/><text fill="#000000" font-family="sans-serif" font-size="12" lengthAdjust="spacingAndGlyphs" textLength="32" x="502" y="257.1543">Array</text><line style="stroke: #A80036; stroke-width: 1.5;" x1="474" x2="536" y1="269" y2="269"/><line style="stroke: #A80036; stroke-width: 1.5;" x1="474" x2="536" y1="277" y2="277"/><!--MD5=[bf08a0fd69e9266a4b28b5c29aa8c743]
link QueueOpts to EtlOpts--><path d="M370,298.053 C370,315.738 370,337.712 370,358.713 " fill="none" id="QueueOpts-&gt;EtlOpts" style="stroke: #A80036; stroke-width: 1.0;"/><polygon fill="#A80036" points="370,363.742,374,354.742,370,358.742,366,354.742,370,363.742" style="stroke: #A80036; stroke-width: 1.0;"/><!--MD5=[7679a0d77640f374c1cb625f79f04f72]
link EtlOpts to Backoff--><path d="M370,502.126 C370,520.629 370,540.103 370,556.6301 " fill="none" id="EtlOpts-&gt;Backoff" style="stroke: #A80036; stroke-width: 1.0;"/><polygon fill="#A80036" points="370,561.6603,374,552.6603,370,556.6603,366,552.6603,370,561.6603" style="stroke: #A80036; stroke-width: 1.0;"/><!--MD5=[493916a3bc35f3f28481e06a62648b48]
link EtlConfiguration to QueueOpts--><path d="M322.538,158.13 C332.302,179.088 342.569,201.123 351.046,219.318 " fill="none" id="EtlConfiguration-&gt;QueueOpts" style="stroke: #A80036; stroke-width: 1.0;"/><polygon fill="#A80036" points="353.161,223.858,352.9867,214.0107,351.0498,219.3256,345.7349,217.3886,353.161,223.858" style="stroke: #A80036; stroke-width: 1.0;"/><!--MD5=[3d457c4449d073b55356fc0d009247e5]
link EtlConfiguration to ReaderOpts--><path d="M191.126,158.13 C163.041,179.621 133.476,202.244 109.361,220.698 " fill="none" id="EtlConfiguration-&gt;ReaderOpts" style="stroke: #A80036; stroke-width: 1.0;"/><polygon fill="#A80036" points="105.2315,223.858,114.8099,221.566,109.2025,220.8197,109.9487,215.2123,105.2315,223.858" style="stroke: #A80036; stroke-width: 1.0;"/><!--MD5=[f3be48ca2c485b148826955b67c5a491]
link EtlConfiguration to Array--><path d="M382.218,158.191 C406.401,177.496 432.28,198.385 456,218 C461.963,222.931 468.275,228.258 474.314,233.409 " fill="none" id="EtlConfiguration-&gt;Array" style="stroke: #A80036; stroke-width: 1.0;"/><polygon fill="#A80036" points="478.443,236.94,474.2016,228.0512,474.6426,233.6909,469.003,234.1319,478.443,236.94" style="stroke: #A80036; stroke-width: 1.0;"/><!--MD5=[da70955ff5a10768dd512db888cf3a44]
link EtlConfiguration to CommandOpts--><path d="M253.462,158.13 C244.821,176.678 235.786,196.069 227.946,212.896 " fill="none" id="EtlConfiguration-&gt;CommandOpts" style="stroke: #A80036; stroke-width: 1.0;"/><polygon fill="#A80036" points="225.768,217.571,233.1949,211.1025,227.8798,213.0388,225.9435,207.7237,225.768,217.571" style="stroke: #A80036; stroke-width: 1.0;"/><!--MD5=[e635dfc164b056f8c091e19829770270]
@startuml
interface ReaderOpts{
  +type : string
  +opts : any
}

interface CommandOpts{
  +title : string
  +cmd : string
  +opts : any
}

interface QueueOpts{
  +type : string
  +opts : EtlOpts | any
}

interface EtlOpts{
  +removeOnComplete : boolean
  +removeOnFail : boolean
  +delay : number
  +attempts : number
  +backoff : number | Backoff
  +lifo : boolean
  +timeout : number
}

interface Backoff{
  +type : string
  +delay : number
}

interface EtlConfiguration{
  +id : number
  +title : string
  +description : string
  +queueOpts : QueueOpts
  +readerOpts : ReaderOpts
  +processorOpts : Array<CommandOpts>
  +writerOpts : Array<CommandOpts>
  +jobCompleteOpts : Array<CommandOpts>
}

QueueOpts - -> EtlOpts
EtlOpts - -> Backoff
EtlConfiguration - -> QueueOpts
EtlConfiguration - -> ReaderOpts
EtlConfiguration - -> Array
EtlConfiguration - -> CommandOpts
@enduml

PlantUML version 1.2019.11(Sun Sep 22 10:02:15 UTC 2019)
(GPL source distribution)
Java Runtime: Java(TM) SE Runtime Environment
JVM: Java HotSpot(TM) 64-Bit Server VM
Java Version: 1.7.0_25-b15
Operating System: Linux
Default Encoding: UTF-8
Language: en
Country: US
--></g></svg>