<?xml version="1.0" encoding="UTF-8" standalone="no"?><svg xmlns="http://www.w3.org/2000/svg" xmlns:xlink="http://www.w3.org/1999/xlink" contentScriptType="application/ecmascript" contentStyleType="text/css" height="557px" preserveAspectRatio="none" style="width:740px;height:557px;" version="1.1" viewBox="0 0 740 557" width="740px" zoomAndPan="magnify"><defs><filter height="300%" id="fqu2125a2s9i4" width="300%" x="-1" y="-1"><feGaussianBlur result="blurOut" stdDeviation="2.0"/><feColorMatrix in="blurOut" result="blurOut2" type="matrix" values="0 0 0 0 0 0 0 0 0 0 0 0 0 0 0 0 0 0 .4 0"/><feOffset dx="4.0" dy="4.0" in="blurOut2" result="blurOut3"/><feBlend in="SourceGraphic" in2="blurOut3" mode="normal"/></filter></defs><g><!--MD5=[b8e0354e0f3f5cbf52553869b78c0afa]
class Job--><rect fill="#FEFECE" filter="url(#fqu2125a2s9i4)" height="73.6094" id="Job" style="stroke: #A80036; stroke-width: 1.5;" width="98" x="453" y="364"/><ellipse cx="488.7" cy="380" fill="#B4A7E5" rx="11" ry="11" style="stroke: #A80036; stroke-width: 1.0;"/><path d="M489.6531,376.7813 L489.6531,383.2969 L491.3719,383.2969 C491.825,383.2969 491.9656,383.3281 492.1375,383.4531 C492.3719,383.625 492.4813,383.875 492.4813,384.1563 C492.4813,384.7188 492.1219,385 491.3719,385 L486.2313,385 C485.825,385 485.6219,384.9531 485.4656,384.8281 C485.2469,384.6719 485.1063,384.4063 485.1063,384.1563 C485.1063,383.8594 485.2625,383.5781 485.5125,383.4219 C485.6688,383.3125 485.7938,383.2969 486.2313,383.2969 L487.95,383.2969 L487.95,376.7813 L486.2313,376.7813 C485.8094,376.7813 485.6219,376.75 485.4656,376.6406 C485.2469,376.4688 485.1063,376.2188 485.1063,375.9375 C485.1063,375.6563 485.2625,375.3594 485.5125,375.2031 C485.6688,375.1094 485.7938,375.0938 486.2313,375.0938 L491.3719,375.0938 C491.825,375.0938 491.9656,375.125 492.1375,375.2344 C492.3719,375.4063 492.4813,375.6719 492.4813,375.9375 C492.4813,376.2344 492.3406,376.5156 492.075,376.6719 C491.95,376.75 491.7625,376.7813 491.3719,376.7813 Z "/><text fill="#000000" font-family="sans-serif" font-size="12" font-style="italic" lengthAdjust="spacingAndGlyphs" textLength="20" x="507.3" y="384.1543">Job</text><line style="stroke: #A80036; stroke-width: 1.5;" x1="454" x2="550" y1="396" y2="396"/><ellipse cx="464" cy="407" fill="none" rx="3" ry="3" style="stroke: #038048; stroke-width: 1.0;"/><text fill="#000000" font-family="sans-serif" font-size="11" lengthAdjust="spacingAndGlyphs" textLength="72" x="473" y="410.2104">jobId : string</text><ellipse cx="464" cy="419.8047" fill="none" rx="3" ry="3" style="stroke: #038048; stroke-width: 1.0;"/><text fill="#000000" font-family="sans-serif" font-size="11" lengthAdjust="spacingAndGlyphs" textLength="44" x="473" y="423.0151">data : T</text><line style="stroke: #A80036; stroke-width: 1.5;" x1="454" x2="550" y1="429.6094" y2="429.6094"/><!--MD5=[15b0de36700cf8bf422172734e699e19]
class Queue--><rect fill="#FEFECE" filter="url(#fqu2125a2s9i4)" height="86.4141" id="Queue" style="stroke: #A80036; stroke-width: 1.5;" width="210" x="513" y="8"/><ellipse cx="593.75" cy="24" fill="#B4A7E5" rx="11" ry="11" style="stroke: #A80036; stroke-width: 1.0;"/><path d="M594.7031,20.7813 L594.7031,27.2969 L596.4219,27.2969 C596.875,27.2969 597.0156,27.3281 597.1875,27.4531 C597.4219,27.625 597.5313,27.875 597.5313,28.1563 C597.5313,28.7188 597.1719,29 596.4219,29 L591.2813,29 C590.875,29 590.6719,28.9531 590.5156,28.8281 C590.2969,28.6719 590.1563,28.4063 590.1563,28.1563 C590.1563,27.8594 590.3125,27.5781 590.5625,27.4219 C590.7188,27.3125 590.8438,27.2969 591.2813,27.2969 L593,27.2969 L593,20.7813 L591.2813,20.7813 C590.8594,20.7813 590.6719,20.75 590.5156,20.6406 C590.2969,20.4688 590.1563,20.2188 590.1563,19.9375 C590.1563,19.6563 590.3125,19.3594 590.5625,19.2031 C590.7188,19.1094 590.8438,19.0938 591.2813,19.0938 L596.4219,19.0938 C596.875,19.0938 597.0156,19.125 597.1875,19.2344 C597.4219,19.4063 597.5313,19.6719 597.5313,19.9375 C597.5313,20.2344 597.3906,20.5156 597.125,20.6719 C597,20.75 596.8125,20.7813 596.4219,20.7813 Z "/><text fill="#000000" font-family="sans-serif" font-size="12" font-style="italic" lengthAdjust="spacingAndGlyphs" textLength="40" x="614.25" y="28.1543">Queue</text><line style="stroke: #A80036; stroke-width: 1.5;" x1="514" x2="722" y1="40" y2="40"/><line style="stroke: #A80036; stroke-width: 1.5;" x1="514" x2="722" y1="48" y2="48"/><ellipse cx="524" cy="59" fill="#84BE84" rx="3" ry="3" style="stroke: #038048; stroke-width: 1.0;"/><text fill="#000000" font-family="sans-serif" font-size="11" lengthAdjust="spacingAndGlyphs" textLength="184" x="533" y="62.2104">add(data: T): Promise&lt;Job&lt;T&gt;&gt;</text><ellipse cx="524" cy="71.8047" fill="#84BE84" rx="3" ry="3" style="stroke: #038048; stroke-width: 1.0;"/><text fill="#000000" font-family="sans-serif" font-size="11" lengthAdjust="spacingAndGlyphs" textLength="174" x="533" y="75.0151">on(event: string, cb: any): void</text><ellipse cx="524" cy="84.6094" fill="#84BE84" rx="3" ry="3" style="stroke: #038048; stroke-width: 1.0;"/><text fill="#000000" font-family="sans-serif" font-size="11" lengthAdjust="spacingAndGlyphs" textLength="139" x="533" y="87.8198">empty(): Promise&lt;void&gt;</text><!--MD5=[ddb1503ff422813d6e2c6bdacb1819ac]
class QueuePausable--><rect fill="#FEFECE" filter="url(#fqu2125a2s9i4)" height="73.6094" id="QueuePausable" style="stroke: #A80036; stroke-width: 1.5;" width="174" x="6" y="14"/><ellipse cx="41.7" cy="30" fill="#B4A7E5" rx="11" ry="11" style="stroke: #A80036; stroke-width: 1.0;"/><path d="M42.6531,26.7813 L42.6531,33.2969 L44.3719,33.2969 C44.825,33.2969 44.9656,33.3281 45.1375,33.4531 C45.3719,33.625 45.4813,33.875 45.4813,34.1563 C45.4813,34.7188 45.1219,35 44.3719,35 L39.2313,35 C38.825,35 38.6219,34.9531 38.4656,34.8281 C38.2469,34.6719 38.1063,34.4063 38.1063,34.1563 C38.1063,33.8594 38.2625,33.5781 38.5125,33.4219 C38.6688,33.3125 38.7938,33.2969 39.2313,33.2969 L40.95,33.2969 L40.95,26.7813 L39.2313,26.7813 C38.8094,26.7813 38.6219,26.75 38.4656,26.6406 C38.2469,26.4688 38.1063,26.2188 38.1063,25.9375 C38.1063,25.6563 38.2625,25.3594 38.5125,25.2031 C38.6688,25.1094 38.7938,25.0938 39.2313,25.0938 L44.3719,25.0938 C44.825,25.0938 44.9656,25.125 45.1375,25.2344 C45.3719,25.4063 45.4813,25.6719 45.4813,25.9375 C45.4813,26.2344 45.3406,26.5156 45.075,26.6719 C44.95,26.75 44.7625,26.7813 44.3719,26.7813 Z "/><text fill="#000000" font-family="sans-serif" font-size="12" font-style="italic" lengthAdjust="spacingAndGlyphs" textLength="96" x="60.3" y="34.1543">QueuePausable</text><line style="stroke: #A80036; stroke-width: 1.5;" x1="7" x2="179" y1="46" y2="46"/><line style="stroke: #A80036; stroke-width: 1.5;" x1="7" x2="179" y1="54" y2="54"/><ellipse cx="17" cy="65" fill="#84BE84" rx="3" ry="3" style="stroke: #038048; stroke-width: 1.0;"/><text fill="#000000" font-family="sans-serif" font-size="11" lengthAdjust="spacingAndGlyphs" textLength="139" x="26" y="68.2104">pause(): Promise&lt;void&gt;</text><ellipse cx="17" cy="77.8047" fill="#84BE84" rx="3" ry="3" style="stroke: #038048; stroke-width: 1.0;"/><text fill="#000000" font-family="sans-serif" font-size="11" lengthAdjust="spacingAndGlyphs" textLength="148" x="26" y="81.0151">resume(): Promise&lt;void&gt;</text><!--MD5=[4275709ddbea300e7bdf36673cd4676b]
class QueueIndexable--><rect fill="#FEFECE" filter="url(#fqu2125a2s9i4)" height="73.6094" id="QueueIndexable" style="stroke: #A80036; stroke-width: 1.5;" width="259" x="215.5" y="14"/><ellipse cx="289.75" cy="30" fill="#B4A7E5" rx="11" ry="11" style="stroke: #A80036; stroke-width: 1.0;"/><path d="M290.7031,26.7813 L290.7031,33.2969 L292.4219,33.2969 C292.875,33.2969 293.0156,33.3281 293.1875,33.4531 C293.4219,33.625 293.5313,33.875 293.5313,34.1563 C293.5313,34.7188 293.1719,35 292.4219,35 L287.2813,35 C286.875,35 286.6719,34.9531 286.5156,34.8281 C286.2969,34.6719 286.1563,34.4063 286.1563,34.1563 C286.1563,33.8594 286.3125,33.5781 286.5625,33.4219 C286.7188,33.3125 286.8438,33.2969 287.2813,33.2969 L289,33.2969 L289,26.7813 L287.2813,26.7813 C286.8594,26.7813 286.6719,26.75 286.5156,26.6406 C286.2969,26.4688 286.1563,26.2188 286.1563,25.9375 C286.1563,25.6563 286.3125,25.3594 286.5625,25.2031 C286.7188,25.1094 286.8438,25.0938 287.2813,25.0938 L292.4219,25.0938 C292.875,25.0938 293.0156,25.125 293.1875,25.2344 C293.4219,25.4063 293.5313,25.6719 293.5313,25.9375 C293.5313,26.2344 293.3906,26.5156 293.125,26.6719 C293,26.75 292.8125,26.7813 292.4219,26.7813 Z "/><text fill="#000000" font-family="sans-serif" font-size="12" font-style="italic" lengthAdjust="spacingAndGlyphs" textLength="102" x="310.25" y="34.1543">QueueIndexable</text><line style="stroke: #A80036; stroke-width: 1.5;" x1="216.5" x2="473.5" y1="46" y2="46"/><line style="stroke: #A80036; stroke-width: 1.5;" x1="216.5" x2="473.5" y1="54" y2="54"/><ellipse cx="226.5" cy="65" fill="#84BE84" rx="3" ry="3" style="stroke: #038048; stroke-width: 1.0;"/><text fill="#000000" font-family="sans-serif" font-size="11" lengthAdjust="spacingAndGlyphs" textLength="156" x="235.5" y="68.2104">count(): Promise&lt;number&gt;</text><ellipse cx="226.5" cy="77.8047" fill="#84BE84" rx="3" ry="3" style="stroke: #038048; stroke-width: 1.0;"/><text fill="#000000" font-family="sans-serif" font-size="11" lengthAdjust="spacingAndGlyphs" textLength="233" x="235.5" y="81.0151">getJob(jobId: string): Promise&lt;Job | null&gt;</text><!--MD5=[1743288789c69803f83524b4696af00b]
class BullQueue--><rect fill="#FEFECE" filter="url(#fqu2125a2s9i4)" height="150.4375" id="BullQueue" style="stroke: #A80036; stroke-width: 1.5;" width="284" x="200" y="154"/><ellipse cx="306.25" cy="170" fill="#ADD1B2" rx="11" ry="11" style="stroke: #A80036; stroke-width: 1.0;"/><path d="M308.5938,165.6719 L308.7656,165.75 C308.9844,165.4375 309.1875,165.3438 309.4844,165.3438 C309.7813,165.3438 310.0625,165.4844 310.2188,165.75 C310.3125,165.9063 310.3281,166.0313 310.3281,166.4688 L310.3281,167.8906 C310.3281,168.3125 310.2969,168.5 310.1875,168.6563 C310.0156,168.875 309.75,169.0156 309.4844,169.0156 C309.2656,169.0156 309.0313,168.9063 308.8906,168.7656 C308.75,168.6406 308.7188,168.5156 308.6563,168.1094 C308.5625,167.7031 308.3906,167.4844 307.9063,167.2031 C307.4375,166.9531 306.8281,166.7969 306.25,166.7969 C304.5156,166.7969 303.2656,168.1094 303.2656,169.8906 L303.2656,170.9844 C303.2656,172.6875 304.5625,173.7813 306.6094,173.7813 C307.375,173.7813 308.0625,173.6563 308.4844,173.3906 C308.6719,173.2969 308.6719,173.2969 309.125,172.8125 C309.3125,172.625 309.5156,172.5469 309.7344,172.5469 C310.2031,172.5469 310.5938,172.9375 310.5938,173.3906 C310.5938,173.7813 310.2656,174.2344 309.6875,174.6406 C308.9375,175.1875 307.7813,175.4844 306.5625,175.4844 C303.6719,175.4844 301.5625,173.5938 301.5625,171.0156 L301.5625,169.8906 C301.5625,167.1719 303.5625,165.0938 306.1875,165.0938 C307.0625,165.0938 307.6563,165.2344 308.5938,165.6719 Z "/><text fill="#000000" font-family="sans-serif" font-size="12" lengthAdjust="spacingAndGlyphs" textLength="63" x="326.75" y="174.1543">BullQueue</text><line style="stroke: #A80036; stroke-width: 1.5;" x1="201" x2="483" y1="186" y2="186"/><polygon fill="none" points="211,192,215,196,211,200,207,196" style="stroke: #B38D22; stroke-width: 1.0;"/><text fill="#000000" font-family="sans-serif" font-size="11" lengthAdjust="spacingAndGlyphs" textLength="71" x="220" y="200.2104">job : Job&lt;T&gt;</text><line style="stroke: #A80036; stroke-width: 1.5;" x1="201" x2="483" y1="206.8047" y2="206.8047"/><ellipse cx="211" cy="217.8047" fill="#84BE84" rx="3" ry="3" style="stroke: #038048; stroke-width: 1.0;"/><text fill="#000000" font-family="sans-serif" font-size="11" lengthAdjust="spacingAndGlyphs" textLength="184" x="220" y="221.0151">add(data: T): Promise&lt;Job&lt;T&gt;&gt;</text><ellipse cx="211" cy="230.6094" fill="#84BE84" rx="3" ry="3" style="stroke: #038048; stroke-width: 1.0;"/><text fill="#000000" font-family="sans-serif" font-size="11" lengthAdjust="spacingAndGlyphs" textLength="174" x="220" y="233.8198">on(event: string, cb: any): void</text><ellipse cx="211" cy="243.4141" fill="#84BE84" rx="3" ry="3" style="stroke: #038048; stroke-width: 1.0;"/><text fill="#000000" font-family="sans-serif" font-size="11" lengthAdjust="spacingAndGlyphs" textLength="156" x="220" y="246.6245">count(): Promise&lt;number&gt;</text><ellipse cx="211" cy="256.2188" fill="#84BE84" rx="3" ry="3" style="stroke: #038048; stroke-width: 1.0;"/><text fill="#000000" font-family="sans-serif" font-size="11" lengthAdjust="spacingAndGlyphs" textLength="139" x="220" y="259.4292">empty(): Promise&lt;void&gt;</text><ellipse cx="211" cy="269.0234" fill="#84BE84" rx="3" ry="3" style="stroke: #038048; stroke-width: 1.0;"/><text fill="#000000" font-family="sans-serif" font-size="11" lengthAdjust="spacingAndGlyphs" textLength="258" x="220" y="272.2339">getJob(jobId: string): Promise&lt;Job&lt;T&gt; | null&gt;</text><ellipse cx="211" cy="281.8281" fill="#84BE84" rx="3" ry="3" style="stroke: #038048; stroke-width: 1.0;"/><text fill="#000000" font-family="sans-serif" font-size="11" lengthAdjust="spacingAndGlyphs" textLength="139" x="220" y="285.0386">pause(): Promise&lt;void&gt;</text><ellipse cx="211" cy="294.6328" fill="#84BE84" rx="3" ry="3" style="stroke: #038048; stroke-width: 1.0;"/><text fill="#000000" font-family="sans-serif" font-size="11" lengthAdjust="spacingAndGlyphs" textLength="148" x="220" y="297.8433">resume(): Promise&lt;void&gt;</text><!--MD5=[a0be35cf66cb14f10185a0f5f6b50c44]
class RabbitMqQueue--><rect fill="#FEFECE" filter="url(#fqu2125a2s9i4)" height="99.2188" id="RabbitMqQueue" style="stroke: #A80036; stroke-width: 1.5;" width="210" x="519" y="179.5"/><ellipse cx="570.25" cy="195.5" fill="#ADD1B2" rx="11" ry="11" style="stroke: #A80036; stroke-width: 1.0;"/><path d="M572.5938,191.1719 L572.7656,191.25 C572.9844,190.9375 573.1875,190.8438 573.4844,190.8438 C573.7813,190.8438 574.0625,190.9844 574.2188,191.25 C574.3125,191.4063 574.3281,191.5313 574.3281,191.9688 L574.3281,193.3906 C574.3281,193.8125 574.2969,194 574.1875,194.1563 C574.0156,194.375 573.75,194.5156 573.4844,194.5156 C573.2656,194.5156 573.0313,194.4063 572.8906,194.2656 C572.75,194.1406 572.7188,194.0156 572.6563,193.6094 C572.5625,193.2031 572.3906,192.9844 571.9063,192.7031 C571.4375,192.4531 570.8281,192.2969 570.25,192.2969 C568.5156,192.2969 567.2656,193.6094 567.2656,195.3906 L567.2656,196.4844 C567.2656,198.1875 568.5625,199.2813 570.6094,199.2813 C571.375,199.2813 572.0625,199.1563 572.4844,198.8906 C572.6719,198.7969 572.6719,198.7969 573.125,198.3125 C573.3125,198.125 573.5156,198.0469 573.7344,198.0469 C574.2031,198.0469 574.5938,198.4375 574.5938,198.8906 C574.5938,199.2813 574.2656,199.7344 573.6875,200.1406 C572.9375,200.6875 571.7813,200.9844 570.5625,200.9844 C567.6719,200.9844 565.5625,199.0938 565.5625,196.5156 L565.5625,195.3906 C565.5625,192.6719 567.5625,190.5938 570.1875,190.5938 C571.0625,190.5938 571.6563,190.7344 572.5938,191.1719 Z "/><text fill="#000000" font-family="sans-serif" font-size="12" lengthAdjust="spacingAndGlyphs" textLength="99" x="590.75" y="199.6543">RabbitMqQueue</text><line style="stroke: #A80036; stroke-width: 1.5;" x1="520" x2="728" y1="211.5" y2="211.5"/><polygon fill="none" points="530,217.5,534,221.5,530,225.5,526,221.5" style="stroke: #B38D22; stroke-width: 1.0;"/><text fill="#000000" font-family="sans-serif" font-size="11" lengthAdjust="spacingAndGlyphs" textLength="71" x="539" y="225.7104">job : Job&lt;T&gt;</text><line style="stroke: #A80036; stroke-width: 1.5;" x1="520" x2="728" y1="232.3047" y2="232.3047"/><ellipse cx="530" cy="243.3047" fill="#84BE84" rx="3" ry="3" style="stroke: #038048; stroke-width: 1.0;"/><text fill="#000000" font-family="sans-serif" font-size="11" lengthAdjust="spacingAndGlyphs" textLength="184" x="539" y="246.5151">add(data: T): Promise&lt;Job&lt;T&gt;&gt;</text><ellipse cx="530" cy="256.1094" fill="#84BE84" rx="3" ry="3" style="stroke: #038048; stroke-width: 1.0;"/><text fill="#000000" font-family="sans-serif" font-size="11" lengthAdjust="spacingAndGlyphs" textLength="174" x="539" y="259.3198">on(event: string, cb: any): void</text><ellipse cx="530" cy="268.9141" fill="#84BE84" rx="3" ry="3" style="stroke: #038048; stroke-width: 1.0;"/><text fill="#000000" font-family="sans-serif" font-size="11" lengthAdjust="spacingAndGlyphs" textLength="139" x="539" y="272.1245">empty(): Promise&lt;void&gt;</text><!--MD5=[56e4c9075fa7c9f4c09ef0a20c49f72c]
class T--><rect fill="#FEFECE" filter="url(#fqu2125a2s9i4)" height="48" id="T" style="stroke: #A80036; stroke-width: 1.5;" width="39" x="482.5" y="498"/><ellipse cx="497.5" cy="514" fill="#ADD1B2" rx="11" ry="11" style="stroke: #A80036; stroke-width: 1.0;"/><path d="M499.8438,509.6719 L500.0156,509.75 C500.2344,509.4375 500.4375,509.3438 500.7344,509.3438 C501.0313,509.3438 501.3125,509.4844 501.4688,509.75 C501.5625,509.9063 501.5781,510.0313 501.5781,510.4688 L501.5781,511.8906 C501.5781,512.3125 501.5469,512.5 501.4375,512.6563 C501.2656,512.875 501,513.0156 500.7344,513.0156 C500.5156,513.0156 500.2813,512.9063 500.1406,512.7656 C500,512.6406 499.9688,512.5156 499.9063,512.1094 C499.8125,511.7031 499.6406,511.4844 499.1563,511.2031 C498.6875,510.9531 498.0781,510.7969 497.5,510.7969 C495.7656,510.7969 494.5156,512.1094 494.5156,513.8906 L494.5156,514.9844 C494.5156,516.6875 495.8125,517.7813 497.8594,517.7813 C498.625,517.7813 499.3125,517.6563 499.7344,517.3906 C499.9219,517.2969 499.9219,517.2969 500.375,516.8125 C500.5625,516.625 500.7656,516.5469 500.9844,516.5469 C501.4531,516.5469 501.8438,516.9375 501.8438,517.3906 C501.8438,517.7813 501.5156,518.2344 500.9375,518.6406 C500.1875,519.1875 499.0313,519.4844 497.8125,519.4844 C494.9219,519.4844 492.8125,517.5938 492.8125,515.0156 L492.8125,513.8906 C492.8125,511.1719 494.8125,509.0938 497.4375,509.0938 C498.3125,509.0938 498.9063,509.2344 499.8438,509.6719 Z "/><text fill="#000000" font-family="sans-serif" font-size="12" lengthAdjust="spacingAndGlyphs" textLength="7" x="511.5" y="518.1543">T</text><line style="stroke: #A80036; stroke-width: 1.5;" x1="483.5" x2="520.5" y1="530" y2="530"/><line style="stroke: #A80036; stroke-width: 1.5;" x1="483.5" x2="520.5" y1="538" y2="538"/><!--MD5=[32ee5a69a9ee20d8478c38a748469117]
link Job to T--><path d="M502,438.027 C502,455.4815 502,476.1458 502,492.4858 " fill="none" id="Job-&gt;T" style="stroke: #A80036; stroke-width: 1.0;"/><polygon fill="#A80036" points="502,497.8505,506,488.8505,502,492.8505,498,488.8505,502,497.8505" style="stroke: #A80036; stroke-width: 1.0;"/><!--MD5=[9f1241d54e86960ca67ef485c6738cc5]
link BullQueue to Job--><path d="M411.713,304.07 C429.876,323.369 448.759,343.432 464.532,360.19 " fill="none" id="BullQueue-&gt;Job" style="stroke: #A80036; stroke-width: 1.0;"/><polygon fill="#A80036" points="468.056,363.934,464.7988,354.6393,464.6285,360.2936,458.9742,360.1233,468.056,363.934" style="stroke: #A80036; stroke-width: 1.0;"/><!--MD5=[574116b43c18b2d57625b3854b46344d]
link BullQueue to T--><path d="M369.64,304.049 C386.204,344.857 409.061,395.673 435,438 C447.756,458.8152 465.141,480.2024 479.006,496.0527 " fill="none" id="BullQueue-&gt;T" style="stroke: #A80036; stroke-width: 1.0;"/><polygon fill="#A80036" points="482.45,499.9595,479.4999,490.5629,479.1439,496.2085,473.4983,495.8525,482.45,499.9595" style="stroke: #A80036; stroke-width: 1.0;"/><!--MD5=[7148450d206231dfe5adfa7e17653b0d]
link RabbitMqQueue to Job--><path d="M589.04,278.715 C570.602,304.407 548.258,335.543 530.825,359.834 " fill="none" id="RabbitMqQueue-&gt;Job" style="stroke: #A80036; stroke-width: 1.0;"/><polygon fill="#A80036" points="527.85,363.979,536.348,359.0007,530.7659,359.9173,529.8493,354.3352,527.85,363.979" style="stroke: #A80036; stroke-width: 1.0;"/><!--MD5=[93e4e017396363d89ea51c7d711eaf46]
link RabbitMqQueue to T--><path d="M616.696,278.686 C608.845,322.179 593.864,386.753 568,438 C556.912,459.9697 539.409,481.6259 525.213,497.306 " fill="none" id="RabbitMqQueue-&gt;T" style="stroke: #A80036; stroke-width: 1.0;"/><polygon fill="#A80036" points="521.681,501.1602,530.7108,497.228,525.0593,497.4741,524.8131,491.8227,521.681,501.1602" style="stroke: #A80036; stroke-width: 1.0;"/><!--MD5=[54620779b080b7b55f614a4cf2f3714e]
reverse link Queue to BullQueue--><path d="M534.868,105.012 C510.77,120.379 484.005,137.446 458.274,153.854 " fill="none" id="Queue&lt;-BullQueue" style="stroke: #A80036; stroke-width: 1.0;"/><polygon fill="none" points="531.264,99.008,551.891,94.156,538.792,110.812,531.264,99.008" style="stroke: #A80036; stroke-width: 1.0;"/><!--MD5=[7435912c52f4823bf790186376cb175b]
reverse link QueuePausable to BullQueue--><path d="M160.496,99.708 C184.101,116.393 211.194,135.543 237.122,153.869 " fill="none" id="QueuePausable&lt;-BullQueue" style="stroke: #A80036; stroke-width: 1.0;"/><polygon fill="none" points="156.281,105.301,143.99,88.041,164.362,93.869,156.281,105.301" style="stroke: #A80036; stroke-width: 1.0;"/><!--MD5=[19c69a98cd92abaf998ad75855a62d4e]
reverse link QueueIndexable to BullQueue--><path d="M344.043,108.156 C343.795,122.692 343.524,138.567 343.264,153.869 " fill="none" id="QueueIndexable&lt;-BullQueue" style="stroke: #A80036; stroke-width: 1.0;"/><polygon fill="none" points="337.046,107.919,344.386,88.041,351.044,108.157,337.046,107.919" style="stroke: #A80036; stroke-width: 1.0;"/><!--MD5=[a0355839adc1ef51e81e63415309a474]
reverse link Queue to RabbitMqQueue--><path d="M620.12,114.186 C620.849,135.57 621.654,159.185 622.341,179.336 " fill="none" id="Queue&lt;-RabbitMqQueue" style="stroke: #A80036; stroke-width: 1.0;"/><polygon fill="none" points="613.123,114.383,619.437,94.156,627.115,113.906,613.123,114.383" style="stroke: #A80036; stroke-width: 1.0;"/><!--MD5=[d610b6942f04ca6b27d671fbe9755503]
@startuml
interface Job{
  +jobId : string
  +data : T
}

interface Queue{
  +add(data: T): Promise<Job<T>>
  +on(event: string, cb: any): void
  +empty(): Promise<void>
}

interface QueuePausable{
  +pause(): Promise<void>
  +resume(): Promise<void>
}

interface QueueIndexable{
  +count(): Promise<number>
  +getJob(jobId: string): Promise<Job | null>
}

class BullQueue{
  #job : Job<T>
  +add(data: T): Promise<Job<T>>
  +on(event: string, cb: any): void
  +count(): Promise<number>
  +empty(): Promise<void>
  +getJob(jobId: string): Promise<Job<T> | null>
  +pause(): Promise<void>
  +resume(): Promise<void>
}

class RabbitMqQueue{
  #job : Job<T>
  +add(data: T): Promise<Job<T>>
  +on(event: string, cb: any): void
  +empty(): Promise<void>
}

Job - -> T
BullQueue - -> Job
BullQueue - -> T
RabbitMqQueue - -> Job
RabbitMqQueue - -> T
Queue <|- - BullQueue
QueuePausable <|- - BullQueue
QueueIndexable <|- - BullQueue
Queue <|- - RabbitMqQueue
@enduml

PlantUML version 1.2019.11(Sun Sep 22 10:02:15 UTC 2019)
(GPL source distribution)
Java Runtime: Java(TM) SE Runtime Environment
JVM: Java HotSpot(TM) 64-Bit Server VM
Java Version: 1.7.0_25-b15
Operating System: Linux
Default Encoding: UTF-8
Language: en
Country: US
--></g></svg>