<?xml version="1.0" encoding="UTF-8" standalone="no"?><svg xmlns="http://www.w3.org/2000/svg" xmlns:xlink="http://www.w3.org/1999/xlink" contentScriptType="application/ecmascript" contentStyleType="text/css" height="532px" preserveAspectRatio="none" style="width:913px;height:532px;" version="1.1" viewBox="0 0 913 532" width="913px" zoomAndPan="magnify"><defs><filter height="300%" id="fra0jtj4gzzyi" width="300%" x="-1" y="-1"><feGaussianBlur result="blurOut" stdDeviation="2.0"/><feColorMatrix in="blurOut" result="blurOut2" type="matrix" values="0 0 0 0 0 0 0 0 0 0 0 0 0 0 0 0 0 0 .4 0"/><feOffset dx="4.0" dy="4.0" in="blurOut2" result="blurOut3"/><feBlend in="SourceGraphic" in2="blurOut3" mode="normal"/></filter></defs><g><!--MD5=[e86a4777f2c0372cf9fb3cd047e1466e]
class Reader--><rect fill="#FEFECE" filter="url(#fra0jtj4gzzyi)" height="60.8047" id="Reader" style="stroke: #A80036; stroke-width: 1.5;" width="138" x="417" y="8"/><ellipse cx="459.45" cy="24" fill="#B4A7E5" rx="11" ry="11" style="stroke: #A80036; stroke-width: 1.0;"/><path d="M460.4031,20.7813 L460.4031,27.2969 L462.1219,27.2969 C462.575,27.2969 462.7156,27.3281 462.8875,27.4531 C463.1219,27.625 463.2313,27.875 463.2313,28.1563 C463.2313,28.7188 462.8719,29 462.1219,29 L456.9813,29 C456.575,29 456.3719,28.9531 456.2156,28.8281 C455.9969,28.6719 455.8563,28.4063 455.8563,28.1563 C455.8563,27.8594 456.0125,27.5781 456.2625,27.4219 C456.4188,27.3125 456.5438,27.2969 456.9813,27.2969 L458.7,27.2969 L458.7,20.7813 L456.9813,20.7813 C456.5594,20.7813 456.3719,20.75 456.2156,20.6406 C455.9969,20.4688 455.8563,20.2188 455.8563,19.9375 C455.8563,19.6563 456.0125,19.3594 456.2625,19.2031 C456.4188,19.1094 456.5438,19.0938 456.9813,19.0938 L462.1219,19.0938 C462.575,19.0938 462.7156,19.125 462.8875,19.2344 C463.1219,19.4063 463.2313,19.6719 463.2313,19.9375 C463.2313,20.2344 463.0906,20.5156 462.825,20.6719 C462.7,20.75 462.5125,20.7813 462.1219,20.7813 Z "/><text fill="#000000" font-family="sans-serif" font-size="12" font-style="italic" lengthAdjust="spacingAndGlyphs" textLength="45" x="479.55" y="28.1543">Reader</text><line style="stroke: #A80036; stroke-width: 1.5;" x1="418" x2="554" y1="40" y2="40"/><line style="stroke: #A80036; stroke-width: 1.5;" x1="418" x2="554" y1="48" y2="48"/><ellipse cx="428" cy="59" fill="#84BE84" rx="3" ry="3" style="stroke: #038048; stroke-width: 1.0;"/><text fill="#000000" font-family="sans-serif" font-size="11" lengthAdjust="spacingAndGlyphs" textLength="112" x="437" y="62.2104">read(): ReadStream</text><!--MD5=[d80f71a20ad5bc844207fdd4e8cd5494]
class FileReader--><rect fill="#FEFECE" filter="url(#fra0jtj4gzzyi)" height="73.6094" id="FileReader" style="stroke: #A80036; stroke-width: 1.5;" width="149" x="168.5" y="129"/><ellipse cx="206.45" cy="145" fill="#ADD1B2" rx="11" ry="11" style="stroke: #A80036; stroke-width: 1.0;"/><path d="M208.7938,140.6719 L208.9656,140.75 C209.1844,140.4375 209.3875,140.3438 209.6844,140.3438 C209.9813,140.3438 210.2625,140.4844 210.4188,140.75 C210.5125,140.9063 210.5281,141.0313 210.5281,141.4688 L210.5281,142.8906 C210.5281,143.3125 210.4969,143.5 210.3875,143.6563 C210.2156,143.875 209.95,144.0156 209.6844,144.0156 C209.4656,144.0156 209.2313,143.9063 209.0906,143.7656 C208.95,143.6406 208.9188,143.5156 208.8563,143.1094 C208.7625,142.7031 208.5906,142.4844 208.1063,142.2031 C207.6375,141.9531 207.0281,141.7969 206.45,141.7969 C204.7156,141.7969 203.4656,143.1094 203.4656,144.8906 L203.4656,145.9844 C203.4656,147.6875 204.7625,148.7813 206.8094,148.7813 C207.575,148.7813 208.2625,148.6563 208.6844,148.3906 C208.8719,148.2969 208.8719,148.2969 209.325,147.8125 C209.5125,147.625 209.7156,147.5469 209.9344,147.5469 C210.4031,147.5469 210.7938,147.9375 210.7938,148.3906 C210.7938,148.7813 210.4656,149.2344 209.8875,149.6406 C209.1375,150.1875 207.9813,150.4844 206.7625,150.4844 C203.8719,150.4844 201.7625,148.5938 201.7625,146.0156 L201.7625,144.8906 C201.7625,142.1719 203.7625,140.0938 206.3875,140.0938 C207.2625,140.0938 207.8563,140.2344 208.7938,140.6719 Z "/><text fill="#000000" font-family="sans-serif" font-size="12" lengthAdjust="spacingAndGlyphs" textLength="66" x="225.55" y="149.1543">FileReader</text><line style="stroke: #A80036; stroke-width: 1.5;" x1="169.5" x2="316.5" y1="161" y2="161"/><polygon fill="none" points="179.5,167,183.5,171,179.5,175,175.5,171" style="stroke: #B38D22; stroke-width: 1.0;"/><text fill="#000000" font-family="sans-serif" font-size="11" lengthAdjust="spacingAndGlyphs" textLength="123" x="188.5" y="175.2104">opts : FileReaderOpts</text><line style="stroke: #A80036; stroke-width: 1.5;" x1="169.5" x2="316.5" y1="181.8047" y2="181.8047"/><ellipse cx="179.5" cy="192.8047" fill="#84BE84" rx="3" ry="3" style="stroke: #038048; stroke-width: 1.0;"/><text fill="#000000" font-family="sans-serif" font-size="11" lengthAdjust="spacingAndGlyphs" textLength="112" x="188.5" y="196.0151">read(): ReadStream</text><!--MD5=[533e628d7827ea8acf380eacce805239]
class FsFileReader--><rect fill="#FEFECE" filter="url(#fra0jtj4gzzyi)" height="60.8047" id="FsFileReader" style="stroke: #A80036; stroke-width: 1.5;" width="138" x="6" y="295"/><ellipse cx="32.7" cy="311" fill="#ADD1B2" rx="11" ry="11" style="stroke: #A80036; stroke-width: 1.0;"/><path d="M35.0438,306.6719 L35.2156,306.75 C35.4344,306.4375 35.6375,306.3438 35.9344,306.3438 C36.2313,306.3438 36.5125,306.4844 36.6688,306.75 C36.7625,306.9063 36.7781,307.0313 36.7781,307.4688 L36.7781,308.8906 C36.7781,309.3125 36.7469,309.5 36.6375,309.6563 C36.4656,309.875 36.2,310.0156 35.9344,310.0156 C35.7156,310.0156 35.4813,309.9063 35.3406,309.7656 C35.2,309.6406 35.1688,309.5156 35.1063,309.1094 C35.0125,308.7031 34.8406,308.4844 34.3563,308.2031 C33.8875,307.9531 33.2781,307.7969 32.7,307.7969 C30.9656,307.7969 29.7156,309.1094 29.7156,310.8906 L29.7156,311.9844 C29.7156,313.6875 31.0125,314.7813 33.0594,314.7813 C33.825,314.7813 34.5125,314.6563 34.9344,314.3906 C35.1219,314.2969 35.1219,314.2969 35.575,313.8125 C35.7625,313.625 35.9656,313.5469 36.1844,313.5469 C36.6531,313.5469 37.0438,313.9375 37.0438,314.3906 C37.0438,314.7813 36.7156,315.2344 36.1375,315.6406 C35.3875,316.1875 34.2313,316.4844 33.0125,316.4844 C30.1219,316.4844 28.0125,314.5938 28.0125,312.0156 L28.0125,310.8906 C28.0125,308.1719 30.0125,306.0938 32.6375,306.0938 C33.5125,306.0938 34.1063,306.2344 35.0438,306.6719 Z "/><text fill="#000000" font-family="sans-serif" font-size="12" lengthAdjust="spacingAndGlyphs" textLength="80" x="49.3" y="315.1543">FsFileReader</text><line style="stroke: #A80036; stroke-width: 1.5;" x1="7" x2="143" y1="327" y2="327"/><line style="stroke: #A80036; stroke-width: 1.5;" x1="7" x2="143" y1="335" y2="335"/><ellipse cx="17" cy="346" fill="#84BE84" rx="3" ry="3" style="stroke: #038048; stroke-width: 1.0;"/><text fill="#000000" font-family="sans-serif" font-size="11" lengthAdjust="spacingAndGlyphs" textLength="112" x="26" y="349.2104">read(): ReadStream</text><!--MD5=[cf87c32fb8f54c862c9fa097bf896e04]
class FileReaderOpts--><rect fill="#FEFECE" filter="url(#fra0jtj4gzzyi)" height="73.6094" id="FileReaderOpts" style="stroke: #A80036; stroke-width: 1.5;" width="127" x="179.5" y="288.5"/><ellipse cx="195.4" cy="304.5" fill="#B4A7E5" rx="11" ry="11" style="stroke: #A80036; stroke-width: 1.0;"/><path d="M196.3531,301.2813 L196.3531,307.7969 L198.0719,307.7969 C198.525,307.7969 198.6656,307.8281 198.8375,307.9531 C199.0719,308.125 199.1813,308.375 199.1813,308.6563 C199.1813,309.2188 198.8219,309.5 198.0719,309.5 L192.9313,309.5 C192.525,309.5 192.3219,309.4531 192.1656,309.3281 C191.9469,309.1719 191.8063,308.9063 191.8063,308.6563 C191.8063,308.3594 191.9625,308.0781 192.2125,307.9219 C192.3688,307.8125 192.4938,307.7969 192.9313,307.7969 L194.65,307.7969 L194.65,301.2813 L192.9313,301.2813 C192.5094,301.2813 192.3219,301.25 192.1656,301.1406 C191.9469,300.9688 191.8063,300.7188 191.8063,300.4375 C191.8063,300.1563 191.9625,299.8594 192.2125,299.7031 C192.3688,299.6094 192.4938,299.5938 192.9313,299.5938 L198.0719,299.5938 C198.525,299.5938 198.6656,299.625 198.8375,299.7344 C199.0719,299.9063 199.1813,300.1719 199.1813,300.4375 C199.1813,300.7344 199.0406,301.0156 198.775,301.1719 C198.65,301.25 198.4625,301.2813 198.0719,301.2813 Z "/><text fill="#000000" font-family="sans-serif" font-size="12" font-style="italic" lengthAdjust="spacingAndGlyphs" textLength="93" x="209.6" y="308.6543">FileReaderOpts</text><line style="stroke: #A80036; stroke-width: 1.5;" x1="180.5" x2="305.5" y1="320.5" y2="320.5"/><ellipse cx="190.5" cy="331.5" fill="none" rx="3" ry="3" style="stroke: #038048; stroke-width: 1.0;"/><text fill="#000000" font-family="sans-serif" font-size="11" lengthAdjust="spacingAndGlyphs" textLength="70" x="199.5" y="334.7104">path : string</text><ellipse cx="190.5" cy="344.3047" fill="none" rx="3" ry="3" style="stroke: #038048; stroke-width: 1.0;"/><text fill="#000000" font-family="sans-serif" font-size="11" lengthAdjust="spacingAndGlyphs" textLength="101" x="199.5" y="347.5151">columns : string[]</text><line style="stroke: #A80036; stroke-width: 1.5;" x1="180.5" x2="305.5" y1="354.1094" y2="354.1094"/><!--MD5=[00b7dba86d3178bdbd955e51313f6f2a]
class ServerConnection--><rect fill="#FEFECE" filter="url(#fra0jtj4gzzyi)" height="73.6094" id="ServerConnection" style="stroke: #A80036; stroke-width: 1.5;" width="143" x="629.5" y="448"/><ellipse cx="644.5" cy="464" fill="#B4A7E5" rx="11" ry="11" style="stroke: #A80036; stroke-width: 1.0;"/><path d="M645.4531,460.7813 L645.4531,467.2969 L647.1719,467.2969 C647.625,467.2969 647.7656,467.3281 647.9375,467.4531 C648.1719,467.625 648.2813,467.875 648.2813,468.1563 C648.2813,468.7188 647.9219,469 647.1719,469 L642.0313,469 C641.625,469 641.4219,468.9531 641.2656,468.8281 C641.0469,468.6719 640.9063,468.4063 640.9063,468.1563 C640.9063,467.8594 641.0625,467.5781 641.3125,467.4219 C641.4688,467.3125 641.5938,467.2969 642.0313,467.2969 L643.75,467.2969 L643.75,460.7813 L642.0313,460.7813 C641.6094,460.7813 641.4219,460.75 641.2656,460.6406 C641.0469,460.4688 640.9063,460.2188 640.9063,459.9375 C640.9063,459.6563 641.0625,459.3594 641.3125,459.2031 C641.4688,459.1094 641.5938,459.0938 642.0313,459.0938 L647.1719,459.0938 C647.625,459.0938 647.7656,459.125 647.9375,459.2344 C648.1719,459.4063 648.2813,459.6719 648.2813,459.9375 C648.2813,460.2344 648.1406,460.5156 647.875,460.6719 C647.75,460.75 647.5625,460.7813 647.1719,460.7813 Z "/><text fill="#000000" font-family="sans-serif" font-size="12" font-style="italic" lengthAdjust="spacingAndGlyphs" textLength="111" x="658.5" y="468.1543">ServerConnection</text><line style="stroke: #A80036; stroke-width: 1.5;" x1="630.5" x2="771.5" y1="480" y2="480"/><ellipse cx="640.5" cy="491" fill="none" rx="3" ry="3" style="stroke: #038048; stroke-width: 1.0;"/><text fill="#000000" font-family="sans-serif" font-size="11" lengthAdjust="spacingAndGlyphs" textLength="70" x="649.5" y="494.2104">host : string</text><ellipse cx="640.5" cy="503.8047" fill="none" rx="3" ry="3" style="stroke: #038048; stroke-width: 1.0;"/><text fill="#000000" font-family="sans-serif" font-size="11" lengthAdjust="spacingAndGlyphs" textLength="79" x="649.5" y="507.0151">port : number</text><line style="stroke: #A80036; stroke-width: 1.5;" x1="630.5" x2="771.5" y1="513.6094" y2="513.6094"/><!--MD5=[ba8d606bf8540925d33863eab0db9367]
class EsReaderOptions--><rect fill="#FEFECE" filter="url(#fra0jtj4gzzyi)" height="73.6094" id="EsReaderOptions" style="stroke: #A80036; stroke-width: 1.5;" width="176" x="726" y="288.5"/><ellipse cx="758.55" cy="304.5" fill="#B4A7E5" rx="11" ry="11" style="stroke: #A80036; stroke-width: 1.0;"/><path d="M759.5031,301.2813 L759.5031,307.7969 L761.2219,307.7969 C761.675,307.7969 761.8156,307.8281 761.9875,307.9531 C762.2219,308.125 762.3313,308.375 762.3313,308.6563 C762.3313,309.2188 761.9719,309.5 761.2219,309.5 L756.0813,309.5 C755.675,309.5 755.4719,309.4531 755.3156,309.3281 C755.0969,309.1719 754.9563,308.9063 754.9563,308.6563 C754.9563,308.3594 755.1125,308.0781 755.3625,307.9219 C755.5188,307.8125 755.6438,307.7969 756.0813,307.7969 L757.8,307.7969 L757.8,301.2813 L756.0813,301.2813 C755.6594,301.2813 755.4719,301.25 755.3156,301.1406 C755.0969,300.9688 754.9563,300.7188 754.9563,300.4375 C754.9563,300.1563 755.1125,299.8594 755.3625,299.7031 C755.5188,299.6094 755.6438,299.5938 756.0813,299.5938 L761.2219,299.5938 C761.675,299.5938 761.8156,299.625 761.9875,299.7344 C762.2219,299.9063 762.3313,300.1719 762.3313,300.4375 C762.3313,300.7344 762.1906,301.0156 761.925,301.1719 C761.8,301.25 761.6125,301.2813 761.2219,301.2813 Z "/><text fill="#000000" font-family="sans-serif" font-size="12" font-style="italic" lengthAdjust="spacingAndGlyphs" textLength="105" x="776.45" y="308.6543">EsReaderOptions</text><line style="stroke: #A80036; stroke-width: 1.5;" x1="727" x2="901" y1="320.5" y2="320.5"/><ellipse cx="737" cy="331.5" fill="none" rx="3" ry="3" style="stroke: #038048; stroke-width: 1.0;"/><text fill="#000000" font-family="sans-serif" font-size="11" lengthAdjust="spacingAndGlyphs" textLength="150" x="746" y="334.7104">server : ServerConnection</text><ellipse cx="737" cy="344.3047" fill="none" rx="3" ry="3" style="stroke: #038048; stroke-width: 1.0;"/><text fill="#000000" font-family="sans-serif" font-size="11" lengthAdjust="spacingAndGlyphs" textLength="75" x="746" y="347.5151">index : string</text><line style="stroke: #A80036; stroke-width: 1.5;" x1="727" x2="901" y1="354.1094" y2="354.1094"/><!--MD5=[13c8e4062fef325b0b1b89b2807e0d81]
class RdbmsReaderOptions--><rect fill="#FEFECE" filter="url(#fra0jtj4gzzyi)" height="124.8281" id="RdbmsReaderOptions" style="stroke: #A80036; stroke-width: 1.5;" width="176" x="342" y="263"/><ellipse cx="362.4" cy="279" fill="#B4A7E5" rx="11" ry="11" style="stroke: #A80036; stroke-width: 1.0;"/><path d="M363.3531,275.7813 L363.3531,282.2969 L365.0719,282.2969 C365.525,282.2969 365.6656,282.3281 365.8375,282.4531 C366.0719,282.625 366.1813,282.875 366.1813,283.1563 C366.1813,283.7188 365.8219,284 365.0719,284 L359.9313,284 C359.525,284 359.3219,283.9531 359.1656,283.8281 C358.9469,283.6719 358.8063,283.4063 358.8063,283.1563 C358.8063,282.8594 358.9625,282.5781 359.2125,282.4219 C359.3688,282.3125 359.4938,282.2969 359.9313,282.2969 L361.65,282.2969 L361.65,275.7813 L359.9313,275.7813 C359.5094,275.7813 359.3219,275.75 359.1656,275.6406 C358.9469,275.4688 358.8063,275.2188 358.8063,274.9375 C358.8063,274.6563 358.9625,274.3594 359.2125,274.2031 C359.3688,274.1094 359.4938,274.0938 359.9313,274.0938 L365.0719,274.0938 C365.525,274.0938 365.6656,274.125 365.8375,274.2344 C366.0719,274.4063 366.1813,274.6719 366.1813,274.9375 C366.1813,275.2344 366.0406,275.5156 365.775,275.6719 C365.65,275.75 365.4625,275.7813 365.0719,275.7813 Z "/><text fill="#000000" font-family="sans-serif" font-size="12" font-style="italic" lengthAdjust="spacingAndGlyphs" textLength="132" x="377.6" y="283.1543">RdbmsReaderOptions</text><line style="stroke: #A80036; stroke-width: 1.5;" x1="343" x2="517" y1="295" y2="295"/><ellipse cx="353" cy="306" fill="none" rx="3" ry="3" style="stroke: #038048; stroke-width: 1.0;"/><text fill="#000000" font-family="sans-serif" font-size="11" lengthAdjust="spacingAndGlyphs" textLength="119" x="362" y="309.2104">dbType : RdbmsType</text><ellipse cx="353" cy="318.8047" fill="none" rx="3" ry="3" style="stroke: #038048; stroke-width: 1.0;"/><text fill="#000000" font-family="sans-serif" font-size="11" lengthAdjust="spacingAndGlyphs" textLength="150" x="362" y="322.0151">server : ServerConnection</text><ellipse cx="353" cy="331.6094" fill="none" rx="3" ry="3" style="stroke: #038048; stroke-width: 1.0;"/><text fill="#000000" font-family="sans-serif" font-size="11" lengthAdjust="spacingAndGlyphs" textLength="103" x="362" y="334.8198">username : string</text><ellipse cx="353" cy="344.4141" fill="none" rx="3" ry="3" style="stroke: #038048; stroke-width: 1.0;"/><text fill="#000000" font-family="sans-serif" font-size="11" lengthAdjust="spacingAndGlyphs" textLength="101" x="362" y="347.6245">password : string</text><ellipse cx="353" cy="357.2188" fill="none" rx="3" ry="3" style="stroke: #038048; stroke-width: 1.0;"/><text fill="#000000" font-family="sans-serif" font-size="11" lengthAdjust="spacingAndGlyphs" textLength="98" x="362" y="360.4292">database : string</text><ellipse cx="353" cy="370.0234" fill="none" rx="3" ry="3" style="stroke: #038048; stroke-width: 1.0;"/><text fill="#000000" font-family="sans-serif" font-size="11" lengthAdjust="spacingAndGlyphs" textLength="73" x="362" y="373.2339">table : string</text><line style="stroke: #A80036; stroke-width: 1.5;" x1="343" x2="517" y1="379.8281" y2="379.8281"/><!--MD5=[26782253a06af51fc82fcfed051a34b6]
class RdbmsReader--><rect fill="#FEFECE" filter="url(#fra0jtj4gzzyi)" height="73.6094" id="RdbmsReader" style="stroke: #A80036; stroke-width: 1.5;" width="186" x="393" y="129"/><ellipse cx="438.25" cy="145" fill="#ADD1B2" rx="11" ry="11" style="stroke: #A80036; stroke-width: 1.0;"/><path d="M440.5938,140.6719 L440.7656,140.75 C440.9844,140.4375 441.1875,140.3438 441.4844,140.3438 C441.7813,140.3438 442.0625,140.4844 442.2188,140.75 C442.3125,140.9063 442.3281,141.0313 442.3281,141.4688 L442.3281,142.8906 C442.3281,143.3125 442.2969,143.5 442.1875,143.6563 C442.0156,143.875 441.75,144.0156 441.4844,144.0156 C441.2656,144.0156 441.0313,143.9063 440.8906,143.7656 C440.75,143.6406 440.7188,143.5156 440.6563,143.1094 C440.5625,142.7031 440.3906,142.4844 439.9063,142.2031 C439.4375,141.9531 438.8281,141.7969 438.25,141.7969 C436.5156,141.7969 435.2656,143.1094 435.2656,144.8906 L435.2656,145.9844 C435.2656,147.6875 436.5625,148.7813 438.6094,148.7813 C439.375,148.7813 440.0625,148.6563 440.4844,148.3906 C440.6719,148.2969 440.6719,148.2969 441.125,147.8125 C441.3125,147.625 441.5156,147.5469 441.7344,147.5469 C442.2031,147.5469 442.5938,147.9375 442.5938,148.3906 C442.5938,148.7813 442.2656,149.2344 441.6875,149.6406 C440.9375,150.1875 439.7813,150.4844 438.5625,150.4844 C435.6719,150.4844 433.5625,148.5938 433.5625,146.0156 L433.5625,144.8906 C433.5625,142.1719 435.5625,140.0938 438.1875,140.0938 C439.0625,140.0938 439.6563,140.2344 440.5938,140.6719 Z "/><text fill="#000000" font-family="sans-serif" font-size="12" lengthAdjust="spacingAndGlyphs" textLength="87" x="458.75" y="149.1543">RdbmsReader</text><line style="stroke: #A80036; stroke-width: 1.5;" x1="394" x2="578" y1="161" y2="161"/><polygon fill="none" points="404,167,408,171,404,175,400,171" style="stroke: #B38D22; stroke-width: 1.0;"/><text fill="#000000" font-family="sans-serif" font-size="11" lengthAdjust="spacingAndGlyphs" textLength="160" x="413" y="175.2104">opts : RdbmsReaderOptions</text><line style="stroke: #A80036; stroke-width: 1.5;" x1="394" x2="578" y1="181.8047" y2="181.8047"/><ellipse cx="404" cy="192.8047" fill="#84BE84" rx="3" ry="3" style="stroke: #038048; stroke-width: 1.0;"/><text fill="#000000" font-family="sans-serif" font-size="11" lengthAdjust="spacingAndGlyphs" textLength="112" x="413" y="196.0151">read(): ReadStream</text><!--MD5=[41d1bb4e662310bbf0f2d2e998d9ba28]
class TypeOrmReader--><rect fill="#FEFECE" filter="url(#fra0jtj4gzzyi)" height="60.8047" id="TypeOrmReader" style="stroke: #A80036; stroke-width: 1.5;" width="138" x="553" y="295"/><ellipse cx="571.15" cy="311" fill="#ADD1B2" rx="11" ry="11" style="stroke: #A80036; stroke-width: 1.0;"/><path d="M573.4938,306.6719 L573.6656,306.75 C573.8844,306.4375 574.0875,306.3438 574.3844,306.3438 C574.6813,306.3438 574.9625,306.4844 575.1188,306.75 C575.2125,306.9063 575.2281,307.0313 575.2281,307.4688 L575.2281,308.8906 C575.2281,309.3125 575.1969,309.5 575.0875,309.6563 C574.9156,309.875 574.65,310.0156 574.3844,310.0156 C574.1656,310.0156 573.9313,309.9063 573.7906,309.7656 C573.65,309.6406 573.6188,309.5156 573.5563,309.1094 C573.4625,308.7031 573.2906,308.4844 572.8063,308.2031 C572.3375,307.9531 571.7281,307.7969 571.15,307.7969 C569.4156,307.7969 568.1656,309.1094 568.1656,310.8906 L568.1656,311.9844 C568.1656,313.6875 569.4625,314.7813 571.5094,314.7813 C572.275,314.7813 572.9625,314.6563 573.3844,314.3906 C573.5719,314.2969 573.5719,314.2969 574.025,313.8125 C574.2125,313.625 574.4156,313.5469 574.6344,313.5469 C575.1031,313.5469 575.4938,313.9375 575.4938,314.3906 C575.4938,314.7813 575.1656,315.2344 574.5875,315.6406 C573.8375,316.1875 572.6813,316.4844 571.4625,316.4844 C568.5719,316.4844 566.4625,314.5938 566.4625,312.0156 L566.4625,310.8906 C566.4625,308.1719 568.4625,306.0938 571.0875,306.0938 C571.9625,306.0938 572.5563,306.2344 573.4938,306.6719 Z "/><text fill="#000000" font-family="sans-serif" font-size="12" lengthAdjust="spacingAndGlyphs" textLength="99" x="585.85" y="315.1543">TypeOrmReader</text><line style="stroke: #A80036; stroke-width: 1.5;" x1="554" x2="690" y1="327" y2="327"/><line style="stroke: #A80036; stroke-width: 1.5;" x1="554" x2="690" y1="335" y2="335"/><ellipse cx="564" cy="346" fill="#84BE84" rx="3" ry="3" style="stroke: #038048; stroke-width: 1.0;"/><text fill="#000000" font-family="sans-serif" font-size="11" lengthAdjust="spacingAndGlyphs" textLength="112" x="573" y="349.2104">read(): ReadStream</text><!--MD5=[894c8cfd78efea155d26dfc50c36033d]
class EsReader--><rect fill="#FEFECE" filter="url(#fra0jtj4gzzyi)" height="73.6094" id="EsReader" style="stroke: #A80036; stroke-width: 1.5;" width="161" x="693.5" y="129"/><ellipse cx="739.75" cy="145" fill="#ADD1B2" rx="11" ry="11" style="stroke: #A80036; stroke-width: 1.0;"/><path d="M742.0938,140.6719 L742.2656,140.75 C742.4844,140.4375 742.6875,140.3438 742.9844,140.3438 C743.2813,140.3438 743.5625,140.4844 743.7188,140.75 C743.8125,140.9063 743.8281,141.0313 743.8281,141.4688 L743.8281,142.8906 C743.8281,143.3125 743.7969,143.5 743.6875,143.6563 C743.5156,143.875 743.25,144.0156 742.9844,144.0156 C742.7656,144.0156 742.5313,143.9063 742.3906,143.7656 C742.25,143.6406 742.2188,143.5156 742.1563,143.1094 C742.0625,142.7031 741.8906,142.4844 741.4063,142.2031 C740.9375,141.9531 740.3281,141.7969 739.75,141.7969 C738.0156,141.7969 736.7656,143.1094 736.7656,144.8906 L736.7656,145.9844 C736.7656,147.6875 738.0625,148.7813 740.1094,148.7813 C740.875,148.7813 741.5625,148.6563 741.9844,148.3906 C742.1719,148.2969 742.1719,148.2969 742.625,147.8125 C742.8125,147.625 743.0156,147.5469 743.2344,147.5469 C743.7031,147.5469 744.0938,147.9375 744.0938,148.3906 C744.0938,148.7813 743.7656,149.2344 743.1875,149.6406 C742.4375,150.1875 741.2813,150.4844 740.0625,150.4844 C737.1719,150.4844 735.0625,148.5938 735.0625,146.0156 L735.0625,144.8906 C735.0625,142.1719 737.0625,140.0938 739.6875,140.0938 C740.5625,140.0938 741.1563,140.2344 742.0938,140.6719 Z "/><text fill="#000000" font-family="sans-serif" font-size="12" lengthAdjust="spacingAndGlyphs" textLength="60" x="760.25" y="149.1543">EsReader</text><line style="stroke: #A80036; stroke-width: 1.5;" x1="694.5" x2="853.5" y1="161" y2="161"/><polygon fill="none" points="704.5,167,708.5,171,704.5,175,700.5,171" style="stroke: #B38D22; stroke-width: 1.0;"/><text fill="#000000" font-family="sans-serif" font-size="11" lengthAdjust="spacingAndGlyphs" textLength="135" x="713.5" y="175.2104">opts : EsReaderOptions</text><line style="stroke: #A80036; stroke-width: 1.5;" x1="694.5" x2="853.5" y1="181.8047" y2="181.8047"/><ellipse cx="704.5" cy="192.8047" fill="#84BE84" rx="3" ry="3" style="stroke: #038048; stroke-width: 1.0;"/><text fill="#000000" font-family="sans-serif" font-size="11" lengthAdjust="spacingAndGlyphs" textLength="112" x="713.5" y="196.0151">read(): ReadStream</text><!--MD5=[482c11b555bfc1a20e46c63a58c2b3e5]
class RdbmsType--><rect fill="#FEFECE" filter="url(#fra0jtj4gzzyi)" height="48" id="RdbmsType" style="stroke: #A80036; stroke-width: 1.5;" width="103" x="378.5" y="461"/><ellipse cx="393.5" cy="477" fill="#ADD1B2" rx="11" ry="11" style="stroke: #A80036; stroke-width: 1.0;"/><path d="M395.8438,472.6719 L396.0156,472.75 C396.2344,472.4375 396.4375,472.3438 396.7344,472.3438 C397.0313,472.3438 397.3125,472.4844 397.4688,472.75 C397.5625,472.9063 397.5781,473.0313 397.5781,473.4688 L397.5781,474.8906 C397.5781,475.3125 397.5469,475.5 397.4375,475.6563 C397.2656,475.875 397,476.0156 396.7344,476.0156 C396.5156,476.0156 396.2813,475.9063 396.1406,475.7656 C396,475.6406 395.9688,475.5156 395.9063,475.1094 C395.8125,474.7031 395.6406,474.4844 395.1563,474.2031 C394.6875,473.9531 394.0781,473.7969 393.5,473.7969 C391.7656,473.7969 390.5156,475.1094 390.5156,476.8906 L390.5156,477.9844 C390.5156,479.6875 391.8125,480.7813 393.8594,480.7813 C394.625,480.7813 395.3125,480.6563 395.7344,480.3906 C395.9219,480.2969 395.9219,480.2969 396.375,479.8125 C396.5625,479.625 396.7656,479.5469 396.9844,479.5469 C397.4531,479.5469 397.8438,479.9375 397.8438,480.3906 C397.8438,480.7813 397.5156,481.2344 396.9375,481.6406 C396.1875,482.1875 395.0313,482.4844 393.8125,482.4844 C390.9219,482.4844 388.8125,480.5938 388.8125,478.0156 L388.8125,476.8906 C388.8125,474.1719 390.8125,472.0938 393.4375,472.0938 C394.3125,472.0938 394.9063,472.2344 395.8438,472.6719 Z "/><text fill="#000000" font-family="sans-serif" font-size="12" lengthAdjust="spacingAndGlyphs" textLength="71" x="407.5" y="481.1543">RdbmsType</text><line style="stroke: #A80036; stroke-width: 1.5;" x1="379.5" x2="480.5" y1="493" y2="493"/><line style="stroke: #A80036; stroke-width: 1.5;" x1="379.5" x2="480.5" y1="501" y2="501"/><!--MD5=[33eb65308387b7d0fd1f6016d977d70b]
link FileReader to FileReaderOpts--><path d="M243,203.134 C243,226.959 243,258.232 243,283.066 " fill="none" id="FileReader-&gt;FileReaderOpts" style="stroke: #A80036; stroke-width: 1.0;"/><polygon fill="#A80036" points="243,288.262,247,279.262,243,283.262,239,279.262,243,288.262" style="stroke: #A80036; stroke-width: 1.0;"/><!--MD5=[475a709c0892b978c7139f130b1483f3]
link EsReaderOptions to ServerConnection--><path d="M788.076,362.634 C770.767,386.758 747.98,418.518 730.059,443.4977 " fill="none" id="EsReaderOptions-&gt;ServerConnection" style="stroke: #A80036; stroke-width: 1.0;"/><polygon fill="#A80036" points="726.999,447.7621,735.4955,442.7812,729.9137,443.6995,728.9953,438.1177,726.999,447.7621" style="stroke: #A80036; stroke-width: 1.0;"/><!--MD5=[d0d504930877a80e2c20f74e30376e12]
link RdbmsReaderOptions to RdbmsType--><path d="M430,388.296 C430,411.613 430,437.0124 430,455.7817 " fill="none" id="RdbmsReaderOptions-&gt;RdbmsType" style="stroke: #A80036; stroke-width: 1.0;"/><polygon fill="#A80036" points="430,460.8925,434,451.8925,430,455.8925,426,451.8925,430,460.8925" style="stroke: #A80036; stroke-width: 1.0;"/><!--MD5=[0c78beb7a05a1bbd8313795f91e30796]
link RdbmsReaderOptions to ServerConnection--><path d="M518.205,378.21 C523.887,381.527 529.522,384.812 535,388 C567.498,406.914 603.632,427.8252 633.869,445.2895 " fill="none" id="RdbmsReaderOptions-&gt;ServerConnection" style="stroke: #A80036; stroke-width: 1.0;"/><polygon fill="#A80036" points="638.286,447.8405,632.4921,439.8762,633.956,445.3403,628.4918,446.8042,638.286,447.8405" style="stroke: #A80036; stroke-width: 1.0;"/><!--MD5=[0bbac517a1e2ee6b3987710a7f268857]
link RdbmsReader to RdbmsReaderOptions--><path d="M473.152,203.134 C467.348,219.46 460.299,239.283 453.596,258.135 " fill="none" id="RdbmsReader-&gt;RdbmsReaderOptions" style="stroke: #A80036; stroke-width: 1.0;"/><polygon fill="#A80036" points="451.901,262.904,458.6837,255.763,453.5753,258.1926,451.1456,253.0842,451.901,262.904" style="stroke: #A80036; stroke-width: 1.0;"/><!--MD5=[f8a6074f76e04ebcf090873e1aded884]
link EsReader to EsReaderOptions--><path d="M783.177,203.134 C789.253,227.059 797.237,258.494 803.556,283.377 " fill="none" id="EsReader-&gt;EsReaderOptions" style="stroke: #A80036; stroke-width: 1.0;"/><polygon fill="#A80036" points="804.797,288.262,806.4571,278.5541,803.5655,283.416,798.7035,280.5244,804.797,288.262" style="stroke: #A80036; stroke-width: 1.0;"/><!--MD5=[60e2b2a0152a60d04b19689278ab1ede]
reverse link Reader to FileReader--><path d="M410.949,78.261 C379.688,94.406 343.597,113.046 312.902,128.898 " fill="none" id="Reader&lt;-FileReader" style="stroke: #A80036; stroke-width: 1.0;"/><polygon fill="none" points="407.738,72.041,428.72,69.083,414.162,84.48,407.738,72.041" style="stroke: #A80036; stroke-width: 1.0;"/><!--MD5=[069ca8b2cce0eea405cd9a6047b3f099]
reverse link FileReader to FsFileReader--><path d="M189.86,216.819 C162.483,242.485 130.026,272.913 106.61,294.865 " fill="none" id="FileReader&lt;-FsFileReader" style="stroke: #A80036; stroke-width: 1.0;"/><polygon fill="none" points="185.079,211.706,204.457,203.134,194.654,221.919,185.079,211.706" style="stroke: #A80036; stroke-width: 1.0;"/><!--MD5=[30edeffc3356b38d77aca0b3949ab057]
reverse link Reader to RdbmsReader--><path d="M486,89.505 C486,102.621 486,116.513 486,128.755 " fill="none" id="Reader&lt;-RdbmsReader" style="stroke: #A80036; stroke-width: 1.0;"/><polygon fill="none" points="479,89.242,486,69.242,493,89.242,479,89.242" style="stroke: #A80036; stroke-width: 1.0;"/><!--MD5=[144a7c8f1ab78b2592784c5d0a6b5e6f]
reverse link RdbmsReader to TypeOrmReader--><path d="M530.564,218.608 C552.393,243.889 577.894,273.421 596.411,294.865 " fill="none" id="RdbmsReader&lt;-TypeOrmReader" style="stroke: #A80036; stroke-width: 1.0;"/><polygon fill="none" points="524.974,222.846,517.201,203.134,535.57,213.696,524.974,222.846" style="stroke: #A80036; stroke-width: 1.0;"/><!--MD5=[a064f46a50284f715ab397e97f50dd98]
reverse link Reader to EsReader--><path d="M572.409,77.154 C610.746,93.86 655.605,113.408 693.26,129.817 " fill="none" id="Reader&lt;-EsReader" style="stroke: #A80036; stroke-width: 1.0;"/><polygon fill="none" points="569.426,83.49,553.887,69.083,575.019,70.655,569.426,83.49" style="stroke: #A80036; stroke-width: 1.0;"/><!--MD5=[218a62d5ee2d8fb380d3a7fcb0cf3cfa]
@startuml
interface Reader{
  +read(): ReadStream
}

class FileReader{
  #opts : FileReaderOpts
  +read(): ReadStream
}

class FsFileReader{
  +read(): ReadStream
}

interface FileReaderOpts{
  +path : string
  +columns : string[]
}

interface ServerConnection{
  +host : string
  +port : number
}

interface EsReaderOptions{
  +server : ServerConnection
  +index : string
}

interface RdbmsReaderOptions{
  +dbType : RdbmsType
  +server : ServerConnection
  +username : string
  +password : string
  +database : string
  +table : string
}

class RdbmsReader{
  #opts : RdbmsReaderOptions
  +read(): ReadStream
}

class TypeOrmReader{
  +read(): ReadStream
}

class EsReader{
  #opts : EsReaderOptions
  +read(): ReadStream
}

FileReader - -> FileReaderOpts
EsReaderOptions - -> ServerConnection
RdbmsReaderOptions - -> RdbmsType
RdbmsReaderOptions - -> ServerConnection
RdbmsReader - -> RdbmsReaderOptions
EsReader - -> EsReaderOptions
Reader <|- - FileReader
FileReader <|- - FsFileReader
Reader <|- - RdbmsReader
RdbmsReader <|- - TypeOrmReader
Reader <|- - EsReader
@enduml

PlantUML version 1.2019.11(Sun Sep 22 10:02:15 UTC 2019)
(GPL source distribution)
Java Runtime: Java(TM) SE Runtime Environment
JVM: Java HotSpot(TM) 64-Bit Server VM
Java Version: 1.7.0_25-b15
Operating System: Linux
Default Encoding: UTF-8
Language: en
Country: US
--></g></svg>