<?xml version="1.0" encoding="UTF-8" standalone="no"?><svg xmlns="http://www.w3.org/2000/svg" xmlns:xlink="http://www.w3.org/1999/xlink" contentScriptType="application/ecmascript" contentStyleType="text/css" height="226px" preserveAspectRatio="none" style="width:1080px;height:226px;" version="1.1" viewBox="0 0 1080 226" width="1080px" zoomAndPan="magnify"><defs><filter height="300%" id="fw7n6r3dbunpp" width="300%" x="-1" y="-1"><feGaussianBlur result="blurOut" stdDeviation="2.0"/><feColorMatrix in="blurOut" result="blurOut2" type="matrix" values="0 0 0 0 0 0 0 0 0 0 0 0 0 0 0 0 0 0 .4 0"/><feOffset dx="4.0" dy="4.0" in="blurOut2" result="blurOut3"/><feBlend in="SourceGraphic" in2="blurOut3" mode="normal"/></filter></defs><g><!--MD5=[0c7624888451d2039aaef18036130ed9]
class Dispatcher--><rect fill="#FEFECE" filter="url(#fw7n6r3dbunpp)" height="99.2188" id="Dispatcher" style="stroke: #A80036; stroke-width: 1.5;" width="170" x="6" y="8"/><ellipse cx="52.75" cy="24" fill="#ADD1B2" rx="11" ry="11" style="stroke: #A80036; stroke-width: 1.0;"/><path d="M55.0938,19.6719 L55.2656,19.75 C55.4844,19.4375 55.6875,19.3438 55.9844,19.3438 C56.2813,19.3438 56.5625,19.4844 56.7188,19.75 C56.8125,19.9063 56.8281,20.0313 56.8281,20.4688 L56.8281,21.8906 C56.8281,22.3125 56.7969,22.5 56.6875,22.6563 C56.5156,22.875 56.25,23.0156 55.9844,23.0156 C55.7656,23.0156 55.5313,22.9063 55.3906,22.7656 C55.25,22.6406 55.2188,22.5156 55.1563,22.1094 C55.0625,21.7031 54.8906,21.4844 54.4063,21.2031 C53.9375,20.9531 53.3281,20.7969 52.75,20.7969 C51.0156,20.7969 49.7656,22.1094 49.7656,23.8906 L49.7656,24.9844 C49.7656,26.6875 51.0625,27.7813 53.1094,27.7813 C53.875,27.7813 54.5625,27.6563 54.9844,27.3906 C55.1719,27.2969 55.1719,27.2969 55.625,26.8125 C55.8125,26.625 56.0156,26.5469 56.2344,26.5469 C56.7031,26.5469 57.0938,26.9375 57.0938,27.3906 C57.0938,27.7813 56.7656,28.2344 56.1875,28.6406 C55.4375,29.1875 54.2813,29.4844 53.0625,29.4844 C50.1719,29.4844 48.0625,27.5938 48.0625,25.0156 L48.0625,23.8906 C48.0625,21.1719 50.0625,19.0938 52.6875,19.0938 C53.5625,19.0938 54.1563,19.2344 55.0938,19.6719 Z "/><text fill="#000000" font-family="sans-serif" font-size="12" lengthAdjust="spacingAndGlyphs" textLength="68" x="73.25" y="28.1543">Dispatcher</text><line style="stroke: #A80036; stroke-width: 1.5;" x1="7" x2="175" y1="40" y2="40"/><polygon fill="none" points="17,46,21,50,17,54,13,50" style="stroke: #B38D22; stroke-width: 1.0;"/><text fill="#000000" font-family="sans-serif" font-size="11" lengthAdjust="spacingAndGlyphs" textLength="144" x="26" y="54.2104">readerOpts : ReaderOpts</text><polygon fill="none" points="17,58.8047,21,62.8047,17,66.8047,13,62.8047" style="stroke: #B38D22; stroke-width: 1.0;"/><text fill="#000000" font-family="sans-serif" font-size="11" lengthAdjust="spacingAndGlyphs" textLength="139" x="26" y="67.0151">inputQueue : Queue&lt;T&gt;</text><polygon fill="none" points="17,71.6094,21,75.6094,17,79.6094,13,75.6094" style="stroke: #B38D22; stroke-width: 1.0;"/><text fill="#000000" font-family="sans-serif" font-size="11" lengthAdjust="spacingAndGlyphs" textLength="132" x="26" y="79.8198">rawQueue : Queue&lt;T&gt;</text><line style="stroke: #A80036; stroke-width: 1.5;" x1="7" x2="175" y1="86.4141" y2="86.4141"/><ellipse cx="17" cy="97.4141" fill="#84BE84" rx="3" ry="3" style="stroke: #038048; stroke-width: 1.0;"/><text fill="#000000" font-family="sans-serif" font-size="11" lengthAdjust="spacingAndGlyphs" textLength="83" x="26" y="100.6245">execute(): void</text><!--MD5=[df152c2476dc0702efc46fc22338464c]
class Processor--><rect fill="#FEFECE" filter="url(#fw7n6r3dbunpp)" height="99.2188" id="Processor" style="stroke: #A80036; stroke-width: 1.5;" width="278" x="211" y="8"/><ellipse cx="314.25" cy="24" fill="#ADD1B2" rx="11" ry="11" style="stroke: #A80036; stroke-width: 1.0;"/><path d="M316.5938,19.6719 L316.7656,19.75 C316.9844,19.4375 317.1875,19.3438 317.4844,19.3438 C317.7813,19.3438 318.0625,19.4844 318.2188,19.75 C318.3125,19.9063 318.3281,20.0313 318.3281,20.4688 L318.3281,21.8906 C318.3281,22.3125 318.2969,22.5 318.1875,22.6563 C318.0156,22.875 317.75,23.0156 317.4844,23.0156 C317.2656,23.0156 317.0313,22.9063 316.8906,22.7656 C316.75,22.6406 316.7188,22.5156 316.6563,22.1094 C316.5625,21.7031 316.3906,21.4844 315.9063,21.2031 C315.4375,20.9531 314.8281,20.7969 314.25,20.7969 C312.5156,20.7969 311.2656,22.1094 311.2656,23.8906 L311.2656,24.9844 C311.2656,26.6875 312.5625,27.7813 314.6094,27.7813 C315.375,27.7813 316.0625,27.6563 316.4844,27.3906 C316.6719,27.2969 316.6719,27.2969 317.125,26.8125 C317.3125,26.625 317.5156,26.5469 317.7344,26.5469 C318.2031,26.5469 318.5938,26.9375 318.5938,27.3906 C318.5938,27.7813 318.2656,28.2344 317.6875,28.6406 C316.9375,29.1875 315.7813,29.4844 314.5625,29.4844 C311.6719,29.4844 309.5625,27.5938 309.5625,25.0156 L309.5625,23.8906 C309.5625,21.1719 311.5625,19.0938 314.1875,19.0938 C315.0625,19.0938 315.6563,19.2344 316.5938,19.6719 Z "/><text fill="#000000" font-family="sans-serif" font-size="12" lengthAdjust="spacingAndGlyphs" textLength="63" x="334.75" y="28.1543">Processor</text><line style="stroke: #A80036; stroke-width: 1.5;" x1="212" x2="488" y1="40" y2="40"/><polygon fill="none" points="222,46,226,50,222,54,218,50" style="stroke: #B38D22; stroke-width: 1.0;"/><text fill="#000000" font-family="sans-serif" font-size="11" lengthAdjust="spacingAndGlyphs" textLength="139" x="231" y="54.2104">inputQueue : Queue&lt;T&gt;</text><polygon fill="none" points="222,58.8047,226,62.8047,222,66.8047,218,62.8047" style="stroke: #B38D22; stroke-width: 1.0;"/><text fill="#000000" font-family="sans-serif" font-size="11" lengthAdjust="spacingAndGlyphs" textLength="147" x="231" y="67.0151">outputQueue : Queue&lt;T&gt;</text><polygon fill="none" points="222,71.6094,226,75.6094,222,79.6094,218,75.6094" style="stroke: #B38D22; stroke-width: 1.0;"/><text fill="#000000" font-family="sans-serif" font-size="11" lengthAdjust="spacingAndGlyphs" textLength="252" x="231" y="79.8198">commandsOptions : Array&lt;CommandOpts&gt;</text><line style="stroke: #A80036; stroke-width: 1.5;" x1="212" x2="488" y1="86.4141" y2="86.4141"/><ellipse cx="222" cy="97.4141" fill="#84BE84" rx="3" ry="3" style="stroke: #038048; stroke-width: 1.0;"/><text fill="#000000" font-family="sans-serif" font-size="11" lengthAdjust="spacingAndGlyphs" textLength="83" x="231" y="100.6245">execute(): void</text><!--MD5=[86cfdc25119a3a20e0664f11a0f5b002]
class Writer--><rect fill="#FEFECE" filter="url(#fw7n6r3dbunpp)" height="86.4141" id="Writer" style="stroke: #A80036; stroke-width: 1.5;" width="278" x="524" y="14.5"/><ellipse cx="640.25" cy="30.5" fill="#ADD1B2" rx="11" ry="11" style="stroke: #A80036; stroke-width: 1.0;"/><path d="M642.5938,26.1719 L642.7656,26.25 C642.9844,25.9375 643.1875,25.8438 643.4844,25.8438 C643.7813,25.8438 644.0625,25.9844 644.2188,26.25 C644.3125,26.4063 644.3281,26.5313 644.3281,26.9688 L644.3281,28.3906 C644.3281,28.8125 644.2969,29 644.1875,29.1563 C644.0156,29.375 643.75,29.5156 643.4844,29.5156 C643.2656,29.5156 643.0313,29.4063 642.8906,29.2656 C642.75,29.1406 642.7188,29.0156 642.6563,28.6094 C642.5625,28.2031 642.3906,27.9844 641.9063,27.7031 C641.4375,27.4531 640.8281,27.2969 640.25,27.2969 C638.5156,27.2969 637.2656,28.6094 637.2656,30.3906 L637.2656,31.4844 C637.2656,33.1875 638.5625,34.2813 640.6094,34.2813 C641.375,34.2813 642.0625,34.1563 642.4844,33.8906 C642.6719,33.7969 642.6719,33.7969 643.125,33.3125 C643.3125,33.125 643.5156,33.0469 643.7344,33.0469 C644.2031,33.0469 644.5938,33.4375 644.5938,33.8906 C644.5938,34.2813 644.2656,34.7344 643.6875,35.1406 C642.9375,35.6875 641.7813,35.9844 640.5625,35.9844 C637.6719,35.9844 635.5625,34.0938 635.5625,31.5156 L635.5625,30.3906 C635.5625,27.6719 637.5625,25.5938 640.1875,25.5938 C641.0625,25.5938 641.6563,25.7344 642.5938,26.1719 Z "/><text fill="#000000" font-family="sans-serif" font-size="12" lengthAdjust="spacingAndGlyphs" textLength="37" x="660.75" y="34.6543">Writer</text><line style="stroke: #A80036; stroke-width: 1.5;" x1="525" x2="801" y1="46.5" y2="46.5"/><polygon fill="none" points="535,52.5,539,56.5,535,60.5,531,56.5" style="stroke: #B38D22; stroke-width: 1.0;"/><text fill="#000000" font-family="sans-serif" font-size="11" lengthAdjust="spacingAndGlyphs" textLength="147" x="544" y="60.7104">outputQueue : Queue&lt;T&gt;</text><polygon fill="none" points="535,65.3047,539,69.3047,535,73.3047,531,69.3047" style="stroke: #B38D22; stroke-width: 1.0;"/><text fill="#000000" font-family="sans-serif" font-size="11" lengthAdjust="spacingAndGlyphs" textLength="252" x="544" y="73.5151">commandsOptions : Array&lt;CommandOpts&gt;</text><line style="stroke: #A80036; stroke-width: 1.5;" x1="525" x2="801" y1="80.1094" y2="80.1094"/><ellipse cx="535" cy="91.1094" fill="#84BE84" rx="3" ry="3" style="stroke: #038048; stroke-width: 1.0;"/><text fill="#000000" font-family="sans-serif" font-size="11" lengthAdjust="spacingAndGlyphs" textLength="83" x="544" y="94.3198">execute(): void</text><!--MD5=[cae1aa2ed6e778162995bf3ca3fe08e8]
class JobComplete--><rect fill="#FEFECE" filter="url(#fw7n6r3dbunpp)" height="86.4141" id="JobComplete" style="stroke: #A80036; stroke-width: 1.5;" width="232" x="837" y="14.5"/><ellipse cx="909.75" cy="30.5" fill="#ADD1B2" rx="11" ry="11" style="stroke: #A80036; stroke-width: 1.0;"/><path d="M912.0938,26.1719 L912.2656,26.25 C912.4844,25.9375 912.6875,25.8438 912.9844,25.8438 C913.2813,25.8438 913.5625,25.9844 913.7188,26.25 C913.8125,26.4063 913.8281,26.5313 913.8281,26.9688 L913.8281,28.3906 C913.8281,28.8125 913.7969,29 913.6875,29.1563 C913.5156,29.375 913.25,29.5156 912.9844,29.5156 C912.7656,29.5156 912.5313,29.4063 912.3906,29.2656 C912.25,29.1406 912.2188,29.0156 912.1563,28.6094 C912.0625,28.2031 911.8906,27.9844 911.4063,27.7031 C910.9375,27.4531 910.3281,27.2969 909.75,27.2969 C908.0156,27.2969 906.7656,28.6094 906.7656,30.3906 L906.7656,31.4844 C906.7656,33.1875 908.0625,34.2813 910.1094,34.2813 C910.875,34.2813 911.5625,34.1563 911.9844,33.8906 C912.1719,33.7969 912.1719,33.7969 912.625,33.3125 C912.8125,33.125 913.0156,33.0469 913.2344,33.0469 C913.7031,33.0469 914.0938,33.4375 914.0938,33.8906 C914.0938,34.2813 913.7656,34.7344 913.1875,35.1406 C912.4375,35.6875 911.2813,35.9844 910.0625,35.9844 C907.1719,35.9844 905.0625,34.0938 905.0625,31.5156 L905.0625,30.3906 C905.0625,27.6719 907.0625,25.5938 909.6875,25.5938 C910.5625,25.5938 911.1563,25.7344 912.0938,26.1719 Z "/><text fill="#000000" font-family="sans-serif" font-size="12" lengthAdjust="spacingAndGlyphs" textLength="78" x="930.25" y="34.6543">JobComplete</text><line style="stroke: #A80036; stroke-width: 1.5;" x1="838" x2="1068" y1="46.5" y2="46.5"/><polygon fill="none" points="848,52.5,852,56.5,848,60.5,844,56.5" style="stroke: #B38D22; stroke-width: 1.0;"/><text fill="#000000" font-family="sans-serif" font-size="11" lengthAdjust="spacingAndGlyphs" textLength="182" x="857" y="60.7104">jobCompleteQueue : Queue&lt;T&gt;</text><polygon fill="none" points="848,65.3047,852,69.3047,848,73.3047,844,69.3047" style="stroke: #B38D22; stroke-width: 1.0;"/><text fill="#000000" font-family="sans-serif" font-size="11" lengthAdjust="spacingAndGlyphs" textLength="206" x="857" y="73.5151">hooksOpts : Array&lt;CommandOpts&gt;</text><line style="stroke: #A80036; stroke-width: 1.5;" x1="838" x2="1068" y1="80.1094" y2="80.1094"/><ellipse cx="848" cy="91.1094" fill="#84BE84" rx="3" ry="3" style="stroke: #038048; stroke-width: 1.0;"/><text fill="#000000" font-family="sans-serif" font-size="11" lengthAdjust="spacingAndGlyphs" textLength="83" x="857" y="94.3198">execute(): void</text><!--MD5=[609ea6ef56ac525c83c9f645990cd8d9]
class ReaderOpts--><rect fill="#FEFECE" filter="url(#fw7n6r3dbunpp)" height="48" id="ReaderOpts" style="stroke: #A80036; stroke-width: 1.5;" width="106" x="38" y="167"/><ellipse cx="53" cy="183" fill="#ADD1B2" rx="11" ry="11" style="stroke: #A80036; stroke-width: 1.0;"/><path d="M55.3438,178.6719 L55.5156,178.75 C55.7344,178.4375 55.9375,178.3438 56.2344,178.3438 C56.5313,178.3438 56.8125,178.4844 56.9688,178.75 C57.0625,178.9063 57.0781,179.0313 57.0781,179.4688 L57.0781,180.8906 C57.0781,181.3125 57.0469,181.5 56.9375,181.6563 C56.7656,181.875 56.5,182.0156 56.2344,182.0156 C56.0156,182.0156 55.7813,181.9063 55.6406,181.7656 C55.5,181.6406 55.4688,181.5156 55.4063,181.1094 C55.3125,180.7031 55.1406,180.4844 54.6563,180.2031 C54.1875,179.9531 53.5781,179.7969 53,179.7969 C51.2656,179.7969 50.0156,181.1094 50.0156,182.8906 L50.0156,183.9844 C50.0156,185.6875 51.3125,186.7813 53.3594,186.7813 C54.125,186.7813 54.8125,186.6563 55.2344,186.3906 C55.4219,186.2969 55.4219,186.2969 55.875,185.8125 C56.0625,185.625 56.2656,185.5469 56.4844,185.5469 C56.9531,185.5469 57.3438,185.9375 57.3438,186.3906 C57.3438,186.7813 57.0156,187.2344 56.4375,187.6406 C55.6875,188.1875 54.5313,188.4844 53.3125,188.4844 C50.4219,188.4844 48.3125,186.5938 48.3125,184.0156 L48.3125,182.8906 C48.3125,180.1719 50.3125,178.0938 52.9375,178.0938 C53.8125,178.0938 54.4063,178.2344 55.3438,178.6719 Z "/><text fill="#000000" font-family="sans-serif" font-size="12" lengthAdjust="spacingAndGlyphs" textLength="74" x="67" y="187.1543">ReaderOpts</text><line style="stroke: #A80036; stroke-width: 1.5;" x1="39" x2="143" y1="199" y2="199"/><line style="stroke: #A80036; stroke-width: 1.5;" x1="39" x2="143" y1="207" y2="207"/><!--MD5=[15b0de36700cf8bf422172734e699e19]
class Queue--><rect fill="#FEFECE" filter="url(#fw7n6r3dbunpp)" height="48" id="Queue" style="stroke: #A80036; stroke-width: 1.5;" width="73" x="437.5" y="167"/><ellipse cx="452.5" cy="183" fill="#ADD1B2" rx="11" ry="11" style="stroke: #A80036; stroke-width: 1.0;"/><path d="M454.8438,178.6719 L455.0156,178.75 C455.2344,178.4375 455.4375,178.3438 455.7344,178.3438 C456.0313,178.3438 456.3125,178.4844 456.4688,178.75 C456.5625,178.9063 456.5781,179.0313 456.5781,179.4688 L456.5781,180.8906 C456.5781,181.3125 456.5469,181.5 456.4375,181.6563 C456.2656,181.875 456,182.0156 455.7344,182.0156 C455.5156,182.0156 455.2813,181.9063 455.1406,181.7656 C455,181.6406 454.9688,181.5156 454.9063,181.1094 C454.8125,180.7031 454.6406,180.4844 454.1563,180.2031 C453.6875,179.9531 453.0781,179.7969 452.5,179.7969 C450.7656,179.7969 449.5156,181.1094 449.5156,182.8906 L449.5156,183.9844 C449.5156,185.6875 450.8125,186.7813 452.8594,186.7813 C453.625,186.7813 454.3125,186.6563 454.7344,186.3906 C454.9219,186.2969 454.9219,186.2969 455.375,185.8125 C455.5625,185.625 455.7656,185.5469 455.9844,185.5469 C456.4531,185.5469 456.8438,185.9375 456.8438,186.3906 C456.8438,186.7813 456.5156,187.2344 455.9375,187.6406 C455.1875,188.1875 454.0313,188.4844 452.8125,188.4844 C449.9219,188.4844 447.8125,186.5938 447.8125,184.0156 L447.8125,182.8906 C447.8125,180.1719 449.8125,178.0938 452.4375,178.0938 C453.3125,178.0938 453.9063,178.2344 454.8438,178.6719 Z "/><text fill="#000000" font-family="sans-serif" font-size="12" lengthAdjust="spacingAndGlyphs" textLength="41" x="466.5" y="187.1543">Queue</text><line style="stroke: #A80036; stroke-width: 1.5;" x1="438.5" x2="509.5" y1="199" y2="199"/><line style="stroke: #A80036; stroke-width: 1.5;" x1="438.5" x2="509.5" y1="207" y2="207"/><!--MD5=[56e4c9075fa7c9f4c09ef0a20c49f72c]
class T--><rect fill="#FEFECE" filter="url(#fw7n6r3dbunpp)" height="48" id="T" style="stroke: #A80036; stroke-width: 1.5;" width="39" x="341.5" y="167"/><ellipse cx="356.5" cy="183" fill="#ADD1B2" rx="11" ry="11" style="stroke: #A80036; stroke-width: 1.0;"/><path d="M358.8438,178.6719 L359.0156,178.75 C359.2344,178.4375 359.4375,178.3438 359.7344,178.3438 C360.0313,178.3438 360.3125,178.4844 360.4688,178.75 C360.5625,178.9063 360.5781,179.0313 360.5781,179.4688 L360.5781,180.8906 C360.5781,181.3125 360.5469,181.5 360.4375,181.6563 C360.2656,181.875 360,182.0156 359.7344,182.0156 C359.5156,182.0156 359.2813,181.9063 359.1406,181.7656 C359,181.6406 358.9688,181.5156 358.9063,181.1094 C358.8125,180.7031 358.6406,180.4844 358.1563,180.2031 C357.6875,179.9531 357.0781,179.7969 356.5,179.7969 C354.7656,179.7969 353.5156,181.1094 353.5156,182.8906 L353.5156,183.9844 C353.5156,185.6875 354.8125,186.7813 356.8594,186.7813 C357.625,186.7813 358.3125,186.6563 358.7344,186.3906 C358.9219,186.2969 358.9219,186.2969 359.375,185.8125 C359.5625,185.625 359.7656,185.5469 359.9844,185.5469 C360.4531,185.5469 360.8438,185.9375 360.8438,186.3906 C360.8438,186.7813 360.5156,187.2344 359.9375,187.6406 C359.1875,188.1875 358.0313,188.4844 356.8125,188.4844 C353.9219,188.4844 351.8125,186.5938 351.8125,184.0156 L351.8125,182.8906 C351.8125,180.1719 353.8125,178.0938 356.4375,178.0938 C357.3125,178.0938 357.9063,178.2344 358.8438,178.6719 Z "/><text fill="#000000" font-family="sans-serif" font-size="12" lengthAdjust="spacingAndGlyphs" textLength="7" x="370.5" y="187.1543">T</text><line style="stroke: #A80036; stroke-width: 1.5;" x1="342.5" x2="379.5" y1="199" y2="199"/><line style="stroke: #A80036; stroke-width: 1.5;" x1="342.5" x2="379.5" y1="207" y2="207"/><!--MD5=[99f32fa4e73f6681c1a0ac5117bd3ce1]
class Array--><rect fill="#FEFECE" filter="url(#fw7n6r3dbunpp)" height="48" id="Array" style="stroke: #A80036; stroke-width: 1.5;" width="64" x="748" y="167"/><ellipse cx="763" cy="183" fill="#ADD1B2" rx="11" ry="11" style="stroke: #A80036; stroke-width: 1.0;"/><path d="M765.3438,178.6719 L765.5156,178.75 C765.7344,178.4375 765.9375,178.3438 766.2344,178.3438 C766.5313,178.3438 766.8125,178.4844 766.9688,178.75 C767.0625,178.9063 767.0781,179.0313 767.0781,179.4688 L767.0781,180.8906 C767.0781,181.3125 767.0469,181.5 766.9375,181.6563 C766.7656,181.875 766.5,182.0156 766.2344,182.0156 C766.0156,182.0156 765.7813,181.9063 765.6406,181.7656 C765.5,181.6406 765.4688,181.5156 765.4063,181.1094 C765.3125,180.7031 765.1406,180.4844 764.6563,180.2031 C764.1875,179.9531 763.5781,179.7969 763,179.7969 C761.2656,179.7969 760.0156,181.1094 760.0156,182.8906 L760.0156,183.9844 C760.0156,185.6875 761.3125,186.7813 763.3594,186.7813 C764.125,186.7813 764.8125,186.6563 765.2344,186.3906 C765.4219,186.2969 765.4219,186.2969 765.875,185.8125 C766.0625,185.625 766.2656,185.5469 766.4844,185.5469 C766.9531,185.5469 767.3438,185.9375 767.3438,186.3906 C767.3438,186.7813 767.0156,187.2344 766.4375,187.6406 C765.6875,188.1875 764.5313,188.4844 763.3125,188.4844 C760.4219,188.4844 758.3125,186.5938 758.3125,184.0156 L758.3125,182.8906 C758.3125,180.1719 760.3125,178.0938 762.9375,178.0938 C763.8125,178.0938 764.4063,178.2344 765.3438,178.6719 Z "/><text fill="#000000" font-family="sans-serif" font-size="12" lengthAdjust="spacingAndGlyphs" textLength="32" x="777" y="187.1543">Array</text><line style="stroke: #A80036; stroke-width: 1.5;" x1="749" x2="811" y1="199" y2="199"/><line style="stroke: #A80036; stroke-width: 1.5;" x1="749" x2="811" y1="207" y2="207"/><!--MD5=[610b71d52d9c2699d677cb29325f9307]
class CommandOpts--><rect fill="#FEFECE" filter="url(#fw7n6r3dbunpp)" height="48" id="CommandOpts" style="stroke: #A80036; stroke-width: 1.5;" width="123" x="589.5" y="167"/><ellipse cx="604.5" cy="183" fill="#ADD1B2" rx="11" ry="11" style="stroke: #A80036; stroke-width: 1.0;"/><path d="M606.8438,178.6719 L607.0156,178.75 C607.2344,178.4375 607.4375,178.3438 607.7344,178.3438 C608.0313,178.3438 608.3125,178.4844 608.4688,178.75 C608.5625,178.9063 608.5781,179.0313 608.5781,179.4688 L608.5781,180.8906 C608.5781,181.3125 608.5469,181.5 608.4375,181.6563 C608.2656,181.875 608,182.0156 607.7344,182.0156 C607.5156,182.0156 607.2813,181.9063 607.1406,181.7656 C607,181.6406 606.9688,181.5156 606.9063,181.1094 C606.8125,180.7031 606.6406,180.4844 606.1563,180.2031 C605.6875,179.9531 605.0781,179.7969 604.5,179.7969 C602.7656,179.7969 601.5156,181.1094 601.5156,182.8906 L601.5156,183.9844 C601.5156,185.6875 602.8125,186.7813 604.8594,186.7813 C605.625,186.7813 606.3125,186.6563 606.7344,186.3906 C606.9219,186.2969 606.9219,186.2969 607.375,185.8125 C607.5625,185.625 607.7656,185.5469 607.9844,185.5469 C608.4531,185.5469 608.8438,185.9375 608.8438,186.3906 C608.8438,186.7813 608.5156,187.2344 607.9375,187.6406 C607.1875,188.1875 606.0313,188.4844 604.8125,188.4844 C601.9219,188.4844 599.8125,186.5938 599.8125,184.0156 L599.8125,182.8906 C599.8125,180.1719 601.8125,178.0938 604.4375,178.0938 C605.3125,178.0938 605.9063,178.2344 606.8438,178.6719 Z "/><text fill="#000000" font-family="sans-serif" font-size="12" lengthAdjust="spacingAndGlyphs" textLength="91" x="618.5" y="187.1543">CommandOpts</text><line style="stroke: #A80036; stroke-width: 1.5;" x1="590.5" x2="711.5" y1="199" y2="199"/><line style="stroke: #A80036; stroke-width: 1.5;" x1="590.5" x2="711.5" y1="207" y2="207"/><!--MD5=[cec9c4cb114950fe1905036102487cce]
link Dispatcher to ReaderOpts--><path d="M91,107.092 C91,125.4972 91,145.8309 91,161.7548 " fill="none" id="Dispatcher-&gt;ReaderOpts" style="stroke: #A80036; stroke-width: 1.0;"/><polygon fill="#A80036" points="91,166.9769,95,157.9769,91,161.9769,87,157.9769,91,166.9769" style="stroke: #A80036; stroke-width: 1.0;"/><!--MD5=[dbeea675ff3090f9f708bfbbe7763fd8]
link Dispatcher to Queue--><path d="M176.275,100.258 C181.895,102.633 187.504,104.904 193,107 C281.704,140.8234 307.012,139.9173 398,167 C409.114,170.3081 421.13,173.9255 432.255,177.2917 " fill="none" id="Dispatcher-&gt;Queue" style="stroke: #A80036; stroke-width: 1.0;"/><polygon fill="#A80036" points="437.297,178.8186,429.8436,172.3806,432.5118,177.3687,427.5238,180.0369,437.297,178.8186" style="stroke: #A80036; stroke-width: 1.0;"/><!--MD5=[580d212341a82e07e6ad946fcb0a973b]
link Dispatcher to T--><path d="M176.059,99.927 C231.83,127.0893 300.838,160.6987 336.732,178.1804 " fill="none" id="Dispatcher-&gt;T" style="stroke: #A80036; stroke-width: 1.0;"/><polygon fill="#A80036" points="341.362,180.4355,335.023,172.8977,336.8671,178.2456,331.5192,180.0896,341.362,180.4355" style="stroke: #A80036; stroke-width: 1.0;"/><!--MD5=[dbe184ed3fa7984c8aafb170652c2440]
link Processor to Queue--><path d="M395.821,107.092 C413.629,125.9773 433.352,146.8931 448.532,162.9919 " fill="none" id="Processor-&gt;Queue" style="stroke: #A80036; stroke-width: 1.0;"/><polygon fill="#A80036" points="452.29,166.9769,449.0267,157.6844,448.8601,163.3388,443.2057,163.1722,452.29,166.9769" style="stroke: #A80036; stroke-width: 1.0;"/><!--MD5=[45b85233532bf164bbfc55cfdd928cda]
link Processor to T--><path d="M354.065,107.092 C355.604,125.4972 357.305,145.8309 358.637,161.7548 " fill="none" id="Processor-&gt;T" style="stroke: #A80036; stroke-width: 1.0;"/><polygon fill="#A80036" points="359.074,166.9769,362.3098,157.6748,358.6572,161.9943,354.3376,158.3417,359.074,166.9769" style="stroke: #A80036; stroke-width: 1.0;"/><!--MD5=[981ee5cdbae9e70d02ce8eb7e975787c]
link Processor to Array--><path d="M489.4,102.14 C495.001,103.798 500.551,105.424 506,107 C605.006,135.638 633.058,132.0054 730,167 C734.29,168.5486 738.719,170.3194 743.085,172.1756 " fill="none" id="Processor-&gt;Array" style="stroke: #A80036; stroke-width: 1.0;"/><polygon fill="#A80036" points="747.789,174.2169,741.1266,166.9635,743.2026,172.2256,737.9405,174.3017,747.789,174.2169" style="stroke: #A80036; stroke-width: 1.0;"/><!--MD5=[1da6d1bbbb72d2dc981a4ae3a9cf81b4]
link Processor to CommandOpts--><path d="M461.226,107.092 C506.102,126.6975 555.988,148.4913 593.346,164.8124 " fill="none" id="Processor-&gt;CommandOpts" style="stroke: #A80036; stroke-width: 1.0;"/><polygon fill="#A80036" points="598.301,166.9769,591.6566,159.707,593.7196,164.9742,588.4523,167.0372,598.301,166.9769" style="stroke: #A80036; stroke-width: 1.0;"/><!--MD5=[79508b3371990be877d396feda3157aa]
link Writer to Queue--><path d="M602.419,100.65 C572.616,121.3865 537.622,145.7338 511.697,163.7715 " fill="none" id="Writer-&gt;Queue" style="stroke: #A80036; stroke-width: 1.0;"/><polygon fill="#A80036" points="507.292,166.8368,516.9642,164.98,511.3963,163.9811,512.3951,158.4131,507.292,166.8368" style="stroke: #A80036; stroke-width: 1.0;"/><!--MD5=[dcc68e5b6d97f87e94838f4b6b529bed]
link Writer to T--><path d="M566.199,100.65 C502.796,128.2579 424.692,162.2664 385.657,179.2635 " fill="none" id="Writer-&gt;T" style="stroke: #A80036; stroke-width: 1.0;"/><polygon fill="#A80036" points="380.64,181.448,390.4886,181.5231,385.2244,179.4522,387.2953,174.1881,380.64,181.448" style="stroke: #A80036; stroke-width: 1.0;"/><!--MD5=[0a7603e20e3345cf1acf0208e208e2d9]
link Writer to Array--><path d="M700.664,100.831 C718.798,121.2135 740.006,145.0495 755.93,162.9468 " fill="none" id="Writer-&gt;Array" style="stroke: #A80036; stroke-width: 1.0;"/><polygon fill="#A80036" points="759.449,166.9016,756.4535,157.5193,756.1248,163.1666,750.4775,162.838,759.449,166.9016" style="stroke: #A80036; stroke-width: 1.0;"/><!--MD5=[85fa0b488f45f8e7c3fbce19e1d11128]
link Writer to CommandOpts--><path d="M659.137,100.831 C657.324,120.6997 655.211,143.8499 653.593,161.5821 " fill="none" id="Writer-&gt;CommandOpts" style="stroke: #A80036; stroke-width: 1.0;"/><polygon fill="#A80036" points="653.108,166.9016,657.9095,158.3025,653.5625,161.9223,649.9427,157.5753,653.108,166.9016" style="stroke: #A80036; stroke-width: 1.0;"/><!--MD5=[d3e15aab11cdbee6a4c34d4a39609579]
link JobComplete to Queue--><path d="M840.468,100.544 C833.569,102.808 826.707,104.98 820,107 C805.288,111.431 604.397,159.1216 515.649,180.1433 " fill="none" id="JobComplete-&gt;Queue" style="stroke: #A80036; stroke-width: 1.0;"/><polygon fill="#A80036" points="510.738,181.3065,520.4173,183.1263,515.6036,180.155,518.5749,175.3414,510.738,181.3065" style="stroke: #A80036; stroke-width: 1.0;"/><!--MD5=[7a9b316bdee3ca3594cff97cf841ca9b]
link JobComplete to T--><path d="M842.855,100.571 C835.173,102.916 827.503,105.09 820,107 C645.79,151.3501 593.711,120.7335 420,167 C408.3,170.1162 395.747,174.808 385.241,179.1429 " fill="none" id="JobComplete-&gt;T" style="stroke: #A80036; stroke-width: 1.0;"/><polygon fill="#A80036" points="380.568,181.1026,390.4147,181.3096,385.1787,179.1684,387.3199,173.9324,380.568,181.1026" style="stroke: #A80036; stroke-width: 1.0;"/><!--MD5=[6a1ac7f342f0d426db582aa2c94df27a]
link JobComplete to Array--><path d="M897.309,100.831 C870.044,121.5561 838.081,145.8517 814.41,163.8441 " fill="none" id="JobComplete-&gt;Array" style="stroke: #A80036; stroke-width: 1.0;"/><polygon fill="#A80036" points="810.388,166.9016,819.9737,164.6399,814.3686,163.8759,815.1326,158.2709,810.388,166.9016" style="stroke: #A80036; stroke-width: 1.0;"/><!--MD5=[f92fca192d7028dd96ae76a4d1c05f9e]
link JobComplete to CommandOpts--><path d="M856.199,100.65 C807.691,121.7721 750.578,146.6406 708.94,164.7712 " fill="none" id="JobComplete-&gt;CommandOpts" style="stroke: #A80036; stroke-width: 1.0;"/><polygon fill="#A80036" points="704.196,166.8368,714.0446,166.9119,708.7804,164.841,710.8513,159.5769,704.196,166.8368" style="stroke: #A80036; stroke-width: 1.0;"/><!--MD5=[f58ac40db74050949628735c01c418d9]
@startuml
class Dispatcher{
  #readerOpts : ReaderOpts
  #inputQueue : Queue<T>
  #rawQueue : Queue<T>
  +execute(): void
}

class Processor{
  #inputQueue : Queue<T>
  #outputQueue : Queue<T>
  #commandsOptions : Array<CommandOpts>
  +execute(): void
}

class Writer{
  #outputQueue : Queue<T>
  #commandsOptions : Array<CommandOpts>
  +execute(): void
}

class JobComplete{
  #jobCompleteQueue : Queue<T>
  #hooksOpts : Array<CommandOpts>
  +execute(): void
}

Dispatcher - -> ReaderOpts
Dispatcher - -> Queue
Dispatcher - -> T
Processor - -> Queue
Processor - -> T
Processor - -> Array
Processor - -> CommandOpts
Writer - -> Queue
Writer - -> T
Writer - -> Array
Writer - -> CommandOpts
JobComplete - -> Queue
JobComplete - -> T
JobComplete - -> Array
JobComplete - -> CommandOpts
@enduml

PlantUML version 1.2019.11(Sun Sep 22 10:02:15 UTC 2019)
(GPL source distribution)
Java Runtime: Java(TM) SE Runtime Environment
JVM: Java HotSpot(TM) 64-Bit Server VM
Java Version: 1.7.0_25-b15
Operating System: Linux
Default Encoding: UTF-8
Language: en
Country: US
--></g></svg>