<?xml version="1.0" encoding="UTF-8" standalone="no"?><svg xmlns="http://www.w3.org/2000/svg" xmlns:xlink="http://www.w3.org/1999/xlink" contentScriptType="application/ecmascript" contentStyleType="text/css" height="251px" preserveAspectRatio="none" style="width:1940px;height:251px;" version="1.1" viewBox="0 0 1940 251" width="1940px" zoomAndPan="magnify"><defs><filter height="300%" id="f1rfdhhi626v94" width="300%" x="-1" y="-1"><feGaussianBlur result="blurOut" stdDeviation="2.0"/><feColorMatrix in="blurOut" result="blurOut2" type="matrix" values="0 0 0 0 0 0 0 0 0 0 0 0 0 0 0 0 0 0 .4 0"/><feOffset dx="4.0" dy="4.0" in="blurOut2" result="blurOut3"/><feBlend in="SourceGraphic" in2="blurOut3" mode="normal"/></filter></defs><g><!--MD5=[609ea6ef56ac525c83c9f645990cd8d9]
class ReaderOpts--><rect fill="#FEFECE" filter="url(#f1rfdhhi626v94)" height="73.6094" id="ReaderOpts" style="stroke: #A80036; stroke-width: 1.5;" width="104" x="66.5" y="167"/><ellipse cx="81.5" cy="183" fill="#B4A7E5" rx="11" ry="11" style="stroke: #A80036; stroke-width: 1.0;"/><path d="M82.4531,179.7813 L82.4531,186.2969 L84.1719,186.2969 C84.625,186.2969 84.7656,186.3281 84.9375,186.4531 C85.1719,186.625 85.2813,186.875 85.2813,187.1563 C85.2813,187.7188 84.9219,188 84.1719,188 L79.0313,188 C78.625,188 78.4219,187.9531 78.2656,187.8281 C78.0469,187.6719 77.9063,187.4063 77.9063,187.1563 C77.9063,186.8594 78.0625,186.5781 78.3125,186.4219 C78.4688,186.3125 78.5938,186.2969 79.0313,186.2969 L80.75,186.2969 L80.75,179.7813 L79.0313,179.7813 C78.6094,179.7813 78.4219,179.75 78.2656,179.6406 C78.0469,179.4688 77.9063,179.2188 77.9063,178.9375 C77.9063,178.6563 78.0625,178.3594 78.3125,178.2031 C78.4688,178.1094 78.5938,178.0938 79.0313,178.0938 L84.1719,178.0938 C84.625,178.0938 84.7656,178.125 84.9375,178.2344 C85.1719,178.4063 85.2813,178.6719 85.2813,178.9375 C85.2813,179.2344 85.1406,179.5156 84.875,179.6719 C84.75,179.75 84.5625,179.7813 84.1719,179.7813 Z "/><text fill="#000000" font-family="sans-serif" font-size="12" font-style="italic" lengthAdjust="spacingAndGlyphs" textLength="72" x="95.5" y="187.1543">ReaderOpts</text><line style="stroke: #A80036; stroke-width: 1.5;" x1="67.5" x2="169.5" y1="199" y2="199"/><ellipse cx="77.5" cy="210" fill="none" rx="3" ry="3" style="stroke: #038048; stroke-width: 1.0;"/><text fill="#000000" font-family="sans-serif" font-size="11" lengthAdjust="spacingAndGlyphs" textLength="69" x="86.5" y="213.2104">type : string</text><ellipse cx="77.5" cy="222.8047" fill="none" rx="3" ry="3" style="stroke: #038048; stroke-width: 1.0;"/><text fill="#000000" font-family="sans-serif" font-size="11" lengthAdjust="spacingAndGlyphs" textLength="57" x="86.5" y="226.0151">opts : any</text><line style="stroke: #A80036; stroke-width: 1.5;" x1="67.5" x2="169.5" y1="232.6094" y2="232.6094"/><!--MD5=[86ee61d5e48cb146b407a7c368ace452]
class ReaderFactory--><rect fill="#FEFECE" filter="url(#f1rfdhhi626v94)" height="60.8047" id="ReaderFactory" style="stroke: #A80036; stroke-width: 1.5;" width="258" x="1244.5" y="27"/><ellipse cx="1323.75" cy="43" fill="#ADD1B2" rx="11" ry="11" style="stroke: #A80036; stroke-width: 1.0;"/><path d="M1326.0938,38.6719 L1326.2656,38.75 C1326.4844,38.4375 1326.6875,38.3438 1326.9844,38.3438 C1327.2813,38.3438 1327.5625,38.4844 1327.7188,38.75 C1327.8125,38.9063 1327.8281,39.0313 1327.8281,39.4688 L1327.8281,40.8906 C1327.8281,41.3125 1327.7969,41.5 1327.6875,41.6563 C1327.5156,41.875 1327.25,42.0156 1326.9844,42.0156 C1326.7656,42.0156 1326.5313,41.9063 1326.3906,41.7656 C1326.25,41.6406 1326.2188,41.5156 1326.1563,41.1094 C1326.0625,40.7031 1325.8906,40.4844 1325.4063,40.2031 C1324.9375,39.9531 1324.3281,39.7969 1323.75,39.7969 C1322.0156,39.7969 1320.7656,41.1094 1320.7656,42.8906 L1320.7656,43.9844 C1320.7656,45.6875 1322.0625,46.7813 1324.1094,46.7813 C1324.875,46.7813 1325.5625,46.6563 1325.9844,46.3906 C1326.1719,46.2969 1326.1719,46.2969 1326.625,45.8125 C1326.8125,45.625 1327.0156,45.5469 1327.2344,45.5469 C1327.7031,45.5469 1328.0938,45.9375 1328.0938,46.3906 C1328.0938,46.7813 1327.7656,47.2344 1327.1875,47.6406 C1326.4375,48.1875 1325.2813,48.4844 1324.0625,48.4844 C1321.1719,48.4844 1319.0625,46.5938 1319.0625,44.0156 L1319.0625,42.8906 C1319.0625,40.1719 1321.0625,38.0938 1323.6875,38.0938 C1324.5625,38.0938 1325.1563,38.2344 1326.0938,38.6719 Z "/><text fill="#000000" font-family="sans-serif" font-size="12" lengthAdjust="spacingAndGlyphs" textLength="91" x="1344.25" y="47.1543">ReaderFactory</text><line style="stroke: #A80036; stroke-width: 1.5;" x1="1245.5" x2="1501.5" y1="59" y2="59"/><line style="stroke: #A80036; stroke-width: 1.5;" x1="1245.5" x2="1501.5" y1="67" y2="67"/><ellipse cx="1255.5" cy="78" fill="#84BE84" rx="3" ry="3" style="stroke: #038048; stroke-width: 1.0;"/><text fill="#000000" font-family="sans-serif" font-size="11" lengthAdjust="spacingAndGlyphs" textLength="232" x="1264.5" y="81.2104">createReader(opts: ReaderOpts): Reader</text><!--MD5=[0c7624888451d2039aaef18036130ed9]
class Dispatcher--><rect fill="#FEFECE" filter="url(#f1rfdhhi626v94)" height="99.2188" id="Dispatcher" style="stroke: #A80036; stroke-width: 1.5;" width="225" x="6" y="8"/><ellipse cx="80.25" cy="24" fill="#ADD1B2" rx="11" ry="11" style="stroke: #A80036; stroke-width: 1.0;"/><path d="M82.5938,19.6719 L82.7656,19.75 C82.9844,19.4375 83.1875,19.3438 83.4844,19.3438 C83.7813,19.3438 84.0625,19.4844 84.2188,19.75 C84.3125,19.9063 84.3281,20.0313 84.3281,20.4688 L84.3281,21.8906 C84.3281,22.3125 84.2969,22.5 84.1875,22.6563 C84.0156,22.875 83.75,23.0156 83.4844,23.0156 C83.2656,23.0156 83.0313,22.9063 82.8906,22.7656 C82.75,22.6406 82.7188,22.5156 82.6563,22.1094 C82.5625,21.7031 82.3906,21.4844 81.9063,21.2031 C81.4375,20.9531 80.8281,20.7969 80.25,20.7969 C78.5156,20.7969 77.2656,22.1094 77.2656,23.8906 L77.2656,24.9844 C77.2656,26.6875 78.5625,27.7813 80.6094,27.7813 C81.375,27.7813 82.0625,27.6563 82.4844,27.3906 C82.6719,27.2969 82.6719,27.2969 83.125,26.8125 C83.3125,26.625 83.5156,26.5469 83.7344,26.5469 C84.2031,26.5469 84.5938,26.9375 84.5938,27.3906 C84.5938,27.7813 84.2656,28.2344 83.6875,28.6406 C82.9375,29.1875 81.7813,29.4844 80.5625,29.4844 C77.6719,29.4844 75.5625,27.5938 75.5625,25.0156 L75.5625,23.8906 C75.5625,21.1719 77.5625,19.0938 80.1875,19.0938 C81.0625,19.0938 81.6563,19.2344 82.5938,19.6719 Z "/><text fill="#000000" font-family="sans-serif" font-size="12" lengthAdjust="spacingAndGlyphs" textLength="68" x="100.75" y="28.1543">Dispatcher</text><line style="stroke: #A80036; stroke-width: 1.5;" x1="7" x2="230" y1="40" y2="40"/><polygon fill="none" points="17,46,21,50,17,54,13,50" style="stroke: #B38D22; stroke-width: 1.0;"/><text fill="#000000" font-family="sans-serif" font-size="11" lengthAdjust="spacingAndGlyphs" textLength="144" x="26" y="54.2104">readerOpts : ReaderOpts</text><polygon fill="none" points="17,58.8047,21,62.8047,17,66.8047,13,62.8047" style="stroke: #B38D22; stroke-width: 1.0;"/><text fill="#000000" font-family="sans-serif" font-size="11" lengthAdjust="spacingAndGlyphs" textLength="199" x="26" y="67.0151">inputQueue : Queue&lt;ReaderOpts&gt;</text><polygon fill="none" points="17,71.6094,21,75.6094,17,79.6094,13,75.6094" style="stroke: #B38D22; stroke-width: 1.0;"/><text fill="#000000" font-family="sans-serif" font-size="11" lengthAdjust="spacingAndGlyphs" textLength="132" x="26" y="79.8198">rawQueue : Queue&lt;T&gt;</text><line style="stroke: #A80036; stroke-width: 1.5;" x1="7" x2="230" y1="86.4141" y2="86.4141"/><ellipse cx="17" cy="97.4141" fill="#84BE84" rx="3" ry="3" style="stroke: #038048; stroke-width: 1.0;"/><text fill="#000000" font-family="sans-serif" font-size="11" lengthAdjust="spacingAndGlyphs" textLength="87" x="26" y="100.6245">dispatch(): void</text><!--MD5=[7bef0e2c18e641802adaccdddf63be4c]
class CommandsOpts--><rect fill="#FEFECE" filter="url(#f1rfdhhi626v94)" height="60.8047" id="CommandsOpts" style="stroke: #A80036; stroke-width: 1.5;" width="234" x="975.5" y="27"/><ellipse cx="1040.75" cy="43" fill="#B4A7E5" rx="11" ry="11" style="stroke: #A80036; stroke-width: 1.0;"/><path d="M1041.7031,39.7813 L1041.7031,46.2969 L1043.4219,46.2969 C1043.875,46.2969 1044.0156,46.3281 1044.1875,46.4531 C1044.4219,46.625 1044.5313,46.875 1044.5313,47.1563 C1044.5313,47.7188 1044.1719,48 1043.4219,48 L1038.2813,48 C1037.875,48 1037.6719,47.9531 1037.5156,47.8281 C1037.2969,47.6719 1037.1563,47.4063 1037.1563,47.1563 C1037.1563,46.8594 1037.3125,46.5781 1037.5625,46.4219 C1037.7188,46.3125 1037.8438,46.2969 1038.2813,46.2969 L1040,46.2969 L1040,39.7813 L1038.2813,39.7813 C1037.8594,39.7813 1037.6719,39.75 1037.5156,39.6406 C1037.2969,39.4688 1037.1563,39.2188 1037.1563,38.9375 C1037.1563,38.6563 1037.3125,38.3594 1037.5625,38.2031 C1037.7188,38.1094 1037.8438,38.0938 1038.2813,38.0938 L1043.4219,38.0938 C1043.875,38.0938 1044.0156,38.125 1044.1875,38.2344 C1044.4219,38.4063 1044.5313,38.6719 1044.5313,38.9375 C1044.5313,39.2344 1044.3906,39.5156 1044.125,39.6719 C1044,39.75 1043.8125,39.7813 1043.4219,39.7813 Z "/><text fill="#000000" font-family="sans-serif" font-size="12" font-style="italic" lengthAdjust="spacingAndGlyphs" textLength="95" x="1061.25" y="47.1543">CommandsOpts</text><line style="stroke: #A80036; stroke-width: 1.5;" x1="976.5" x2="1208.5" y1="59" y2="59"/><ellipse cx="986.5" cy="70" fill="none" rx="3" ry="3" style="stroke: #038048; stroke-width: 1.0;"/><text fill="#000000" font-family="sans-serif" font-size="11" lengthAdjust="spacingAndGlyphs" textLength="208" x="995.5" y="73.2104">commands : Array&lt;CommandOpts&gt;</text><line style="stroke: #A80036; stroke-width: 1.5;" x1="976.5" x2="1208.5" y1="79.8047" y2="79.8047"/><!--MD5=[610b71d52d9c2699d677cb29325f9307]
class CommandOpts--><rect fill="#FEFECE" filter="url(#f1rfdhhi626v94)" height="73.6094" id="CommandOpts" style="stroke: #A80036; stroke-width: 1.5;" width="121" x="1032" y="167"/><ellipse cx="1047" cy="183" fill="#B4A7E5" rx="11" ry="11" style="stroke: #A80036; stroke-width: 1.0;"/><path d="M1047.9531,179.7813 L1047.9531,186.2969 L1049.6719,186.2969 C1050.125,186.2969 1050.2656,186.3281 1050.4375,186.4531 C1050.6719,186.625 1050.7813,186.875 1050.7813,187.1563 C1050.7813,187.7188 1050.4219,188 1049.6719,188 L1044.5313,188 C1044.125,188 1043.9219,187.9531 1043.7656,187.8281 C1043.5469,187.6719 1043.4063,187.4063 1043.4063,187.1563 C1043.4063,186.8594 1043.5625,186.5781 1043.8125,186.4219 C1043.9688,186.3125 1044.0938,186.2969 1044.5313,186.2969 L1046.25,186.2969 L1046.25,179.7813 L1044.5313,179.7813 C1044.1094,179.7813 1043.9219,179.75 1043.7656,179.6406 C1043.5469,179.4688 1043.4063,179.2188 1043.4063,178.9375 C1043.4063,178.6563 1043.5625,178.3594 1043.8125,178.2031 C1043.9688,178.1094 1044.0938,178.0938 1044.5313,178.0938 L1049.6719,178.0938 C1050.125,178.0938 1050.2656,178.125 1050.4375,178.2344 C1050.6719,178.4063 1050.7813,178.6719 1050.7813,178.9375 C1050.7813,179.2344 1050.6406,179.5156 1050.375,179.6719 C1050.25,179.75 1050.0625,179.7813 1049.6719,179.7813 Z "/><text fill="#000000" font-family="sans-serif" font-size="12" font-style="italic" lengthAdjust="spacingAndGlyphs" textLength="89" x="1061" y="187.1543">CommandOpts</text><line style="stroke: #A80036; stroke-width: 1.5;" x1="1033" x2="1152" y1="199" y2="199"/><ellipse cx="1043" cy="210" fill="none" rx="3" ry="3" style="stroke: #038048; stroke-width: 1.0;"/><text fill="#000000" font-family="sans-serif" font-size="11" lengthAdjust="spacingAndGlyphs" textLength="77" x="1052" y="213.2104">name : string</text><ellipse cx="1043" cy="222.8047" fill="none" rx="3" ry="3" style="stroke: #038048; stroke-width: 1.0;"/><text fill="#000000" font-family="sans-serif" font-size="11" lengthAdjust="spacingAndGlyphs" textLength="57" x="1052" y="226.0151">opts : any</text><line style="stroke: #A80036; stroke-width: 1.5;" x1="1033" x2="1152" y1="232.6094" y2="232.6094"/><!--MD5=[9888510d744d0454bf83ada1b125ea79]
class CommandsFactory--><rect fill="#FEFECE" filter="url(#f1rfdhhi626v94)" height="60.8047" id="CommandsFactory" style="stroke: #A80036; stroke-width: 1.5;" width="392" x="1537.5" y="27"/><ellipse cx="1671.75" cy="43" fill="#ADD1B2" rx="11" ry="11" style="stroke: #A80036; stroke-width: 1.0;"/><path d="M1674.0938,38.6719 L1674.2656,38.75 C1674.4844,38.4375 1674.6875,38.3438 1674.9844,38.3438 C1675.2813,38.3438 1675.5625,38.4844 1675.7188,38.75 C1675.8125,38.9063 1675.8281,39.0313 1675.8281,39.4688 L1675.8281,40.8906 C1675.8281,41.3125 1675.7969,41.5 1675.6875,41.6563 C1675.5156,41.875 1675.25,42.0156 1674.9844,42.0156 C1674.7656,42.0156 1674.5313,41.9063 1674.3906,41.7656 C1674.25,41.6406 1674.2188,41.5156 1674.1563,41.1094 C1674.0625,40.7031 1673.8906,40.4844 1673.4063,40.2031 C1672.9375,39.9531 1672.3281,39.7969 1671.75,39.7969 C1670.0156,39.7969 1668.7656,41.1094 1668.7656,42.8906 L1668.7656,43.9844 C1668.7656,45.6875 1670.0625,46.7813 1672.1094,46.7813 C1672.875,46.7813 1673.5625,46.6563 1673.9844,46.3906 C1674.1719,46.2969 1674.1719,46.2969 1674.625,45.8125 C1674.8125,45.625 1675.0156,45.5469 1675.2344,45.5469 C1675.7031,45.5469 1676.0938,45.9375 1676.0938,46.3906 C1676.0938,46.7813 1675.7656,47.2344 1675.1875,47.6406 C1674.4375,48.1875 1673.2813,48.4844 1672.0625,48.4844 C1669.1719,48.4844 1667.0625,46.5938 1667.0625,44.0156 L1667.0625,42.8906 C1667.0625,40.1719 1669.0625,38.0938 1671.6875,38.0938 C1672.5625,38.0938 1673.1563,38.2344 1674.0938,38.6719 Z "/><text fill="#000000" font-family="sans-serif" font-size="12" lengthAdjust="spacingAndGlyphs" textLength="115" x="1692.25" y="47.1543">CommandsFactory</text><line style="stroke: #A80036; stroke-width: 1.5;" x1="1538.5" x2="1928.5" y1="59" y2="59"/><line style="stroke: #A80036; stroke-width: 1.5;" x1="1538.5" x2="1928.5" y1="67" y2="67"/><ellipse cx="1548.5" cy="78" fill="#84BE84" rx="3" ry="3" style="stroke: #038048; stroke-width: 1.0;"/><text fill="#000000" font-family="sans-serif" font-size="11" lengthAdjust="spacingAndGlyphs" textLength="366" x="1557.5" y="81.2104">createCommand(opts: CommandsOpts): Array&lt;Command&lt;T&gt;&gt;</text><!--MD5=[df152c2476dc0702efc46fc22338464c]
class Processor--><rect fill="#FEFECE" filter="url(#f1rfdhhi626v94)" height="99.2188" id="Processor" style="stroke: #A80036; stroke-width: 1.5;" width="183" x="490" y="8"/><ellipse cx="545.75" cy="24" fill="#ADD1B2" rx="11" ry="11" style="stroke: #A80036; stroke-width: 1.0;"/><path d="M548.0938,19.6719 L548.2656,19.75 C548.4844,19.4375 548.6875,19.3438 548.9844,19.3438 C549.2813,19.3438 549.5625,19.4844 549.7188,19.75 C549.8125,19.9063 549.8281,20.0313 549.8281,20.4688 L549.8281,21.8906 C549.8281,22.3125 549.7969,22.5 549.6875,22.6563 C549.5156,22.875 549.25,23.0156 548.9844,23.0156 C548.7656,23.0156 548.5313,22.9063 548.3906,22.7656 C548.25,22.6406 548.2188,22.5156 548.1563,22.1094 C548.0625,21.7031 547.8906,21.4844 547.4063,21.2031 C546.9375,20.9531 546.3281,20.7969 545.75,20.7969 C544.0156,20.7969 542.7656,22.1094 542.7656,23.8906 L542.7656,24.9844 C542.7656,26.6875 544.0625,27.7813 546.1094,27.7813 C546.875,27.7813 547.5625,27.6563 547.9844,27.3906 C548.1719,27.2969 548.1719,27.2969 548.625,26.8125 C548.8125,26.625 549.0156,26.5469 549.2344,26.5469 C549.7031,26.5469 550.0938,26.9375 550.0938,27.3906 C550.0938,27.7813 549.7656,28.2344 549.1875,28.6406 C548.4375,29.1875 547.2813,29.4844 546.0625,29.4844 C543.1719,29.4844 541.0625,27.5938 541.0625,25.0156 L541.0625,23.8906 C541.0625,21.1719 543.0625,19.0938 545.6875,19.0938 C546.5625,19.0938 547.1563,19.2344 548.0938,19.6719 Z "/><text fill="#000000" font-family="sans-serif" font-size="12" lengthAdjust="spacingAndGlyphs" textLength="63" x="566.25" y="28.1543">Processor</text><line style="stroke: #A80036; stroke-width: 1.5;" x1="491" x2="672" y1="40" y2="40"/><polygon fill="none" points="501,46,505,50,501,54,497,50" style="stroke: #B38D22; stroke-width: 1.0;"/><text fill="#000000" font-family="sans-serif" font-size="11" lengthAdjust="spacingAndGlyphs" textLength="139" x="510" y="54.2104">inputQueue : Queue&lt;T&gt;</text><polygon fill="none" points="501,58.8047,505,62.8047,501,66.8047,497,62.8047" style="stroke: #B38D22; stroke-width: 1.0;"/><text fill="#000000" font-family="sans-serif" font-size="11" lengthAdjust="spacingAndGlyphs" textLength="157" x="510" y="67.0151">processQueue : Queue&lt;T&gt;</text><polygon fill="none" points="501,71.6094,505,75.6094,501,79.6094,497,75.6094" style="stroke: #B38D22; stroke-width: 1.0;"/><text fill="#000000" font-family="sans-serif" font-size="11" lengthAdjust="spacingAndGlyphs" textLength="151" x="510" y="79.8198">command : Command&lt;T&gt;</text><line style="stroke: #A80036; stroke-width: 1.5;" x1="491" x2="672" y1="86.4141" y2="86.4141"/><ellipse cx="501" cy="97.4141" fill="#84BE84" rx="3" ry="3" style="stroke: #038048; stroke-width: 1.0;"/><text fill="#000000" font-family="sans-serif" font-size="11" lengthAdjust="spacingAndGlyphs" textLength="85" x="510" y="100.6245">process(): void</text><!--MD5=[86cfdc25119a3a20e0664f11a0f5b002]
class Writer--><rect fill="#FEFECE" filter="url(#f1rfdhhi626v94)" height="99.2188" id="Writer" style="stroke: #A80036; stroke-width: 1.5;" width="232" x="708.5" y="8"/><ellipse cx="801.75" cy="24" fill="#ADD1B2" rx="11" ry="11" style="stroke: #A80036; stroke-width: 1.0;"/><path d="M804.0938,19.6719 L804.2656,19.75 C804.4844,19.4375 804.6875,19.3438 804.9844,19.3438 C805.2813,19.3438 805.5625,19.4844 805.7188,19.75 C805.8125,19.9063 805.8281,20.0313 805.8281,20.4688 L805.8281,21.8906 C805.8281,22.3125 805.7969,22.5 805.6875,22.6563 C805.5156,22.875 805.25,23.0156 804.9844,23.0156 C804.7656,23.0156 804.5313,22.9063 804.3906,22.7656 C804.25,22.6406 804.2188,22.5156 804.1563,22.1094 C804.0625,21.7031 803.8906,21.4844 803.4063,21.2031 C802.9375,20.9531 802.3281,20.7969 801.75,20.7969 C800.0156,20.7969 798.7656,22.1094 798.7656,23.8906 L798.7656,24.9844 C798.7656,26.6875 800.0625,27.7813 802.1094,27.7813 C802.875,27.7813 803.5625,27.6563 803.9844,27.3906 C804.1719,27.2969 804.1719,27.2969 804.625,26.8125 C804.8125,26.625 805.0156,26.5469 805.2344,26.5469 C805.7031,26.5469 806.0938,26.9375 806.0938,27.3906 C806.0938,27.7813 805.7656,28.2344 805.1875,28.6406 C804.4375,29.1875 803.2813,29.4844 802.0625,29.4844 C799.1719,29.4844 797.0625,27.5938 797.0625,25.0156 L797.0625,23.8906 C797.0625,21.1719 799.0625,19.0938 801.6875,19.0938 C802.5625,19.0938 803.1563,19.2344 804.0938,19.6719 Z "/><text fill="#000000" font-family="sans-serif" font-size="12" lengthAdjust="spacingAndGlyphs" textLength="37" x="822.25" y="28.1543">Writer</text><line style="stroke: #A80036; stroke-width: 1.5;" x1="709.5" x2="939.5" y1="40" y2="40"/><polygon fill="none" points="719.5,46,723.5,50,719.5,54,715.5,50" style="stroke: #B38D22; stroke-width: 1.0;"/><text fill="#000000" font-family="sans-serif" font-size="11" lengthAdjust="spacingAndGlyphs" textLength="157" x="728.5" y="54.2104">processQueue : Queue&lt;T&gt;</text><polygon fill="none" points="719.5,58.8047,723.5,62.8047,719.5,66.8047,715.5,62.8047" style="stroke: #B38D22; stroke-width: 1.0;"/><text fill="#000000" font-family="sans-serif" font-size="11" lengthAdjust="spacingAndGlyphs" textLength="147" x="728.5" y="67.0151">outputQueue : Queue&lt;T&gt;</text><polygon fill="none" points="719.5,71.6094,723.5,75.6094,719.5,79.6094,715.5,75.6094" style="stroke: #B38D22; stroke-width: 1.0;"/><text fill="#000000" font-family="sans-serif" font-size="11" lengthAdjust="spacingAndGlyphs" textLength="206" x="728.5" y="79.8198">commands : Array&lt;Command&lt;T&gt;&gt;</text><line style="stroke: #A80036; stroke-width: 1.5;" x1="709.5" x2="939.5" y1="86.4141" y2="86.4141"/><ellipse cx="719.5" cy="97.4141" fill="#84BE84" rx="3" ry="3" style="stroke: #038048; stroke-width: 1.0;"/><text fill="#000000" font-family="sans-serif" font-size="11" lengthAdjust="spacingAndGlyphs" textLength="85" x="728.5" y="100.6245">process(): void</text><!--MD5=[864afc91c430f15e67b91383acfeb599]
class JobCompleteHook--><rect fill="#FEFECE" filter="url(#f1rfdhhi626v94)" height="60.8047" id="JobCompleteHook" style="stroke: #A80036; stroke-width: 1.5;" width="157" x="279" y="173.5"/><ellipse cx="300.3" cy="189.5" fill="#B4A7E5" rx="11" ry="11" style="stroke: #A80036; stroke-width: 1.0;"/><path d="M301.2531,186.2813 L301.2531,192.7969 L302.9719,192.7969 C303.425,192.7969 303.5656,192.8281 303.7375,192.9531 C303.9719,193.125 304.0813,193.375 304.0813,193.6563 C304.0813,194.2188 303.7219,194.5 302.9719,194.5 L297.8313,194.5 C297.425,194.5 297.2219,194.4531 297.0656,194.3281 C296.8469,194.1719 296.7063,193.9063 296.7063,193.6563 C296.7063,193.3594 296.8625,193.0781 297.1125,192.9219 C297.2688,192.8125 297.3938,192.7969 297.8313,192.7969 L299.55,192.7969 L299.55,186.2813 L297.8313,186.2813 C297.4094,186.2813 297.2219,186.25 297.0656,186.1406 C296.8469,185.9688 296.7063,185.7188 296.7063,185.4375 C296.7063,185.1563 296.8625,184.8594 297.1125,184.7031 C297.2688,184.6094 297.3938,184.5938 297.8313,184.5938 L302.9719,184.5938 C303.425,184.5938 303.5656,184.625 303.7375,184.7344 C303.9719,184.9063 304.0813,185.1719 304.0813,185.4375 C304.0813,185.7344 303.9406,186.0156 303.675,186.1719 C303.55,186.25 303.3625,186.2813 302.9719,186.2813 Z "/><text fill="#000000" font-family="sans-serif" font-size="12" font-style="italic" lengthAdjust="spacingAndGlyphs" textLength="111" x="315.7" y="193.6543">JobCompleteHook</text><line style="stroke: #A80036; stroke-width: 1.5;" x1="280" x2="435" y1="205.5" y2="205.5"/><line style="stroke: #A80036; stroke-width: 1.5;" x1="280" x2="435" y1="213.5" y2="213.5"/><ellipse cx="290" cy="224.5" fill="#84BE84" rx="3" ry="3" style="stroke: #038048; stroke-width: 1.0;"/><text fill="#000000" font-family="sans-serif" font-size="11" lengthAdjust="spacingAndGlyphs" textLength="131" x="299" y="227.7104">execute(data: T[]): void</text><!--MD5=[cae1aa2ed6e778162995bf3ca3fe08e8]
class JobComplete--><rect fill="#FEFECE" filter="url(#f1rfdhhi626v94)" height="86.4141" id="JobComplete" style="stroke: #A80036; stroke-width: 1.5;" width="189" x="266" y="14.5"/><ellipse cx="317.25" cy="30.5" fill="#ADD1B2" rx="11" ry="11" style="stroke: #A80036; stroke-width: 1.0;"/><path d="M319.5938,26.1719 L319.7656,26.25 C319.9844,25.9375 320.1875,25.8438 320.4844,25.8438 C320.7813,25.8438 321.0625,25.9844 321.2188,26.25 C321.3125,26.4063 321.3281,26.5313 321.3281,26.9688 L321.3281,28.3906 C321.3281,28.8125 321.2969,29 321.1875,29.1563 C321.0156,29.375 320.75,29.5156 320.4844,29.5156 C320.2656,29.5156 320.0313,29.4063 319.8906,29.2656 C319.75,29.1406 319.7188,29.0156 319.6563,28.6094 C319.5625,28.2031 319.3906,27.9844 318.9063,27.7031 C318.4375,27.4531 317.8281,27.2969 317.25,27.2969 C315.5156,27.2969 314.2656,28.6094 314.2656,30.3906 L314.2656,31.4844 C314.2656,33.1875 315.5625,34.2813 317.6094,34.2813 C318.375,34.2813 319.0625,34.1563 319.4844,33.8906 C319.6719,33.7969 319.6719,33.7969 320.125,33.3125 C320.3125,33.125 320.5156,33.0469 320.7344,33.0469 C321.2031,33.0469 321.5938,33.4375 321.5938,33.8906 C321.5938,34.2813 321.2656,34.7344 320.6875,35.1406 C319.9375,35.6875 318.7813,35.9844 317.5625,35.9844 C314.6719,35.9844 312.5625,34.0938 312.5625,31.5156 L312.5625,30.3906 C312.5625,27.6719 314.5625,25.5938 317.1875,25.5938 C318.0625,25.5938 318.6563,25.7344 319.5938,26.1719 Z "/><text fill="#000000" font-family="sans-serif" font-size="12" lengthAdjust="spacingAndGlyphs" textLength="78" x="337.75" y="34.6543">JobComplete</text><line style="stroke: #A80036; stroke-width: 1.5;" x1="267" x2="454" y1="46.5" y2="46.5"/><polygon fill="none" points="277,52.5,281,56.5,277,60.5,273,56.5" style="stroke: #B38D22; stroke-width: 1.0;"/><text fill="#000000" font-family="sans-serif" font-size="11" lengthAdjust="spacingAndGlyphs" textLength="147" x="286" y="60.7104">outputQueue : Queue&lt;T&gt;</text><polygon fill="none" points="277,65.3047,281,69.3047,277,73.3047,273,69.3047" style="stroke: #B38D22; stroke-width: 1.0;"/><text fill="#000000" font-family="sans-serif" font-size="11" lengthAdjust="spacingAndGlyphs" textLength="163" x="286" y="73.5151">hook : JobCompleteHook&lt;T&gt;</text><line style="stroke: #A80036; stroke-width: 1.5;" x1="267" x2="454" y1="80.1094" y2="80.1094"/><ellipse cx="277" cy="91.1094" fill="#84BE84" rx="3" ry="3" style="stroke: #038048; stroke-width: 1.0;"/><text fill="#000000" font-family="sans-serif" font-size="11" lengthAdjust="spacingAndGlyphs" textLength="109" x="286" y="94.3198">process(data: T): T</text><!--MD5=[15b0de36700cf8bf422172734e699e19]
class Queue--><rect fill="#FEFECE" filter="url(#f1rfdhhi626v94)" height="48" id="Queue" style="stroke: #A80036; stroke-width: 1.5;" width="73" x="545" y="180"/><ellipse cx="560" cy="196" fill="#ADD1B2" rx="11" ry="11" style="stroke: #A80036; stroke-width: 1.0;"/><path d="M562.3438,191.6719 L562.5156,191.75 C562.7344,191.4375 562.9375,191.3438 563.2344,191.3438 C563.5313,191.3438 563.8125,191.4844 563.9688,191.75 C564.0625,191.9063 564.0781,192.0313 564.0781,192.4688 L564.0781,193.8906 C564.0781,194.3125 564.0469,194.5 563.9375,194.6563 C563.7656,194.875 563.5,195.0156 563.2344,195.0156 C563.0156,195.0156 562.7813,194.9063 562.6406,194.7656 C562.5,194.6406 562.4688,194.5156 562.4063,194.1094 C562.3125,193.7031 562.1406,193.4844 561.6563,193.2031 C561.1875,192.9531 560.5781,192.7969 560,192.7969 C558.2656,192.7969 557.0156,194.1094 557.0156,195.8906 L557.0156,196.9844 C557.0156,198.6875 558.3125,199.7813 560.3594,199.7813 C561.125,199.7813 561.8125,199.6563 562.2344,199.3906 C562.4219,199.2969 562.4219,199.2969 562.875,198.8125 C563.0625,198.625 563.2656,198.5469 563.4844,198.5469 C563.9531,198.5469 564.3438,198.9375 564.3438,199.3906 C564.3438,199.7813 564.0156,200.2344 563.4375,200.6406 C562.6875,201.1875 561.5313,201.4844 560.3125,201.4844 C557.4219,201.4844 555.3125,199.5938 555.3125,197.0156 L555.3125,195.8906 C555.3125,193.1719 557.3125,191.0938 559.9375,191.0938 C560.8125,191.0938 561.4063,191.2344 562.3438,191.6719 Z "/><text fill="#000000" font-family="sans-serif" font-size="12" lengthAdjust="spacingAndGlyphs" textLength="41" x="574" y="200.1543">Queue</text><line style="stroke: #A80036; stroke-width: 1.5;" x1="546" x2="617" y1="212" y2="212"/><line style="stroke: #A80036; stroke-width: 1.5;" x1="546" x2="617" y1="220" y2="220"/><!--MD5=[56e4c9075fa7c9f4c09ef0a20c49f72c]
class T--><rect fill="#FEFECE" filter="url(#f1rfdhhi626v94)" height="48" id="T" style="stroke: #A80036; stroke-width: 1.5;" width="39" x="471" y="180"/><ellipse cx="486" cy="196" fill="#ADD1B2" rx="11" ry="11" style="stroke: #A80036; stroke-width: 1.0;"/><path d="M488.3438,191.6719 L488.5156,191.75 C488.7344,191.4375 488.9375,191.3438 489.2344,191.3438 C489.5313,191.3438 489.8125,191.4844 489.9688,191.75 C490.0625,191.9063 490.0781,192.0313 490.0781,192.4688 L490.0781,193.8906 C490.0781,194.3125 490.0469,194.5 489.9375,194.6563 C489.7656,194.875 489.5,195.0156 489.2344,195.0156 C489.0156,195.0156 488.7813,194.9063 488.6406,194.7656 C488.5,194.6406 488.4688,194.5156 488.4063,194.1094 C488.3125,193.7031 488.1406,193.4844 487.6563,193.2031 C487.1875,192.9531 486.5781,192.7969 486,192.7969 C484.2656,192.7969 483.0156,194.1094 483.0156,195.8906 L483.0156,196.9844 C483.0156,198.6875 484.3125,199.7813 486.3594,199.7813 C487.125,199.7813 487.8125,199.6563 488.2344,199.3906 C488.4219,199.2969 488.4219,199.2969 488.875,198.8125 C489.0625,198.625 489.2656,198.5469 489.4844,198.5469 C489.9531,198.5469 490.3438,198.9375 490.3438,199.3906 C490.3438,199.7813 490.0156,200.2344 489.4375,200.6406 C488.6875,201.1875 487.5313,201.4844 486.3125,201.4844 C483.4219,201.4844 481.3125,199.5938 481.3125,197.0156 L481.3125,195.8906 C481.3125,193.1719 483.3125,191.0938 485.9375,191.0938 C486.8125,191.0938 487.4063,191.2344 488.3438,191.6719 Z "/><text fill="#000000" font-family="sans-serif" font-size="12" lengthAdjust="spacingAndGlyphs" textLength="7" x="500" y="200.1543">T</text><line style="stroke: #A80036; stroke-width: 1.5;" x1="472" x2="509" y1="212" y2="212"/><line style="stroke: #A80036; stroke-width: 1.5;" x1="472" x2="509" y1="220" y2="220"/><!--MD5=[99f32fa4e73f6681c1a0ac5117bd3ce1]
class Array--><rect fill="#FEFECE" filter="url(#f1rfdhhi626v94)" height="48" id="Array" style="stroke: #A80036; stroke-width: 1.5;" width="64" x="851.5" y="180"/><ellipse cx="866.5" cy="196" fill="#ADD1B2" rx="11" ry="11" style="stroke: #A80036; stroke-width: 1.0;"/><path d="M868.8438,191.6719 L869.0156,191.75 C869.2344,191.4375 869.4375,191.3438 869.7344,191.3438 C870.0313,191.3438 870.3125,191.4844 870.4688,191.75 C870.5625,191.9063 870.5781,192.0313 870.5781,192.4688 L870.5781,193.8906 C870.5781,194.3125 870.5469,194.5 870.4375,194.6563 C870.2656,194.875 870,195.0156 869.7344,195.0156 C869.5156,195.0156 869.2813,194.9063 869.1406,194.7656 C869,194.6406 868.9688,194.5156 868.9063,194.1094 C868.8125,193.7031 868.6406,193.4844 868.1563,193.2031 C867.6875,192.9531 867.0781,192.7969 866.5,192.7969 C864.7656,192.7969 863.5156,194.1094 863.5156,195.8906 L863.5156,196.9844 C863.5156,198.6875 864.8125,199.7813 866.8594,199.7813 C867.625,199.7813 868.3125,199.6563 868.7344,199.3906 C868.9219,199.2969 868.9219,199.2969 869.375,198.8125 C869.5625,198.625 869.7656,198.5469 869.9844,198.5469 C870.4531,198.5469 870.8438,198.9375 870.8438,199.3906 C870.8438,199.7813 870.5156,200.2344 869.9375,200.6406 C869.1875,201.1875 868.0313,201.4844 866.8125,201.4844 C863.9219,201.4844 861.8125,199.5938 861.8125,197.0156 L861.8125,195.8906 C861.8125,193.1719 863.8125,191.0938 866.4375,191.0938 C867.3125,191.0938 867.9063,191.2344 868.8438,191.6719 Z "/><text fill="#000000" font-family="sans-serif" font-size="12" lengthAdjust="spacingAndGlyphs" textLength="32" x="880.5" y="200.1543">Array</text><line style="stroke: #A80036; stroke-width: 1.5;" x1="852.5" x2="914.5" y1="212" y2="212"/><line style="stroke: #A80036; stroke-width: 1.5;" x1="852.5" x2="914.5" y1="220" y2="220"/><!--MD5=[521817ab83e81da341a3f4b5e91bae41]
class Command--><rect fill="#FEFECE" filter="url(#f1rfdhhi626v94)" height="48" id="Command" style="stroke: #A80036; stroke-width: 1.5;" width="94" x="717.5" y="180"/><ellipse cx="732.5" cy="196" fill="#ADD1B2" rx="11" ry="11" style="stroke: #A80036; stroke-width: 1.0;"/><path d="M734.8438,191.6719 L735.0156,191.75 C735.2344,191.4375 735.4375,191.3438 735.7344,191.3438 C736.0313,191.3438 736.3125,191.4844 736.4688,191.75 C736.5625,191.9063 736.5781,192.0313 736.5781,192.4688 L736.5781,193.8906 C736.5781,194.3125 736.5469,194.5 736.4375,194.6563 C736.2656,194.875 736,195.0156 735.7344,195.0156 C735.5156,195.0156 735.2813,194.9063 735.1406,194.7656 C735,194.6406 734.9688,194.5156 734.9063,194.1094 C734.8125,193.7031 734.6406,193.4844 734.1563,193.2031 C733.6875,192.9531 733.0781,192.7969 732.5,192.7969 C730.7656,192.7969 729.5156,194.1094 729.5156,195.8906 L729.5156,196.9844 C729.5156,198.6875 730.8125,199.7813 732.8594,199.7813 C733.625,199.7813 734.3125,199.6563 734.7344,199.3906 C734.9219,199.2969 734.9219,199.2969 735.375,198.8125 C735.5625,198.625 735.7656,198.5469 735.9844,198.5469 C736.4531,198.5469 736.8438,198.9375 736.8438,199.3906 C736.8438,199.7813 736.5156,200.2344 735.9375,200.6406 C735.1875,201.1875 734.0313,201.4844 732.8125,201.4844 C729.9219,201.4844 727.8125,199.5938 727.8125,197.0156 L727.8125,195.8906 C727.8125,193.1719 729.8125,191.0938 732.4375,191.0938 C733.3125,191.0938 733.9063,191.2344 734.8438,191.6719 Z "/><text fill="#000000" font-family="sans-serif" font-size="12" lengthAdjust="spacingAndGlyphs" textLength="62" x="746.5" y="200.1543">Command</text><line style="stroke: #A80036; stroke-width: 1.5;" x1="718.5" x2="810.5" y1="212" y2="212"/><line style="stroke: #A80036; stroke-width: 1.5;" x1="718.5" x2="810.5" y1="220" y2="220"/><!--MD5=[cec9c4cb114950fe1905036102487cce]
link Dispatcher to ReaderOpts--><path d="M118.5,107.018 C118.5,124.703 118.5,144.5206 118.5,161.5363 " fill="none" id="Dispatcher-&gt;ReaderOpts" style="stroke: #A80036; stroke-width: 1.0;"/><polygon fill="#A80036" points="118.5,166.7216,122.5,157.7216,118.5,161.7216,114.5,157.7216,118.5,166.7216" style="stroke: #A80036; stroke-width: 1.0;"/><!--MD5=[dbeea675ff3090f9f708bfbbe7763fd8]
link Dispatcher to Queue--><path d="M231.259,101.689 C237.064,103.56 242.835,105.344 248.5,107 C370.238,142.5943 410.673,117.618 527.5,167 C534.077,169.7802 540.707,173.3901 546.961,177.2485 " fill="none" id="Dispatcher-&gt;Queue" style="stroke: #A80036; stroke-width: 1.0;"/><polygon fill="#A80036" points="551.225,179.9524,545.7678,171.7537,547.0028,177.2741,541.4825,178.5092,551.225,179.9524" style="stroke: #A80036; stroke-width: 1.0;"/><!--MD5=[580d212341a82e07e6ad946fcb0a973b]
link Dispatcher to T--><path d="M231.063,101.063 C236.947,103.109 242.785,105.1 248.5,107 C338.587,136.945 371.505,119.154 453.5,167 C458.241,169.7667 462.832,173.2702 467.072,176.9997 " fill="none" id="Dispatcher-&gt;T" style="stroke: #A80036; stroke-width: 1.0;"/><polygon fill="#A80036" points="470.863,180.4736,466.9312,171.4436,467.1771,177.0951,461.5256,177.3411,470.863,180.4736" style="stroke: #A80036; stroke-width: 1.0;"/><!--MD5=[c8eeedf34948cfaa964a30c012c3d619]
link CommandsOpts to Array--><path d="M1049.7,88.09 C1011.49,114.512 956.12,152.7917 919.967,177.7869 " fill="none" id="CommandsOpts-&gt;Array" style="stroke: #A80036; stroke-width: 1.0;"/><polygon fill="#A80036" points="915.656,180.7675,925.3339,178.9405,919.7691,177.9245,920.7851,172.3596,915.656,180.7675" style="stroke: #A80036; stroke-width: 1.0;"/><!--MD5=[75f29e5130c1305441a102511d7dbc5f]
link CommandsOpts to CommandOpts--><path d="M1092.5,88.09 C1092.5,109.277 1092.5,138.089 1092.5,161.5615 " fill="none" id="CommandsOpts-&gt;CommandOpts" style="stroke: #A80036; stroke-width: 1.0;"/><polygon fill="#A80036" points="1092.5,166.79,1096.5,157.79,1092.5,161.79,1088.5,157.79,1092.5,166.79" style="stroke: #A80036; stroke-width: 1.0;"/><!--MD5=[dbe184ed3fa7984c8aafb170652c2440]
link Processor to Queue--><path d="M581.5,107.018 C581.5,129.502 581.5,155.4338 581.5,174.6713 " fill="none" id="Processor-&gt;Queue" style="stroke: #A80036; stroke-width: 1.0;"/><polygon fill="#A80036" points="581.5,179.9113,585.5,170.9113,581.5,174.9113,577.5,170.9113,581.5,179.9113" style="stroke: #A80036; stroke-width: 1.0;"/><!--MD5=[45b85233532bf164bbfc55cfdd928cda]
link Processor to T--><path d="M550.945,107.018 C536.544,129.886 519.896,156.3213 507.723,175.6519 " fill="none" id="Processor-&gt;T" style="stroke: #A80036; stroke-width: 1.0;"/><polygon fill="#A80036" points="505.04,179.9113,513.2206,174.4269,507.7043,175.6803,506.4509,170.164,505.04,179.9113" style="stroke: #A80036; stroke-width: 1.0;"/><!--MD5=[8091f38ded1e88397e3f7288a28c945e]
link Processor to Command--><path d="M642.945,107.018 C672.392,130.27 706.511,157.2109 731.092,176.6205 " fill="none" id="Processor-&gt;Command" style="stroke: #A80036; stroke-width: 1.0;"/><polygon fill="#A80036" points="735.26,179.9113,730.6754,171.1946,731.3359,176.8127,725.7177,177.4732,735.26,179.9113" style="stroke: #A80036; stroke-width: 1.0;"/><!--MD5=[79508b3371990be877d396feda3157aa]
link Writer to Queue--><path d="M742.909,107.018 C702.398,131.108 655.23,159.1565 622.385,178.688 " fill="none" id="Writer-&gt;Queue" style="stroke: #A80036; stroke-width: 1.0;"/><polygon fill="#A80036" points="618.049,181.2661,627.8291,180.104,622.3465,178.7105,623.7401,173.228,618.049,181.2661" style="stroke: #A80036; stroke-width: 1.0;"/><!--MD5=[dcc68e5b6d97f87e94838f4b6b529bed]
link Writer to T--><path d="M708.292,100.644 C625.924,130.565 529.621,165.6675 527.5,167 C522.852,169.9205 518.31,173.5043 514.089,177.2668 " fill="none" id="Writer-&gt;T" style="stroke: #A80036; stroke-width: 1.0;"/><polygon fill="#A80036" points="510.31,180.7585,519.6351,177.5894,513.9826,177.3656,514.2064,171.7132,510.31,180.7585" style="stroke: #A80036; stroke-width: 1.0;"/><!--MD5=[0a7603e20e3345cf1acf0208e208e2d9]
link Writer to Array--><path d="M844.31,107.018 C853.569,129.694 864.26,155.8773 872.134,175.1631 " fill="none" id="Writer-&gt;Array" style="stroke: #A80036; stroke-width: 1.0;"/><polygon fill="#A80036" points="874.073,179.9113,874.3736,170.067,872.1827,175.2824,866.9674,173.0915,874.073,179.9113" style="stroke: #A80036; stroke-width: 1.0;"/><!--MD5=[00c785d9cca5a30015442350f65c47d2]
link Writer to Command--><path d="M804.354,107.018 C794.939,129.694 784.067,155.8773 776.059,175.1631 " fill="none" id="Writer-&gt;Command" style="stroke: #A80036; stroke-width: 1.0;"/><polygon fill="#A80036" points="774.087,179.9113,781.2321,173.1329,776.0041,175.2934,773.8436,170.0655,774.087,179.9113" style="stroke: #A80036; stroke-width: 1.0;"/><!--MD5=[d3e15aab11cdbee6a4c34d4a39609579]
link JobComplete to Queue--><path d="M425.649,100.573 C456.568,120.606 493.998,144.9506 527.5,167 C532.427,170.2424 537.596,173.6639 542.703,177.0557 " fill="none" id="JobComplete-&gt;Queue" style="stroke: #A80036; stroke-width: 1.0;"/><polygon fill="#A80036" points="546.972,179.8933,541.6922,171.5792,542.8084,177.1249,537.2627,178.241,546.972,179.8933" style="stroke: #A80036; stroke-width: 1.0;"/><!--MD5=[7a9b316bdee3ca3594cff97cf841ca9b]
link JobComplete to T--><path d="M398.451,100.684 C420.745,125.465 448.207,155.9902 467.306,177.2186 " fill="none" id="JobComplete-&gt;T" style="stroke: #A80036; stroke-width: 1.0;"/><polygon fill="#A80036" points="470.771,181.0707,467.7253,171.7046,467.4269,177.3536,461.7779,177.0552,470.771,181.0707" style="stroke: #A80036; stroke-width: 1.0;"/><!--MD5=[37f995e5988221e64ae1569f10ef6c2d]
link JobComplete to JobCompleteHook--><path d="M359.624,100.684 C359.178,122.186 358.642,148.0134 358.22,168.3392 " fill="none" id="JobComplete-&gt;JobCompleteHook" style="stroke: #A80036; stroke-width: 1.0;"/><polygon fill="#A80036" points="358.115,173.3823,362.3011,164.4673,358.2189,168.3834,354.3028,164.3012,358.115,173.3823" style="stroke: #A80036; stroke-width: 1.0;"/><!--MD5=[1b84e8ad93841a91f3c12293c3727ba7]
@startuml
interface ReaderOpts{
  +type : string
  +opts : any
}

class ReaderFactory{
  +createReader(opts: ReaderOpts): Reader
}

class Dispatcher{
  #readerOpts : ReaderOpts
  #inputQueue : Queue<ReaderOpts>
  #rawQueue : Queue<T>
  +dispatch(): void
}

interface CommandsOpts{
  +commands : Array<CommandOpts>
}

interface CommandOpts{
  +name : string
  +opts : any
}

class CommandsFactory{
  +createCommand(opts: CommandsOpts): Array<Command<T>>
}

class Processor{
  #inputQueue : Queue<T>
  #processQueue : Queue<T>
  #command : Command<T>
  +process(): void
}

class Writer{
  #processQueue : Queue<T>
  #outputQueue : Queue<T>
  #commands : Array<Command<T>>
  +process(): void
}

interface JobCompleteHook{
  +execute(data: T[]): void
}

class JobComplete{
  #outputQueue : Queue<T>
  #hook : JobCompleteHook<T>
  +process(data: T): T
}

Dispatcher - -> ReaderOpts
Dispatcher - -> Queue
Dispatcher - -> T
CommandsOpts - -> Array
CommandsOpts - -> CommandOpts
Processor - -> Queue
Processor - -> T
Processor - -> Command
Writer - -> Queue
Writer - -> T
Writer - -> Array
Writer - -> Command
JobComplete - -> Queue
JobComplete - -> T
JobComplete - -> JobCompleteHook
@enduml

PlantUML version 1.2019.11(Sun Sep 22 10:02:15 UTC 2019)
(GPL source distribution)
Java Runtime: Java(TM) SE Runtime Environment
JVM: Java HotSpot(TM) 64-Bit Server VM
Java Version: 1.7.0_25-b15
Operating System: Linux
Default Encoding: UTF-8
Language: en
Country: US
--></g></svg>